<svg width="169" height="71" viewBox="0 0 169 71" fill="none" xmlns="http://www.w3.org/2000/svg">
<path d="M19.56 12.6C21.04 14.4 21.92 16.72 21.92 19C21.92 21.48 20.92 24 19.24 25.88C17.84 27.44 15.36 29.28 11.32 29.28C6.52 29.28 2.56 26.56 1.2 22.48C1.12 22.28 1.24 22.08 1.44 22.04L3.88 21.52L7.56 20.8C7.72 20.76 7.88 20.84 7.96 21C8.24 21.56 8.64 22.08 9.16 22.48C9.24 22.52 9.32 22.6 9.4 22.64C10.04 23.04 10.8 23.28 11.64 23.28C11.88 23.28 12.16 23.28 12.4 23.24C13.12 23.08 13.72 22.8 14.24 22.36C14.36 22.28 14.44 22.2 14.52 22.08C14.68 21.96 14.8 21.8 14.92 21.64C15.12 21.4 15.28 21.12 15.4 20.8C15.44 20.68 15.48 20.56 15.52 20.4C15.56 20.28 15.6 20.16 15.64 20.04C15.68 19.88 15.68 19.76 15.68 19.6C15.72 19.48 15.72 19.36 15.72 19.2C15.72 16.92 13.88 15.08 11.64 15.08C9.88 15.08 8.36 16.2 7.8 17.76C7.72 17.92 7.56 18 7.4 17.96L4.92 17.36L2.08 16.64C1.92 16.6 1.8 16.48 1.84 16.32L2.8 1.12C2.84 0.919999 2.96 0.799998 3.16 0.799998H19C19.2 0.799998 19.32 0.919999 19.36 1.12L19.72 6.92C19.72 7.12 19.56 7.28 19.36 7.28H9.16C8.96 7.28 8.84 7.44 8.8 7.6L8.64 9.48C8.6 9.76 8.84 9.92 9.08 9.84C10.16 9.4 11.2 9.36 12.32 9.36C16.04 9.36 18.28 11.12 19.56 12.6ZM40.79 29.4C38.79 29.4 37.0567 29.08 35.59 28.44C34.1233 27.8 32.99 26.92 32.19 25.8C31.4167 24.6533 31.03 23.32 31.03 21.8C31.03 20.8933 31.15 20.0533 31.39 19.28C31.6567 18.48 32.03 17.7467 32.51 17.08C33.0167 16.3867 33.6167 15.7467 34.31 15.16C35.03 14.5467 35.8433 13.9733 36.75 13.44L38.11 12.64L37.39 13.72C36.2167 12.5467 35.3633 11.44 34.83 10.4C34.3233 9.33333 34.07 8.24 34.07 7.12C34.07 5.78667 34.39 4.61333 35.03 3.6C35.67 2.58666 36.5767 1.8 37.75 1.24C38.9233 0.679999 40.2967 0.399999 41.87 0.399999C44.0567 0.399999 45.79 0.959999 47.07 2.08C48.35 3.17333 48.99 4.66667 48.99 6.56C48.99 7.57333 48.79 8.53333 48.39 9.44C47.99 10.3467 47.35 11.2133 46.47 12.04C45.59 12.8667 44.4167 13.68 42.95 14.48L42.99 13.28L49.79 20.52H48.71C49.0567 19.9333 49.3633 19.2933 49.63 18.6C49.8967 17.88 50.1233 17.12 50.31 16.32C50.5233 15.4933 50.6833 14.64 50.79 13.76C50.8967 13.0933 51.1233 12.6 51.47 12.28C51.8167 11.9333 52.31 11.76 52.95 11.76C53.6433 11.76 54.1633 11.96 54.51 12.36C54.8567 12.7333 54.99 13.28 54.91 14C54.7767 15.2533 54.55 16.4533 54.23 17.6C53.9367 18.72 53.5633 19.7733 53.11 20.76C52.6567 21.72 52.15 22.6133 51.59 23.44L51.55 22.2L55.35 26.04C55.8567 26.5467 56.11 27.0533 56.11 27.56C56.11 28.0667 55.91 28.4933 55.51 28.84C55.1367 29.16 54.6167 29.32 53.95 29.32C53.3633 29.32 52.8833 29.2133 52.51 29C52.1367 28.76 51.7233 28.4133 51.27 27.96L48.79 25.36H49.95C48.7767 26.6133 47.39 27.6 45.79 28.32C44.2167 29.04 42.55 29.4 40.79 29.4ZM41.07 25.44C42.35 25.44 43.4833 25.2 44.47 24.72C45.4833 24.2133 46.4033 23.4667 47.23 22.48L47.11 23.76L38.87 15.24L40.95 15.44L39.79 16.12C38.8833 16.6533 38.15 17.1867 37.59 17.72C37.03 18.2267 36.6167 18.7867 36.35 19.4C36.11 19.9867 35.99 20.6533 35.99 21.4C35.99 22.6533 36.43 23.64 37.31 24.36C38.19 25.08 39.4433 25.44 41.07 25.44ZM41.87 3.96C40.91 3.96 40.1367 4.24 39.55 4.8C38.9633 5.33333 38.67 6.06667 38.67 7C38.67 7.50667 38.75 7.98667 38.91 8.44C39.07 8.86667 39.35 9.34667 39.75 9.88C40.15 10.3867 40.6967 11.0133 41.39 11.76L40.27 11.68C41.39 11.04 42.27 10.4667 42.91 9.96C43.5767 9.45333 44.0567 8.94667 44.35 8.44C44.6433 7.93333 44.79 7.37333 44.79 6.76C44.79 5.85333 44.5233 5.16 43.99 4.68C43.4567 4.2 42.75 3.96 41.87 3.96ZM76.0394 0.799998C76.2394 0.799998 76.3994 0.959999 76.3994 1.12V28.36C76.3994 28.56 76.2394 28.72 76.0394 28.72H69.5994C69.4394 28.72 69.2794 28.56 69.2794 28.36V7.56C69.2794 7.36 69.1194 7.2 68.9194 7.2H64.8794C64.6794 7.2 64.5194 7.04 64.5594 6.84L65.0394 1.12C65.0794 0.919999 65.2394 0.799998 65.3994 0.799998H76.0394ZM90.9763 0.32C97.8163 0.32 103.136 6.68 103.136 14.76C103.136 22.84 97.8163 29.2 90.9763 29.2C84.1763 29.2 78.8563 22.84 78.8563 14.76C78.8563 6.68 84.1763 0.32 90.9763 0.32ZM90.9763 22.6C93.9763 22.6 96.3763 19.08 96.3763 14.76C96.3763 10.44 93.9763 6.92 90.9763 6.92C88.0163 6.92 85.5763 10.44 85.5763 14.76C85.5763 19.08 88.0163 22.6 90.9763 22.6ZM133.92 28.48C134.08 28.72 133.92 29 133.64 29H125.8C125.68 29 125.56 28.96 125.52 28.84L118.92 17.96C118.76 17.64 118.28 17.8 118.28 18.12V28.68C118.28 28.84 118.12 29 117.96 29H111.52C111.32 29 111.2 28.88 111.2 28.68V1.44C111.2 1.24 111.32 1.08 111.52 1.08H117.92C118.12 1.08 118.28 1.24 118.28 1.44V11.76C118.28 12.08 118.76 12.24 118.92 11.92L125.76 1.24C125.84 1.16 125.96 1.08 126.04 1.08H132.68C132.96 1.08 133.16 1.4 133 1.64L124.48 14.44C124.4 14.56 124.4 14.72 124.48 14.84L133.92 28.48ZM167.255 28.56C167.295 28.8 167.135 28.96 166.935 28.96H160.735C160.535 28.96 160.415 28.84 160.375 28.64L159.095 14.48C159.055 14.12 158.535 14.08 158.415 14.44L153.855 28.72C153.815 28.88 153.655 28.96 153.535 28.96H149.295C149.135 28.96 149.015 28.88 148.975 28.72L144.375 14.44C144.295 14.08 143.775 14.12 143.735 14.48L142.415 28.64C142.415 28.84 142.255 28.96 142.095 28.96H135.895C135.695 28.96 135.535 28.8 135.575 28.56L139.055 1.28C139.095 1.12 139.215 0.999998 139.375 0.999998H146.575C146.695 0.999998 146.855 1.08 146.895 1.24L151.135 15.08C151.255 15.4 151.695 15.4 151.775 15.08L155.895 1.24C155.935 1.08 156.055 0.999998 156.215 0.999998H163.415C163.615 0.999998 163.735 1.12 163.775 1.28L167.255 28.56Z" fill="white"/>
<path d="M19.56 12.6C21.04 14.4 21.92 16.72 21.92 19C21.92 21.48 20.92 24 19.24 25.88C17.84 27.44 15.36 29.28 11.32 29.28C6.52 29.28 2.56 26.56 1.2 22.48C1.12 22.28 1.24 22.08 1.44 22.04L3.88 21.52L7.56 20.8C7.72 20.76 7.88 20.84 7.96 21C8.24 21.56 8.64 22.08 9.16 22.48C9.24 22.52 9.32 22.6 9.4 22.64C10.04 23.04 10.8 23.28 11.64 23.28C11.88 23.28 12.16 23.28 12.4 23.24C13.12 23.08 13.72 22.8 14.24 22.36C14.36 22.28 14.44 22.2 14.52 22.08C14.68 21.96 14.8 21.8 14.92 21.64C15.12 21.4 15.28 21.12 15.4 20.8C15.44 20.68 15.48 20.56 15.52 20.4C15.56 20.28 15.6 20.16 15.64 20.04C15.68 19.88 15.68 19.76 15.68 19.6C15.72 19.48 15.72 19.36 15.72 19.2C15.72 16.92 13.88 15.08 11.64 15.08C9.88 15.08 8.36 16.2 7.8 17.76C7.72 17.92 7.56 18 7.4 17.96L4.92 17.36L2.08 16.64C1.92 16.6 1.8 16.48 1.84 16.32L2.8 1.12C2.84 0.919999 2.96 0.799998 3.16 0.799998H19C19.2 0.799998 19.32 0.919999 19.36 1.12L19.72 6.92C19.72 7.12 19.56 7.28 19.36 7.28H9.16C8.96 7.28 8.84 7.44 8.8 7.6L8.64 9.48C8.6 9.76 8.84 9.92 9.08 9.84C10.16 9.4 11.2 9.36 12.32 9.36C16.04 9.36 18.28 11.12 19.56 12.6ZM40.79 29.4C38.79 29.4 37.0567 29.08 35.59 28.44C34.1233 27.8 32.99 26.92 32.19 25.8C31.4167 24.6533 31.03 23.32 31.03 21.8C31.03 20.8933 31.15 20.0533 31.39 19.28C31.6567 18.48 32.03 17.7467 32.51 17.08C33.0167 16.3867 33.6167 15.7467 34.31 15.16C35.03 14.5467 35.8433 13.9733 36.75 13.44L38.11 12.64L37.39 13.72C36.2167 12.5467 35.3633 11.44 34.83 10.4C34.3233 9.33333 34.07 8.24 34.07 7.12C34.07 5.78667 34.39 4.61333 35.03 3.6C35.67 2.58666 36.5767 1.8 37.75 1.24C38.9233 0.679999 40.2967 0.399999 41.87 0.399999C44.0567 0.399999 45.79 0.959999 47.07 2.08C48.35 3.17333 48.99 4.66667 48.99 6.56C48.99 7.57333 48.79 8.53333 48.39 9.44C47.99 10.3467 47.35 11.2133 46.47 12.04C45.59 12.8667 44.4167 13.68 42.95 14.48L42.99 13.28L49.79 20.52H48.71C49.0567 19.9333 49.3633 19.2933 49.63 18.6C49.8967 17.88 50.1233 17.12 50.31 16.32C50.5233 15.4933 50.6833 14.64 50.79 13.76C50.8967 13.0933 51.1233 12.6 51.47 12.28C51.8167 11.9333 52.31 11.76 52.95 11.76C53.6433 11.76 54.1633 11.96 54.51 12.36C54.8567 12.7333 54.99 13.28 54.91 14C54.7767 15.2533 54.55 16.4533 54.23 17.6C53.9367 18.72 53.5633 19.7733 53.11 20.76C52.6567 21.72 52.15 22.6133 51.59 23.44L51.55 22.2L55.35 26.04C55.8567 26.5467 56.11 27.0533 56.11 27.56C56.11 28.0667 55.91 28.4933 55.51 28.84C55.1367 29.16 54.6167 29.32 53.95 29.32C53.3633 29.32 52.8833 29.2133 52.51 29C52.1367 28.76 51.7233 28.4133 51.27 27.96L48.79 25.36H49.95C48.7767 26.6133 47.39 27.6 45.79 28.32C44.2167 29.04 42.55 29.4 40.79 29.4ZM41.07 25.44C42.35 25.44 43.4833 25.2 44.47 24.72C45.4833 24.2133 46.4033 23.4667 47.23 22.48L47.11 23.76L38.87 15.24L40.95 15.44L39.79 16.12C38.8833 16.6533 38.15 17.1867 37.59 17.72C37.03 18.2267 36.6167 18.7867 36.35 19.4C36.11 19.9867 35.99 20.6533 35.99 21.4C35.99 22.6533 36.43 23.64 37.31 24.36C38.19 25.08 39.4433 25.44 41.07 25.44ZM41.87 3.96C40.91 3.96 40.1367 4.24 39.55 4.8C38.9633 5.33333 38.67 6.06667 38.67 7C38.67 7.50667 38.75 7.98667 38.91 8.44C39.07 8.86667 39.35 9.34667 39.75 9.88C40.15 10.3867 40.6967 11.0133 41.39 11.76L40.27 11.68C41.39 11.04 42.27 10.4667 42.91 9.96C43.5767 9.45333 44.0567 8.94667 44.35 8.44C44.6433 7.93333 44.79 7.37333 44.79 6.76C44.79 5.85333 44.5233 5.16 43.99 4.68C43.4567 4.2 42.75 3.96 41.87 3.96ZM76.0394 0.799998C76.2394 0.799998 76.3994 0.959999 76.3994 1.12V28.36C76.3994 28.56 76.2394 28.72 76.0394 28.72H69.5994C69.4394 28.72 69.2794 28.56 69.2794 28.36V7.56C69.2794 7.36 69.1194 7.2 68.9194 7.2H64.8794C64.6794 7.2 64.5194 7.04 64.5594 6.84L65.0394 1.12C65.0794 0.919999 65.2394 0.799998 65.3994 0.799998H76.0394ZM90.9763 0.32C97.8163 0.32 103.136 6.68 103.136 14.76C103.136 22.84 97.8163 29.2 90.9763 29.2C84.1763 29.2 78.8563 22.84 78.8563 14.76C78.8563 6.68 84.1763 0.32 90.9763 0.32ZM90.9763 22.6C93.9763 22.6 96.3763 19.08 96.3763 14.76C96.3763 10.44 93.9763 6.92 90.9763 6.92C88.0163 6.92 85.5763 10.44 85.5763 14.76C85.5763 19.08 88.0163 22.6 90.9763 22.6ZM133.92 28.48C134.08 28.72 133.92 29 133.64 29H125.8C125.68 29 125.56 28.96 125.52 28.84L118.92 17.96C118.76 17.64 118.28 17.8 118.28 18.12V28.68C118.28 28.84 118.12 29 117.96 29H111.52C111.32 29 111.2 28.88 111.2 28.68V1.44C111.2 1.24 111.32 1.08 111.52 1.08H117.92C118.12 1.08 118.28 1.24 118.28 1.44V11.76C118.28 12.08 118.76 12.24 118.92 11.92L125.76 1.24C125.84 1.16 125.96 1.08 126.04 1.08H132.68C132.96 1.08 133.16 1.4 133 1.64L124.48 14.44C124.4 14.56 124.4 14.72 124.48 14.84L133.92 28.48ZM167.255 28.56C167.295 28.8 167.135 28.96 166.935 28.96H160.735C160.535 28.96 160.415 28.84 160.375 28.64L159.095 14.48C159.055 14.12 158.535 14.08 158.415 14.44L153.855 28.72C153.815 28.88 153.655 28.96 153.535 28.96H149.295C149.135 28.96 149.015 28.88 148.975 28.72L144.375 14.44C144.295 14.08 143.775 14.12 143.735 14.48L142.415 28.64C142.415 28.84 142.255 28.96 142.095 28.96H135.895C135.695 28.96 135.535 28.8 135.575 28.56L139.055 1.28C139.095 1.12 139.215 0.999998 139.375 0.999998H146.575C146.695 0.999998 146.855 1.08 146.895 1.24L151.135 15.08C151.255 15.4 151.695 15.4 151.775 15.08L155.895 1.24C155.935 1.08 156.055 0.999998 156.215 0.999998H163.415C163.615 0.999998 163.735 1.12 163.775 1.28L167.255 28.56Z" fill="url(#paint0_linear_35_24)"/>
<mask id="path-2-outside-1_35_24" maskUnits="userSpaceOnUse" x="0.5" y="35" width="168" height="36" fill="black">
<rect fill="white" x="0.5" y="35" width="168" height="36"/>
<path d="M18.82 40.2C23.86 42.4 27.14 47.44 27.14 53.04C27.14 55.76 26.38 58.36 24.94 60.6C23.58 62.8 21.62 64.56 19.34 65.68C17.86 66.4 16.58 67.04 12.38 67.04H4.02C3.82 67.04 3.7 66.88 3.7 66.68V39.4C3.7 39.24 3.82 39.08 4.02 39.08H12.18C15.78 39.08 17.5 39.6 18.82 40.2ZM18.14 58.36C19.42 57.04 20.1 55.2 20.1 53.04C20.06 45.76 12.54 45.48 10.82 45.52C10.62 45.52 10.5 45.68 10.5 45.88V60.16C10.5 60.36 10.66 60.52 10.86 60.52H11.22C14.18 60.52 16.86 59.68 18.14 58.36ZM40.9575 38.88C40.7175 39.8133 40.4108 40.8267 40.0375 41.92C39.6642 43.0133 39.2508 44.1067 38.7975 45.2C38.3708 46.2667 37.9442 47.28 37.5175 48.24H34.9175C35.1042 47.4933 35.2908 46.6933 35.4775 45.84C35.6908 44.9867 35.8775 44.1333 36.0375 43.28C36.2242 42.4 36.3842 41.5467 36.5175 40.72C36.6775 39.8933 36.8108 39.1333 36.9175 38.44H40.6775L40.9575 38.88ZM71.1497 39.08C71.3497 39.08 71.5097 39.24 71.5097 39.44V66.68C71.5097 66.84 71.3497 67 71.1497 67H64.7497C64.5497 67 64.3897 66.84 64.3897 66.68V56.4C64.3897 56.2 64.2297 56.08 64.0297 56.08H56.0697C55.8697 56.08 55.7097 56.2 55.7097 56.4V66.68C55.7097 66.84 55.5497 67 55.3897 67H48.9497C48.7497 67 48.6297 66.84 48.6297 66.68V39.44C48.6297 39.24 48.7497 39.08 48.9497 39.08H55.3897C55.5497 39.08 55.7097 39.24 55.7097 39.44V49.32C55.7097 49.52 55.8697 49.68 56.0697 49.68H64.0297C64.2297 49.68 64.3897 49.52 64.3897 49.32V39.44C64.3897 39.24 64.5497 39.08 64.7497 39.08H71.1497ZM86.5459 39.08C86.7059 39.08 86.8659 39.24 86.8659 39.44V66.68C86.8659 66.84 86.7059 67 86.5459 67H80.1059C79.9059 67 79.7859 66.84 79.7859 66.68V39.44C79.7859 39.24 79.9059 39.08 80.1059 39.08H86.5459ZM111.436 57.28L115.476 66.52C115.556 66.76 115.396 67 115.156 67H108.196C108.036 67 107.916 66.92 107.876 66.8L104.196 58.44C104.156 58.32 104.036 58.24 103.916 58.24H102.796C102.596 58.24 102.436 58.36 102.436 58.56V66.56C102.436 66.76 102.316 66.92 102.116 66.92H95.6763C95.4762 66.92 95.3563 66.76 95.3563 66.56V39.32C95.3563 39.12 95.4762 39 95.6763 39H104.276C109.276 39 111.196 39.76 112.716 41.04C114.756 42.76 115.916 45.48 115.916 48.44C115.916 51.36 114.756 54.28 113.036 55.8C112.516 56.24 112.036 56.6 111.596 56.88C111.436 56.96 111.396 57.16 111.436 57.28ZM107.516 51.4C108.836 50.8 109.116 49.52 109.116 48.56C109.116 47.2 108.556 46.32 107.436 45.8C106.516 45.4 105.356 45.4 104.636 45.4H102.796C102.596 45.4 102.436 45.56 102.436 45.76V51.44C102.436 51.64 102.596 51.8 102.796 51.8H104.876C105.516 51.8 106.636 51.8 107.516 51.4ZM139.937 60.6C140.137 60.6 140.337 60.8 140.297 61L139.737 66.72C139.697 66.92 139.577 67.04 139.377 67.04H124.177C123.977 67.04 123.817 66.88 123.817 66.64V39.44C123.817 39.28 123.937 39.12 124.137 39.12H139.377C139.577 39.12 139.697 39.24 139.737 39.44L140.297 45.12C140.297 45.36 140.137 45.52 139.937 45.52H131.257C131.057 45.52 130.897 45.68 130.897 45.88V49.28C130.897 49.48 131.057 49.64 131.257 49.64H137.577C137.777 49.64 137.937 49.8 137.937 50V55.68C137.937 55.88 137.777 56.04 137.577 56.04H131.257C131.057 56.04 130.897 56.2 130.897 56.4V60.24C130.897 60.44 131.057 60.6 131.257 60.6H139.937ZM164.335 60.52C164.535 60.52 164.695 60.72 164.695 60.92L164.055 66.68C164.055 66.84 163.895 66.96 163.735 66.96H148.575C148.375 66.96 148.255 66.8 148.255 66.64V39.36C148.255 39.16 148.375 39 148.575 39H155.015C155.215 39 155.335 39.16 155.335 39.36V60.2C155.335 60.36 155.495 60.52 155.695 60.52H164.335Z"/>
</mask>
<path d="M18.82 40.2L17.5786 42.9311L17.5991 42.9404L17.6198 42.9495L18.82 40.2ZM24.94 60.6L22.4165 58.9777L22.4021 59L22.3882 59.0225L24.94 60.6ZM19.34 65.68L20.6524 68.3777L20.6627 68.3727L19.34 65.68ZM18.14 58.36L20.2937 60.4484L20.2937 60.4484L18.14 58.36ZM20.1 53.04H23.1V53.0318L23.1 53.0235L20.1 53.04ZM10.82 45.52V48.52H10.8549L10.8898 48.5192L10.82 45.52ZM18.82 40.2L17.6198 42.9495C21.5487 44.6645 24.14 48.6131 24.14 53.04H27.14H30.14C30.14 46.2669 26.1713 40.1355 20.0202 37.4505L18.82 40.2ZM27.14 53.04H24.14C24.14 55.1939 23.5405 57.2292 22.4165 58.9777L24.94 60.6L27.4635 62.2223C29.2195 59.4908 30.14 56.3261 30.14 53.04H27.14ZM24.94 60.6L22.3882 59.0225C21.328 60.7376 19.7962 62.1135 18.0173 62.9873L19.34 65.68L20.6627 68.3727C23.4438 67.0065 25.832 64.8624 27.4918 62.1775L24.94 60.6ZM19.34 65.68L18.0276 62.9823C17.293 63.3397 16.8585 63.5481 16.1724 63.7146C15.4531 63.8892 14.3396 64.04 12.38 64.04V67.04V70.04C14.6204 70.04 16.2469 69.8708 17.5876 69.5454C18.9615 69.2119 19.907 68.7403 20.6524 68.3777L19.34 65.68ZM12.38 67.04V64.04H4.02V67.04V70.04H12.38V67.04ZM4.02 67.04V64.04C4.78976 64.04 5.552 64.3789 6.07516 64.9972C6.55608 65.5655 6.7 66.2006 6.7 66.68H3.7H0.7C0.7 67.3594 0.90392 68.1745 1.49484 68.8728C2.128 69.6211 3.05024 70.04 4.02 70.04V67.04ZM3.7 66.68H6.7V39.4H3.7H0.7V66.68H3.7ZM3.7 39.4H6.7C6.7 40.6458 5.71723 42.08 4.02 42.08V39.08V36.08C1.92277 36.08 0.7 37.8342 0.7 39.4H3.7ZM4.02 39.08V42.08H12.18V39.08V36.08H4.02V39.08ZM12.18 39.08V42.08C15.4356 42.08 16.7182 42.54 17.5786 42.9311L18.82 40.2L20.0614 37.4689C18.2818 36.66 16.1244 36.08 12.18 36.08V39.08ZM18.14 58.36L20.2937 60.4484C22.2081 58.4742 23.1 55.8373 23.1 53.04H20.1H17.1C17.1 54.5627 16.6319 55.6058 15.9863 56.2716L18.14 58.36ZM20.1 53.04L23.1 53.0235C23.087 50.6588 22.4554 48.6653 21.3295 47.0631C20.2199 45.4844 18.7582 44.4662 17.3533 43.814C14.6284 42.5488 11.767 42.4972 10.7502 42.5208L10.82 45.52L10.8898 48.5192C11.593 48.5028 13.3516 48.5712 14.8267 49.256C15.5218 49.5788 16.0551 49.9931 16.4205 50.5131C16.7696 51.0097 17.093 51.7812 17.1 53.0565L20.1 53.04ZM10.82 45.52V42.52C9.85025 42.52 8.92801 42.9389 8.29485 43.6872C7.70392 44.3855 7.5 45.2006 7.5 45.88H10.5H13.5C13.5 46.3594 13.3561 46.9945 12.8752 47.5628C12.352 48.1811 11.5898 48.52 10.82 48.52V45.52ZM10.5 45.88H7.5V60.16H10.5H13.5V45.88H10.5ZM10.5 60.16H7.5C7.5 62.0169 9.00315 63.52 10.86 63.52V60.52V57.52C12.3169 57.52 13.5 58.7031 13.5 60.16H10.5ZM10.86 60.52V63.52H11.22V60.52V57.52H10.86V60.52ZM11.22 60.52V63.52C12.9707 63.52 14.6855 63.2732 16.2048 62.7984C17.6842 62.3362 19.1847 61.5921 20.2937 60.4484L18.14 58.36L15.9863 56.2716C15.8153 56.4479 15.3359 56.7838 14.4152 57.0716C13.5345 57.3468 12.4293 57.52 11.22 57.52V60.52ZM40.9575 38.88L43.863 39.6271L44.187 38.367L43.4885 37.2694L40.9575 38.88ZM40.0375 41.92L37.1985 40.9506L37.1985 40.9506L40.0375 41.92ZM38.7975 45.2L36.0263 44.051L36.0191 44.0683L36.0121 44.0858L38.7975 45.2ZM37.5175 48.24V51.24H39.4671L40.2589 49.4584L37.5175 48.24ZM34.9175 48.24L32.0071 47.5124L31.0752 51.24H34.9175V48.24ZM35.4775 45.84L32.5671 45.1124L32.5563 45.1555L32.5468 45.1989L35.4775 45.84ZM36.0375 43.28L33.1028 42.6575L33.0954 42.6922L33.0889 42.7271L36.0375 43.28ZM36.5175 40.72L33.5722 40.1499L33.5632 40.196L33.5558 40.2423L36.5175 40.72ZM36.9175 38.44V35.44H34.3437L33.9524 37.9838L36.9175 38.44ZM40.6775 38.44L43.2085 36.8294L42.3243 35.44H40.6775V38.44ZM40.9575 38.88L38.052 38.1329C37.8346 38.9783 37.5515 39.9166 37.1985 40.9506L40.0375 41.92L42.8765 42.8894C43.2702 41.7367 43.6004 40.6483 43.863 39.6271L40.9575 38.88ZM40.0375 41.92L37.1985 40.9506C36.8463 41.9819 36.4557 43.0153 36.0263 44.051L38.7975 45.2L41.5687 46.349C42.046 45.198 42.482 44.0448 42.8765 42.8894L40.0375 41.92ZM38.7975 45.2L36.0121 44.0858C35.5981 45.1207 35.1861 46.0991 34.7761 47.0216L37.5175 48.24L40.2589 49.4584C40.7023 48.4609 41.1435 47.4127 41.5829 46.3142L38.7975 45.2ZM37.5175 48.24V45.24H34.9175V48.24V51.24H37.5175V48.24ZM34.9175 48.24L37.8279 48.9676C38.0227 48.1887 38.216 47.3596 38.4082 46.4811L35.4775 45.84L32.5468 45.1989C32.3656 46.0271 32.1857 46.798 32.0071 47.5124L34.9175 48.24ZM35.4775 45.84L38.3879 46.5676C38.6155 45.6572 38.815 44.7456 38.9861 43.8329L36.0375 43.28L33.0889 42.7271C32.94 43.5211 32.7661 44.3162 32.5671 45.1124L35.4775 45.84ZM36.0375 43.28L38.9722 43.9025C39.1683 42.978 39.3375 42.0763 39.4792 41.1977L36.5175 40.72L33.5558 40.2423C33.4308 41.0171 33.28 41.822 33.1028 42.6575L36.0375 43.28ZM36.5175 40.72L39.4628 41.2901C39.6288 40.4328 39.7691 39.6342 39.8826 38.8962L36.9175 38.44L33.9524 37.9838C33.8526 38.6325 33.7262 39.3539 33.5722 40.1499L36.5175 40.72ZM36.9175 38.44V41.44H40.6775V38.44V35.44H36.9175V38.44ZM40.6775 38.44L38.1465 40.0506L38.4265 40.4906L40.9575 38.88L43.4885 37.2694L43.2085 36.8294L40.6775 38.44ZM71.1497 39.08V42.08C69.6928 42.08 68.5097 40.8969 68.5097 39.44H71.5097H74.5097C74.5097 37.5831 73.0065 36.08 71.1497 36.08V39.08ZM71.5097 39.44H68.5097V66.68H71.5097H74.5097V39.44H71.5097ZM71.5097 66.68H68.5097C68.5097 65.7659 68.9452 65.0876 69.3699 64.6956C69.818 64.2819 70.4415 64 71.1497 64V67V70C72.7759 70 74.5097 68.7184 74.5097 66.68H71.5097ZM71.1497 67V64H64.7497V67V70H71.1497V67ZM64.7497 67V64C65.4579 64 66.0814 64.2819 66.5295 64.6956C66.9542 65.0876 67.3897 65.7659 67.3897 66.68H64.3897H61.3897C61.3897 68.7184 63.1235 70 64.7497 70V67ZM64.3897 66.68H67.3897V56.4H64.3897H61.3897V66.68H64.3897ZM64.3897 56.4H67.3897C67.3897 55.4302 66.9708 54.508 66.2225 53.8748C65.5242 53.2839 64.7091 53.08 64.0297 53.08V56.08V59.08C63.5503 59.08 62.9152 58.9361 62.3469 58.4552C61.7286 57.932 61.3897 57.1698 61.3897 56.4H64.3897ZM64.0297 56.08V53.08H56.0697V56.08V59.08H64.0297V56.08ZM56.0697 56.08V53.08C55.3903 53.08 54.5752 53.2839 53.8769 53.8748C53.1286 54.508 52.7097 55.4302 52.7097 56.4H55.7097H58.7097C58.7097 57.1698 58.3708 57.932 57.7525 58.4552C57.1842 58.9361 56.5491 59.08 56.0697 59.08V56.08ZM55.7097 56.4H52.7097V66.68H55.7097H58.7097V56.4H55.7097ZM55.7097 66.68H52.7097C52.7097 65.7843 53.1273 65.1397 53.4884 64.7787C53.8494 64.4176 54.494 64 55.3897 64V67V70C56.4454 70 57.25 69.5024 57.731 69.0213C58.212 68.5403 58.7097 67.7357 58.7097 66.68H55.7097ZM55.3897 67V64H48.9497V67V70H55.3897V67ZM48.9497 67V64C50.6469 64 51.6297 65.4342 51.6297 66.68H48.6297H45.6297C45.6297 68.2458 46.8525 70 48.9497 70V67ZM48.6297 66.68H51.6297V39.44H48.6297H45.6297V66.68H48.6297ZM48.6297 39.44H51.6297C51.6297 39.9194 51.4858 40.5545 51.0048 41.1228C50.4817 41.7411 49.7195 42.08 48.9497 42.08V39.08V36.08C47.9799 36.08 47.0577 36.4989 46.4245 37.2472C45.8336 37.9455 45.6297 38.7606 45.6297 39.44H48.6297ZM48.9497 39.08V42.08H55.3897V39.08V36.08H48.9497V39.08ZM55.3897 39.08V42.08C54.4755 42.08 53.7973 41.6445 53.4053 41.2198C52.9916 40.7717 52.7097 40.1482 52.7097 39.44H55.7097H58.7097C58.7097 37.8138 57.4281 36.08 55.3897 36.08V39.08ZM55.7097 39.44H52.7097V49.32H55.7097H58.7097V39.44H55.7097ZM55.7097 49.32H52.7097C52.7097 51.1769 54.2128 52.68 56.0697 52.68V49.68V46.68C57.5265 46.68 58.7097 47.8631 58.7097 49.32H55.7097ZM56.0697 49.68V52.68H64.0297V49.68V46.68H56.0697V49.68ZM64.0297 49.68V52.68C65.8865 52.68 67.3897 51.1769 67.3897 49.32H64.3897H61.3897C61.3897 47.8631 62.5728 46.68 64.0297 46.68V49.68ZM64.3897 49.32H67.3897V39.44H64.3897H61.3897V49.32H64.3897ZM64.3897 39.44H67.3897C67.3897 40.8969 66.2065 42.08 64.7497 42.08V39.08V36.08C62.8928 36.08 61.3897 37.5831 61.3897 39.44H64.3897ZM64.7497 39.08V42.08H71.1497V39.08V36.08H64.7497V39.08ZM86.5459 39.08V42.08C85.6318 42.08 84.9535 41.6445 84.5615 41.2198C84.1478 40.7717 83.8659 40.1482 83.8659 39.44H86.8659H89.8659C89.8659 37.8138 88.5844 36.08 86.5459 36.08V39.08ZM86.8659 39.44H83.8659V66.68H86.8659H89.8659V39.44H86.8659ZM86.8659 66.68H83.8659C83.8659 65.7843 84.2836 65.1397 84.6446 64.7787C85.0057 64.4176 85.6502 64 86.5459 64V67V70C87.6016 70 88.4062 69.5024 88.8873 69.0213C89.3683 68.5403 89.8659 67.7357 89.8659 66.68H86.8659ZM86.5459 67V64H80.1059V67V70H86.5459V67ZM80.1059 67V64C81.8032 64 82.7859 65.4342 82.7859 66.68H79.7859H76.7859C76.7859 68.2458 78.0087 70 80.1059 70V67ZM79.7859 66.68H82.7859V39.44H79.7859H76.7859V66.68H79.7859ZM79.7859 39.44H82.7859C82.7859 39.9194 82.642 40.5545 82.1611 41.1228C81.6379 41.7411 80.8757 42.08 80.1059 42.08V39.08V36.08C79.1362 36.08 78.2139 36.4989 77.5808 37.2472C76.9899 37.9455 76.7859 38.7606 76.7859 39.44H79.7859ZM80.1059 39.08V42.08H86.5459V39.08V36.08H80.1059V39.08ZM111.436 57.28L108.59 58.2287L108.633 58.3575L108.688 58.4818L111.436 57.28ZM115.476 66.52L118.322 65.5713L118.279 65.4425L118.225 65.3182L115.476 66.52ZM107.876 66.8L110.722 65.8513L110.678 65.719L110.622 65.5913L107.876 66.8ZM104.196 58.44L101.35 59.3887L101.394 59.521L101.45 59.6487L104.196 58.44ZM112.716 41.04L114.65 38.7464L114.649 38.7453L112.716 41.04ZM113.036 55.8L114.974 58.0902L114.999 58.0693L115.023 58.048L113.036 55.8ZM111.596 56.88L112.938 59.5633L113.076 59.4941L113.207 59.411L111.596 56.88ZM107.516 51.4L108.758 54.1311L108.758 54.1311L107.516 51.4ZM107.436 45.8L108.7 43.079L108.666 43.0635L108.632 43.0488L107.436 45.8ZM111.436 57.28L108.688 58.4818L112.728 67.7218L115.476 66.52L118.225 65.3182L114.185 56.0782L111.436 57.28ZM115.476 66.52L112.63 67.4687C112.143 66.0062 113.102 64 115.156 64V67V70C117.69 70 118.97 67.5138 118.322 65.5713L115.476 66.52ZM115.156 67V64H108.196V67V70H115.156V67ZM108.196 67V64C109.031 64 110.268 64.4869 110.722 65.8513L107.876 66.8L105.03 67.7487C105.565 69.3531 107.041 70 108.196 70V67ZM107.876 66.8L110.622 65.5913L106.942 57.2313L104.196 58.44L101.45 59.6487L105.13 68.0087L107.876 66.8ZM104.196 58.44L107.042 57.4913C106.573 56.0824 105.259 55.24 103.916 55.24V58.24V61.24C102.814 61.24 101.74 60.5576 101.35 59.3887L104.196 58.44ZM103.916 58.24V55.24H102.796V58.24V61.24H103.916V58.24ZM102.796 58.24V55.24C102.117 55.24 101.302 55.4439 100.603 56.0348C99.8551 56.668 99.4363 57.5902 99.4363 58.56H102.436H105.436C105.436 59.3298 105.097 60.092 104.479 60.6152C103.911 61.0961 103.276 61.24 102.796 61.24V58.24ZM102.436 58.56H99.4363V66.56H102.436H105.436V58.56H102.436ZM102.436 66.56H99.4363C99.4363 66.0806 99.5802 65.4455 100.061 64.8772C100.584 64.2589 101.346 63.92 102.116 63.92V66.92V69.92C103.086 69.92 104.008 69.5011 104.641 68.7528C105.232 68.0545 105.436 67.2394 105.436 66.56H102.436ZM102.116 66.92V63.92H95.6763V66.92V69.92H102.116V66.92ZM95.6763 66.92V63.92C96.446 63.92 97.2082 64.2589 97.7314 64.8772C98.2123 65.4455 98.3563 66.0806 98.3563 66.56H95.3563H92.3563C92.3563 67.2394 92.5602 68.0545 93.1511 68.7528C93.7843 69.5011 94.7065 69.92 95.6763 69.92V66.92ZM95.3563 66.56H98.3563V39.32H95.3563H92.3563V66.56H95.3563ZM95.3563 39.32H98.3563C98.3563 39.8215 98.194 40.5749 97.5626 41.2063C96.9311 41.8377 96.1778 42 95.6763 42V39V36C94.9747 36 94.0614 36.2222 93.3199 36.9637C92.5785 37.7051 92.3563 38.6185 92.3563 39.32H95.3563ZM95.6763 39V42H104.276V39V36H95.6763V39ZM104.276 39V42C108.978 42 110.051 42.718 110.784 43.3347L112.716 41.04L114.649 38.7453C112.341 36.802 109.575 36 104.276 36V39ZM112.716 41.04L110.782 43.3336C112.054 44.4054 112.916 46.2354 112.916 48.44H115.916H118.916C118.916 44.7246 117.459 41.1146 114.65 38.7464L112.716 41.04ZM115.916 48.44H112.916C112.916 50.727 111.973 52.7362 111.05 53.552L113.036 55.8L115.023 58.048C117.54 55.8238 118.916 51.993 118.916 48.44H115.916ZM113.036 55.8L111.098 53.5098C110.653 53.8871 110.283 54.1599 109.986 54.349L111.596 56.88L113.207 59.411C113.79 59.0401 114.38 58.5929 114.974 58.0902L113.036 55.8ZM111.596 56.88L110.255 54.1967C109.325 54.6615 108.818 55.4467 108.595 56.1163C108.388 56.7376 108.343 57.4868 108.59 58.2287L111.436 57.28L114.282 56.3313C114.49 56.9532 114.444 57.5424 114.287 58.0137C114.114 58.5333 113.708 59.1785 112.938 59.5633L111.596 56.88ZM107.516 51.4L108.758 54.1311C111.701 52.7934 112.116 49.9373 112.116 48.56H109.116H106.116C106.116 48.6579 106.109 48.7393 106.098 48.8006C106.087 48.8621 106.077 48.8813 106.082 48.8696C106.089 48.8535 106.114 48.807 106.165 48.754C106.19 48.7287 106.215 48.7077 106.237 48.6918C106.248 48.6841 106.257 48.6784 106.264 48.6745C106.271 48.6706 106.275 48.6689 106.275 48.6689L107.516 51.4ZM109.116 48.56H112.116C112.116 47.4673 111.889 46.3287 111.251 45.2927C110.606 44.2449 109.687 43.5374 108.7 43.079L107.436 45.8L106.173 48.521C106.247 48.5553 106.259 48.5713 106.239 48.5539C106.228 48.5453 106.212 48.5305 106.194 48.5091C106.175 48.4876 106.157 48.4632 106.141 48.4373C106.125 48.4114 106.114 48.3886 106.107 48.3714C106.1 48.3545 106.099 48.3467 106.1 48.3512C106.102 48.361 106.116 48.4242 106.116 48.56H109.116ZM107.436 45.8L108.632 43.0488C107.043 42.3576 105.235 42.4 104.636 42.4V45.4V48.4C105.006 48.4 105.335 48.402 105.66 48.4348C105.996 48.4688 106.176 48.5232 106.24 48.5512L107.436 45.8ZM104.636 45.4V42.4H102.796V45.4V48.4H104.636V45.4ZM102.796 45.4V42.4C100.939 42.4 99.4363 43.9032 99.4363 45.76H102.436H105.436C105.436 47.2168 104.253 48.4 102.796 48.4V45.4ZM102.436 45.76H99.4363V51.44H102.436H105.436V45.76H102.436ZM102.436 51.44H99.4363C99.4363 53.2969 100.939 54.8 102.796 54.8V51.8V48.8C104.253 48.8 105.436 49.9831 105.436 51.44H102.436ZM102.796 51.8V54.8H104.876V51.8V48.8H102.796V51.8ZM104.876 51.8V54.8C105.397 54.8 107.188 54.8447 108.758 54.1311L107.516 51.4L106.275 48.6689C106.242 48.6837 106.095 48.7342 105.789 48.7668C105.496 48.798 105.203 48.8 104.876 48.8V51.8ZM140.297 61L137.355 60.4117L137.326 60.5586L137.311 60.7077L140.297 61ZM139.737 66.72L142.679 67.3084L142.708 67.1614L142.723 67.0123L139.737 66.72ZM139.737 39.44L142.723 39.1457L142.708 38.9976L142.679 38.8516L139.737 39.44ZM140.297 45.12H143.297V44.9725L143.283 44.8257L140.297 45.12ZM139.937 60.6V63.6C139.072 63.6 138.413 63.1996 138.014 62.772C137.609 62.3378 137.139 61.4963 137.355 60.4117L140.297 61L143.239 61.5883C143.496 60.3037 142.946 59.2622 142.4 58.678C141.861 58.1004 141.003 57.6 139.937 57.6V60.6ZM140.297 61L137.311 60.7077L136.751 66.4277L139.737 66.72L142.723 67.0123L143.283 61.2923L140.297 61ZM139.737 66.72L136.795 66.1316C136.862 65.797 137.056 65.2333 137.59 64.7435C138.163 64.2186 138.842 64.04 139.377 64.04V67.04V70.04C140.113 70.04 140.952 69.8014 141.644 69.1665C142.299 68.5667 142.572 67.843 142.679 67.3084L139.737 66.72ZM139.377 67.04V64.04H124.177V67.04V70.04H139.377V67.04ZM124.177 67.04V64.04C124.907 64.04 125.615 64.3439 126.121 64.8886C126.623 65.4296 126.817 66.0829 126.817 66.64H123.817H120.817C120.817 68.3236 122.115 70.04 124.177 70.04V67.04ZM123.817 66.64H126.817V39.44H123.817H120.817V66.64H123.817ZM123.817 39.44H126.817C126.817 40.6858 125.834 42.12 124.137 42.12V39.12V36.12C122.04 36.12 120.817 37.8742 120.817 39.44H123.817ZM124.137 39.12V42.12H139.377V39.12V36.12H124.137V39.12ZM139.377 39.12V42.12C138.842 42.12 138.163 41.9414 137.59 41.4165C137.056 40.9266 136.862 40.363 136.795 40.0284L139.737 39.44L142.679 38.8516C142.572 38.317 142.299 37.5934 141.644 36.9935C140.952 36.3586 140.113 36.12 139.377 36.12V39.12ZM139.737 39.44L136.752 39.7343L137.312 45.4143L140.297 45.12L143.283 44.8257L142.723 39.1457L139.737 39.44ZM140.297 45.12H137.297C137.297 44.5629 137.491 43.9096 137.994 43.3686C138.5 42.8239 139.208 42.52 139.937 42.52V45.52V48.52C142 48.52 143.297 46.8036 143.297 45.12H140.297ZM139.937 45.52V42.52H131.257V45.52V48.52H139.937V45.52ZM131.257 45.52V42.52C129.4 42.52 127.897 44.0231 127.897 45.88H130.897H133.897C133.897 47.3369 132.714 48.52 131.257 48.52V45.52ZM130.897 45.88H127.897V49.28H130.897H133.897V45.88H130.897ZM130.897 49.28H127.897C127.897 51.1368 129.4 52.64 131.257 52.64V49.64V46.64C132.714 46.64 133.897 47.8232 133.897 49.28H130.897ZM131.257 49.64V52.64H137.577V49.64V46.64H131.257V49.64ZM137.577 49.64V52.64C136.12 52.64 134.937 51.4569 134.937 50H137.937H140.937C140.937 48.1431 139.434 46.64 137.577 46.64V49.64ZM137.937 50H134.937V55.68H137.937H140.937V50H137.937ZM137.937 55.68H134.937C134.937 54.2231 136.12 53.04 137.577 53.04V56.04V59.04C139.434 59.04 140.937 57.5369 140.937 55.68H137.937ZM137.577 56.04V53.04H131.257V56.04V59.04H137.577V56.04ZM131.257 56.04V53.04C129.4 53.04 127.897 54.5432 127.897 56.4H130.897H133.897C133.897 57.8568 132.714 59.04 131.257 59.04V56.04ZM130.897 56.4H127.897V60.24H130.897H133.897V56.4H130.897ZM130.897 60.24H127.897C127.897 62.0969 129.4 63.6 131.257 63.6V60.6V57.6C132.714 57.6 133.897 58.7831 133.897 60.24H130.897ZM131.257 60.6V63.6H139.937V60.6V57.6H131.257V60.6ZM164.695 60.92L167.676 61.2513L167.695 61.0862V60.92H164.695ZM164.055 66.68L161.073 66.3487L161.055 66.5138V66.68H164.055ZM164.335 60.52V63.52C163.392 63.52 162.704 63.0497 162.323 62.6098C161.949 62.1784 161.695 61.5918 161.695 60.92H164.695H167.695C167.695 60.0482 167.361 59.2616 166.857 58.6802C166.346 58.0903 165.477 57.52 164.335 57.52V60.52ZM164.695 60.92L161.713 60.5887L161.073 66.3487L164.055 66.68L167.036 67.0113L167.676 61.2513L164.695 60.92ZM164.055 66.68H161.055C161.055 65.6993 161.553 64.9764 162.034 64.5753C162.5 64.1872 163.096 63.96 163.735 63.96V66.96V69.96C164.534 69.96 165.289 69.6728 165.875 69.1847C166.477 68.6836 167.055 67.8207 167.055 66.68H164.055ZM163.735 66.96V63.96H148.575V66.96V69.96H163.735V66.96ZM148.575 66.96V63.96C150.272 63.96 151.255 65.3942 151.255 66.64H148.255H145.255C145.255 68.2058 146.477 69.96 148.575 69.96V66.96ZM148.255 66.64H151.255V39.36H148.255H145.255V66.64H148.255ZM148.255 39.36H151.255C151.255 39.8394 151.111 40.4745 150.63 41.0428C150.107 41.6611 149.344 42 148.575 42V39V36C147.605 36 146.683 36.4189 146.05 37.1672C145.459 37.8655 145.255 38.6806 145.255 39.36H148.255ZM148.575 39V42H155.015V39V36H148.575V39ZM155.015 39V42C154.245 42 153.483 41.6611 152.96 41.0428C152.479 40.4745 152.335 39.8394 152.335 39.36H155.335H158.335C158.335 38.6806 158.131 37.8655 157.54 37.1672C156.907 36.4189 155.984 36 155.015 36V39ZM155.335 39.36H152.335V60.2H155.335H158.335V39.36H155.335ZM155.335 60.2H152.335C152.335 62.2384 154.068 63.52 155.695 63.52V60.52V57.52C156.403 57.52 157.026 57.8019 157.475 58.2156C157.899 58.6076 158.335 59.2859 158.335 60.2H155.335ZM155.695 60.52V63.52H164.335V60.52V57.52H155.695V60.52Z" fill="url(#paint1_linear_35_24)" mask="url(#path-2-outside-1_35_24)"/>
<defs>
<linearGradient id="paint0_linear_35_24" x1="84.5" y1="1" x2="84.5" y2="29" gradientUnits="userSpaceOnUse">
<stop stop-color="#50B5DE"/>
<stop offset="1" stop-color="#8DC8E6"/>
</linearGradient>
<linearGradient id="paint1_linear_35_24" x1="84.5" y1="39" x2="84.5" y2="67" gradientUnits="userSpaceOnUse">
<stop stop-color="#50B5DE"/>
<stop offset="1" stop-color="#8DC8E6"/>
</linearGradient>
</defs>
</svg>
