<svg width="460" height="187" viewBox="0 0 460 187" fill="none" xmlns="http://www.w3.org/2000/svg">
<path d="M116.779 30.3C119.369 33.45 120.909 37.51 120.909 41.5C120.909 45.84 119.159 50.25 116.219 53.54C113.769 56.27 109.429 59.49 102.359 59.49C93.9588 59.49 87.0288 54.73 84.6488 47.59C84.5088 47.24 84.7188 46.89 85.0688 46.82L89.3388 45.91L95.7788 44.65C96.0588 44.58 96.3388 44.72 96.4788 45C96.9688 45.98 97.6688 46.89 98.5788 47.59C98.7188 47.66 98.8588 47.8 98.9988 47.87C100.119 48.57 101.449 48.99 102.919 48.99C103.339 48.99 103.829 48.99 104.249 48.92C105.509 48.64 106.559 48.15 107.469 47.38C107.679 47.24 107.819 47.1 107.959 46.89C108.239 46.68 108.449 46.4 108.659 46.12C109.009 45.7 109.289 45.21 109.499 44.65C109.569 44.44 109.639 44.23 109.709 43.95C109.779 43.74 109.849 43.53 109.919 43.32C109.989 43.04 109.989 42.83 109.989 42.55C110.059 42.34 110.059 42.13 110.059 41.85C110.059 37.86 106.839 34.64 102.919 34.64C99.8388 34.64 97.1788 36.6 96.1988 39.33C96.0588 39.61 95.7788 39.75 95.4988 39.68L91.1588 38.63L86.1888 37.37C85.9088 37.3 85.6988 37.09 85.7688 36.81L87.4488 10.21C87.5188 9.86 87.7288 9.65 88.0788 9.65H115.799C116.149 9.65 116.359 9.86 116.429 10.21L117.059 20.36C117.059 20.71 116.779 20.99 116.429 20.99H98.5788C98.2288 20.99 98.0188 21.27 97.9488 21.55L97.6688 24.84C97.5988 25.33 98.0188 25.61 98.4388 25.47C100.329 24.7 102.149 24.63 104.109 24.63C110.619 24.63 114.539 27.71 116.779 30.3ZM153.931 59.7C150.431 59.7 147.398 59.14 144.831 58.02C142.265 56.9 140.281 55.36 138.881 53.4C137.528 51.3933 136.851 49.06 136.851 46.4C136.851 44.8133 137.061 43.3433 137.481 41.99C137.948 40.59 138.601 39.3067 139.441 38.14C140.328 36.9267 141.378 35.8067 142.591 34.78C143.851 33.7067 145.275 32.7033 146.861 31.77L149.241 30.37L147.981 32.26C145.928 30.2067 144.435 28.27 143.501 26.45C142.615 24.5833 142.171 22.67 142.171 20.71C142.171 18.3767 142.731 16.3233 143.851 14.55C144.971 12.7767 146.558 11.4 148.611 10.42C150.665 9.44 153.068 8.95 155.821 8.95C159.648 8.95 162.681 9.93 164.921 11.89C167.161 13.8033 168.281 16.4167 168.281 19.73C168.281 21.5033 167.931 23.1833 167.231 24.77C166.531 26.3567 165.411 27.8733 163.871 29.32C162.331 30.7667 160.278 32.19 157.711 33.59L157.781 31.49L169.681 44.16H167.791C168.398 43.1333 168.935 42.0133 169.401 40.8C169.868 39.54 170.265 38.21 170.591 36.81C170.965 35.3633 171.245 33.87 171.431 32.33C171.618 31.1633 172.015 30.3 172.621 29.74C173.228 29.1333 174.091 28.83 175.211 28.83C176.425 28.83 177.335 29.18 177.941 29.88C178.548 30.5333 178.781 31.49 178.641 32.75C178.408 34.9433 178.011 37.0433 177.451 39.05C176.938 41.01 176.285 42.8533 175.491 44.58C174.698 46.26 173.811 47.8233 172.831 49.27L172.761 47.1L179.411 53.82C180.298 54.7067 180.741 55.5933 180.741 56.48C180.741 57.3667 180.391 58.1133 179.691 58.72C179.038 59.28 178.128 59.56 176.961 59.56C175.935 59.56 175.095 59.3733 174.441 59C173.788 58.58 173.065 57.9733 172.271 57.18L167.931 52.63H169.961C167.908 54.8233 165.481 56.55 162.681 57.81C159.928 59.07 157.011 59.7 153.931 59.7ZM154.421 52.77C156.661 52.77 158.645 52.35 160.371 51.51C162.145 50.6233 163.755 49.3167 165.201 47.59L164.991 49.83L150.571 34.92L154.211 35.27L152.181 36.46C150.595 37.3933 149.311 38.3267 148.331 39.26C147.351 40.1467 146.628 41.1267 146.161 42.2C145.741 43.2267 145.531 44.3933 145.531 45.7C145.531 47.8933 146.301 49.62 147.841 50.88C149.381 52.14 151.575 52.77 154.421 52.77ZM155.821 15.18C154.141 15.18 152.788 15.67 151.761 16.65C150.735 17.5833 150.221 18.8667 150.221 20.5C150.221 21.3867 150.361 22.2267 150.641 23.02C150.921 23.7667 151.411 24.6067 152.111 25.54C152.811 26.4267 153.768 27.5233 154.981 28.83L153.021 28.69C154.981 27.57 156.521 26.5667 157.641 25.68C158.808 24.7933 159.648 23.9067 160.161 23.02C160.675 22.1333 160.931 21.1533 160.931 20.08C160.931 18.4933 160.465 17.28 159.531 16.44C158.598 15.6 157.361 15.18 155.821 15.18ZM215.618 9.65C215.968 9.65 216.248 9.93 216.248 10.21V57.88C216.248 58.23 215.968 58.51 215.618 58.51H204.348C204.068 58.51 203.788 58.23 203.788 57.88V21.48C203.788 21.13 203.508 20.85 203.158 20.85H196.088C195.738 20.85 195.458 20.57 195.528 20.22L196.368 10.21C196.438 9.86 196.718 9.65 196.998 9.65H215.618ZM241.757 8.81C253.727 8.81 263.037 19.94 263.037 34.08C263.037 48.22 253.727 59.35 241.757 59.35C229.857 59.35 220.547 48.22 220.547 34.08C220.547 19.94 229.857 8.81 241.757 8.81ZM241.757 47.8C247.007 47.8 251.207 41.64 251.207 34.08C251.207 26.52 247.007 20.36 241.757 20.36C236.577 20.36 232.307 26.52 232.307 34.08C232.307 41.64 236.577 47.8 241.757 47.8ZM316.909 58.09C317.189 58.51 316.909 59 316.419 59H302.699C302.489 59 302.279 58.93 302.209 58.72L290.659 39.68C290.379 39.12 289.539 39.4 289.539 39.96V58.44C289.539 58.72 289.259 59 288.979 59H277.709C277.359 59 277.149 58.79 277.149 58.44V10.77C277.149 10.42 277.359 10.14 277.709 10.14H288.909C289.259 10.14 289.539 10.42 289.539 10.77V28.83C289.539 29.39 290.379 29.67 290.659 29.11L302.629 10.42C302.769 10.28 302.979 10.14 303.119 10.14H314.739C315.229 10.14 315.579 10.7 315.299 11.12L300.389 33.52C300.249 33.73 300.249 34.01 300.389 34.22L316.909 58.09ZM375.245 58.23C375.315 58.65 375.035 58.93 374.685 58.93H363.835C363.485 58.93 363.275 58.72 363.205 58.37L360.965 33.59C360.895 32.96 359.985 32.89 359.775 33.52L351.795 58.51C351.725 58.79 351.445 58.93 351.235 58.93H343.815C343.535 58.93 343.325 58.79 343.255 58.51L335.205 33.52C335.065 32.89 334.155 32.96 334.085 33.59L331.775 58.37C331.775 58.72 331.495 58.93 331.215 58.93H320.365C320.015 58.93 319.735 58.65 319.805 58.23L325.895 10.49C325.965 10.21 326.175 10 326.455 10H339.055C339.265 10 339.545 10.14 339.615 10.42L347.035 34.64C347.245 35.2 348.015 35.2 348.155 34.64L355.365 10.42C355.435 10.14 355.645 10 355.925 10H368.525C368.875 10 369.085 10.21 369.155 10.49L375.245 58.23Z" fill="white"/>
<mask id="path-2-outside-1_1_86" maskUnits="userSpaceOnUse" x="84" y="63" width="292" height="61" fill="black">
<rect fill="white" x="84" y="63" width="292" height="61"/>
<path d="M115.566 71.1C124.386 74.95 130.126 83.77 130.126 93.57C130.126 98.33 128.796 102.88 126.276 106.8C123.896 110.65 120.466 113.73 116.476 115.69C113.886 116.95 111.646 118.07 104.296 118.07H89.6659C89.3159 118.07 89.1059 117.79 89.1059 117.44V69.7C89.1059 69.42 89.3159 69.14 89.6659 69.14H103.946C110.246 69.14 113.256 70.05 115.566 71.1ZM114.376 102.88C116.616 100.57 117.806 97.35 117.806 93.57C117.736 80.83 104.576 80.34 101.566 80.41C101.216 80.41 101.006 80.69 101.006 81.04V106.03C101.006 106.38 101.286 106.66 101.636 106.66H102.266C107.446 106.66 112.136 105.19 114.376 102.88ZM154.306 68.79C153.886 70.4233 153.35 72.1967 152.696 74.11C152.043 76.0233 151.32 77.9367 150.526 79.85C149.78 81.7167 149.033 83.49 148.286 85.17H143.736C144.063 83.8633 144.39 82.4633 144.716 80.97C145.09 79.4767 145.416 77.9833 145.696 76.49C146.023 74.95 146.303 73.4567 146.536 72.01C146.816 70.5633 147.05 69.2333 147.236 68.02H153.816L154.306 68.79ZM207.143 69.14C207.493 69.14 207.773 69.42 207.773 69.77V117.44C207.773 117.72 207.493 118 207.143 118H195.943C195.593 118 195.313 117.72 195.313 117.44V99.45C195.313 99.1 195.033 98.89 194.683 98.89H180.753C180.403 98.89 180.123 99.1 180.123 99.45V117.44C180.123 117.72 179.843 118 179.563 118H168.293C167.943 118 167.733 117.72 167.733 117.44V69.77C167.733 69.42 167.943 69.14 168.293 69.14H179.563C179.843 69.14 180.123 69.42 180.123 69.77V87.06C180.123 87.41 180.403 87.69 180.753 87.69H194.683C195.033 87.69 195.313 87.41 195.313 87.06V69.77C195.313 69.42 195.593 69.14 195.943 69.14H207.143ZM234.086 69.14C234.366 69.14 234.646 69.42 234.646 69.77V117.44C234.646 117.72 234.366 118 234.086 118H222.816C222.466 118 222.256 117.72 222.256 117.44V69.77C222.256 69.42 222.466 69.14 222.816 69.14H234.086ZM277.644 100.99L284.714 117.16C284.854 117.58 284.574 118 284.154 118H271.974C271.694 118 271.484 117.86 271.414 117.65L264.974 103.02C264.904 102.81 264.694 102.67 264.484 102.67H262.524C262.174 102.67 261.894 102.88 261.894 103.23V117.23C261.894 117.58 261.684 117.86 261.334 117.86H250.064C249.714 117.86 249.504 117.58 249.504 117.23V69.56C249.504 69.21 249.714 69 250.064 69H265.114C273.864 69 277.224 70.33 279.884 72.57C283.454 75.58 285.484 80.34 285.484 85.52C285.484 90.63 283.454 95.74 280.444 98.4C279.534 99.17 278.694 99.8 277.924 100.29C277.644 100.43 277.574 100.78 277.644 100.99ZM270.784 90.7C273.094 89.65 273.584 87.41 273.584 85.73C273.584 83.35 272.604 81.81 270.644 80.9C269.034 80.2 267.004 80.2 265.744 80.2H262.524C262.174 80.2 261.894 80.48 261.894 80.83V90.77C261.894 91.12 262.174 91.4 262.524 91.4H266.164C267.284 91.4 269.244 91.4 270.784 90.7ZM327.521 106.8C327.871 106.8 328.221 107.15 328.151 107.5L327.171 117.51C327.101 117.86 326.891 118.07 326.541 118.07H299.941C299.591 118.07 299.311 117.79 299.311 117.37V69.77C299.311 69.49 299.521 69.21 299.871 69.21H326.541C326.891 69.21 327.101 69.42 327.171 69.77L328.151 79.71C328.151 80.13 327.871 80.41 327.521 80.41H312.331C311.981 80.41 311.701 80.69 311.701 81.04V86.99C311.701 87.34 311.981 87.62 312.331 87.62H323.391C323.741 87.62 324.021 87.9 324.021 88.25V98.19C324.021 98.54 323.741 98.82 323.391 98.82H312.331C311.981 98.82 311.701 99.1 311.701 99.45V106.17C311.701 106.52 311.981 106.8 312.331 106.8H327.521ZM370.217 106.66C370.567 106.66 370.847 107.01 370.847 107.36L369.727 117.44C369.727 117.72 369.447 117.93 369.167 117.93H342.637C342.287 117.93 342.077 117.65 342.077 117.37V69.63C342.077 69.28 342.287 69 342.637 69H353.907C354.257 69 354.467 69.28 354.467 69.63V106.1C354.467 106.38 354.747 106.66 355.097 106.66H370.217Z"/>
</mask>
<path d="M115.566 71.1L113.497 75.6518L113.531 75.6674L113.566 75.6825L115.566 71.1ZM126.276 106.8L122.07 104.096L122.046 104.133L122.023 104.171L126.276 106.8ZM116.476 115.69L118.663 120.186L118.672 120.182L118.68 120.178L116.476 115.69ZM114.376 102.88L117.965 106.361V106.361L114.376 102.88ZM117.806 93.57H122.806V93.5563L122.806 93.5425L117.806 93.57ZM101.566 80.41V85.41H101.624L101.682 85.4086L101.566 80.41ZM115.566 71.1L113.566 75.6825C120.534 78.7241 125.126 85.7252 125.126 93.57H130.126H135.126C135.126 81.8148 128.238 71.1759 117.566 66.5175L115.566 71.1ZM130.126 93.57H125.126C125.126 97.3864 124.063 100.995 122.07 104.096L126.276 106.8L130.482 109.504C133.528 104.765 135.126 99.2736 135.126 93.57H130.126ZM126.276 106.8L122.023 104.171C120.143 107.213 117.426 109.652 114.271 111.202L116.476 115.69L118.68 120.178C123.506 117.808 127.649 114.087 130.529 109.429L126.276 106.8ZM116.476 115.69L114.289 111.194C113.003 111.819 112.221 112.195 110.992 112.494C109.707 112.805 107.737 113.07 104.296 113.07V118.07V123.07C108.205 123.07 111.03 122.775 113.35 122.211C115.726 121.635 117.359 120.821 118.663 120.186L116.476 115.69ZM104.296 118.07V113.07H89.6659V118.07V123.07H104.296V118.07ZM89.6659 118.07V113.07C90.9405 113.07 92.2042 113.631 93.0715 114.657C93.8685 115.598 94.1059 116.649 94.1059 117.44H89.1059H84.1059C84.1059 118.581 84.4482 119.947 85.4377 121.116C86.4975 122.369 88.0413 123.07 89.6659 123.07V118.07ZM89.1059 117.44H94.1059V69.7H89.1059H84.1059V117.44H89.1059ZM89.1059 69.7H94.1059C94.1059 71.763 92.4779 74.14 89.6659 74.14V69.14V64.14C86.1538 64.14 84.1059 67.077 84.1059 69.7H89.1059ZM89.6659 69.14V74.14H103.946V69.14V64.14H89.6659V69.14ZM103.946 69.14V74.14C109.672 74.14 111.953 74.95 113.497 75.6518L115.566 71.1L117.635 66.5482C114.559 65.15 110.82 64.14 103.946 64.14V69.14ZM114.376 102.88L117.965 106.361C121.263 102.96 122.806 98.4121 122.806 93.57H117.806H112.806C112.806 96.2879 111.969 98.1797 110.786 99.3993L114.376 102.88ZM117.806 93.57L122.806 93.5425C122.783 89.4496 121.691 86.0119 119.753 83.2542C117.842 80.5355 115.323 78.7789 112.894 77.6512C108.177 75.4614 103.216 75.3703 101.45 75.4114L101.566 80.41L101.682 85.4086C102.926 85.3797 106.049 85.4986 108.683 86.7213C109.929 87.2998 110.901 88.0501 111.571 89.0042C112.215 89.9194 112.793 91.3204 112.806 93.5975L117.806 93.57ZM101.566 80.41V75.41C99.9413 75.41 98.3975 76.1115 97.3377 77.364C96.3482 78.5334 96.0059 79.8993 96.0059 81.04H101.006H106.006C106.006 81.8307 105.768 82.8816 104.972 83.8235C104.104 84.8485 102.84 85.41 101.566 85.41V80.41ZM101.006 81.04H96.0059V106.03H101.006H106.006V81.04H101.006ZM101.006 106.03H96.0059C96.0059 109.141 98.5244 111.66 101.636 111.66V106.66V101.66C104.047 101.66 106.006 103.619 106.006 106.03H101.006ZM101.636 106.66V111.66H102.266V106.66V101.66H101.636V106.66ZM102.266 106.66V111.66C105.307 111.66 108.283 111.231 110.915 110.409C113.48 109.607 116.064 108.322 117.965 106.361L114.376 102.88L110.786 99.3993C110.448 99.7482 109.566 100.353 107.932 100.864C106.364 101.354 104.405 101.66 102.266 101.66V106.66ZM154.306 68.79L159.149 70.0352L159.689 67.9351L158.525 66.1056L154.306 68.79ZM152.696 74.11L147.965 72.4943V72.4943L152.696 74.11ZM150.526 79.85L145.908 77.9349L145.896 77.9639L145.884 77.993L150.526 79.85ZM148.286 85.17V90.17H151.536L152.856 87.2007L148.286 85.17ZM143.736 85.17L138.886 83.9573L137.333 90.17H143.736V85.17ZM144.716 80.97L139.866 79.7573L139.848 79.8292L139.832 79.9015L144.716 80.97ZM145.696 76.49L140.805 75.4525L140.793 75.5104L140.782 75.5686L145.696 76.49ZM146.536 72.01L141.628 71.0599L141.613 71.1367L141.6 71.2138L146.536 72.01ZM147.236 68.02V63.02H142.947L142.295 67.2597L147.236 68.02ZM153.816 68.02L158.035 65.3356L156.561 63.02H153.816V68.02ZM154.306 68.79L149.464 67.5448C149.082 69.0317 148.584 70.6799 147.965 72.4943L152.696 74.11L157.428 75.7257C158.115 73.7134 158.691 71.815 159.149 70.0352L154.306 68.79ZM152.696 74.11L147.965 72.4943C147.347 74.3042 146.661 76.1177 145.908 77.9349L150.526 79.85L155.145 81.7651C155.978 79.7556 156.74 77.7424 157.428 75.7257L152.696 74.11ZM150.526 79.85L145.884 77.993C145.159 79.8067 144.436 81.5218 143.717 83.1393L148.286 85.17L152.856 87.2007C153.63 85.4582 154.401 83.6267 155.169 81.707L150.526 79.85ZM148.286 85.17V80.17H143.736V85.17V90.17H148.286V85.17ZM143.736 85.17L148.587 86.3827C148.927 85.0223 149.265 83.5738 149.601 82.0385L144.716 80.97L139.832 79.9015C139.514 81.3529 139.199 82.7044 138.886 83.9573L143.736 85.17ZM144.716 80.97L149.567 82.1827C149.964 80.5942 150.312 79.0037 150.611 77.4114L145.696 76.49L140.782 75.5686C140.521 76.9629 140.215 78.3591 139.866 79.7573L144.716 80.97ZM145.696 76.49L150.588 77.5275C150.93 75.9133 151.225 74.3393 151.473 72.8062L146.536 72.01L141.6 71.2138C141.381 72.574 141.116 73.9867 140.805 75.4525L145.696 76.49ZM146.536 72.01L151.445 72.9601C151.735 71.4624 151.98 70.0681 152.178 68.7803L147.236 68.02L142.295 67.2597C142.119 68.3985 141.898 69.6643 141.628 71.0599L146.536 72.01ZM147.236 68.02V73.02H153.816V68.02V63.02H147.236V68.02ZM153.816 68.02L149.598 70.7044L150.088 71.4744L154.306 68.79L158.525 66.1056L158.035 65.3356L153.816 68.02ZM207.143 69.14V74.14C204.731 74.14 202.773 72.1814 202.773 69.77H207.773H212.773C212.773 66.6586 210.254 64.14 207.143 64.14V69.14ZM207.773 69.77H202.773V117.44H207.773H212.773V69.77H207.773ZM207.773 117.44H202.773C202.773 115.923 203.495 114.799 204.198 114.151C204.939 113.467 205.971 113 207.143 113V118V123C209.87 123 212.773 120.851 212.773 117.44H207.773ZM207.143 118V113H195.943V118V123H207.143V118ZM195.943 118V113C197.115 113 198.146 113.467 198.888 114.151C199.59 114.799 200.313 115.923 200.313 117.44H195.313H190.313C190.313 120.851 193.216 123 195.943 123V118ZM195.313 117.44H200.313V99.45H195.313H190.313V117.44H195.313ZM195.313 99.45H200.313C200.313 97.8254 199.611 96.2817 198.359 95.2218C197.189 94.2324 195.824 93.89 194.683 93.89V98.89V103.89C193.892 103.89 192.841 103.653 191.899 102.856C190.874 101.988 190.313 100.725 190.313 99.45H195.313ZM194.683 98.89V93.89H180.753V98.89V103.89H194.683V98.89ZM180.753 98.89V93.89C179.612 93.89 178.246 94.2324 177.077 95.2218C175.824 96.2817 175.123 97.8254 175.123 99.45H180.123H185.123C185.123 100.725 184.561 101.988 183.536 102.856C182.594 103.653 181.544 103.89 180.753 103.89V98.89ZM180.123 99.45H175.123V117.44H180.123H185.123V99.45H180.123ZM180.123 117.44H175.123C175.123 115.954 175.816 114.886 176.412 114.289C177.009 113.693 178.077 113 179.563 113V118V123C181.329 123 182.677 122.167 183.483 121.361C184.29 120.554 185.123 119.206 185.123 117.44H180.123ZM179.563 118V113H168.293V118V123H179.563V118ZM168.293 118V113C171.105 113 172.733 115.377 172.733 117.44H167.733H162.733C162.733 120.063 164.781 123 168.293 123V118ZM167.733 117.44H172.733V69.77H167.733H162.733V117.44H167.733ZM167.733 69.77H172.733C172.733 70.5607 172.495 71.6116 171.699 72.5535C170.831 73.5785 169.567 74.14 168.293 74.14V69.14V64.14C166.668 64.14 165.124 64.8415 164.065 66.094C163.075 67.2634 162.733 68.6293 162.733 69.77H167.733ZM168.293 69.14V74.14H179.563V69.14V64.14H168.293V69.14ZM179.563 69.14V74.14C178.046 74.14 176.922 73.4175 176.274 72.7151C175.589 71.9736 175.123 70.942 175.123 69.77H180.123H185.123C185.123 67.0429 182.974 64.14 179.563 64.14V69.14ZM180.123 69.77H175.123V87.06H180.123H185.123V69.77H180.123ZM180.123 87.06H175.123C175.123 90.1714 177.641 92.69 180.753 92.69V87.69V82.69C183.164 82.69 185.123 84.6486 185.123 87.06H180.123ZM180.753 87.69V92.69H194.683V87.69V82.69H180.753V87.69ZM194.683 87.69V92.69C197.794 92.69 200.313 90.1714 200.313 87.06H195.313H190.313C190.313 84.6486 192.271 82.69 194.683 82.69V87.69ZM195.313 87.06H200.313V69.77H195.313H190.313V87.06H195.313ZM195.313 69.77H200.313C200.313 72.1814 198.354 74.14 195.943 74.14V69.14V64.14C192.831 64.14 190.313 66.6586 190.313 69.77H195.313ZM195.943 69.14V74.14H207.143V69.14V64.14H195.943V69.14ZM234.086 69.14V74.14C232.569 74.14 231.446 73.4175 230.797 72.7151C230.113 71.9736 229.646 70.942 229.646 69.77H234.646H239.646C239.646 67.0429 237.497 64.14 234.086 64.14V69.14ZM234.646 69.77H229.646V117.44H234.646H239.646V69.77H234.646ZM234.646 117.44H229.646C229.646 115.954 230.339 114.886 230.936 114.289C231.532 113.693 232.6 113 234.086 113V118V123C235.852 123 237.2 122.167 238.007 121.361C238.814 120.554 239.646 119.206 239.646 117.44H234.646ZM234.086 118V113H222.816V118V123H234.086V118ZM222.816 118V113C225.628 113 227.256 115.377 227.256 117.44H222.256H217.256C217.256 120.063 219.304 123 222.816 123V118ZM222.256 117.44H227.256V69.77H222.256H217.256V117.44H222.256ZM222.256 69.77H227.256C227.256 70.5607 227.019 71.6116 226.222 72.5535C225.355 73.5785 224.091 74.14 222.816 74.14V69.14V64.14C221.192 64.14 219.648 64.8415 218.588 66.094C217.599 67.2634 217.256 68.6293 217.256 69.77H222.256ZM222.816 69.14V74.14H234.086V69.14V64.14H222.816V69.14ZM277.644 100.99L272.901 102.571L272.972 102.786L273.063 102.993L277.644 100.99ZM284.714 117.16L289.458 115.579L289.386 115.364L289.296 115.157L284.714 117.16ZM271.414 117.65L276.158 116.069L276.084 115.848L275.991 115.636L271.414 117.65ZM264.974 103.02L260.231 104.601L260.304 104.822L260.398 105.034L264.974 103.02ZM279.884 72.57L283.107 68.7474L283.105 68.7454L279.884 72.57ZM280.444 98.4L283.674 102.217L283.715 102.182L283.755 102.147L280.444 98.4ZM277.924 100.29L280.16 104.762L280.391 104.647L280.609 104.508L277.924 100.29ZM270.784 90.7L272.853 95.2518V95.2518L270.784 90.7ZM270.644 80.9L272.75 76.365L272.694 76.3391L272.638 76.3146L270.644 80.9ZM277.644 100.99L273.063 102.993L280.133 119.163L284.714 117.16L289.296 115.157L282.226 98.9869L277.644 100.99ZM284.714 117.16L279.971 118.741C279.165 116.324 280.751 113 284.154 113V118V123C288.398 123 290.544 118.836 289.458 115.579L284.714 117.16ZM284.154 118V113H271.974V118V123H284.154V118ZM271.974 118V113C273.353 113 275.403 113.805 276.158 116.069L271.414 117.65L266.671 119.231C267.566 121.915 270.036 123 271.974 123V118ZM271.414 117.65L275.991 115.636L269.551 101.006L264.974 103.02L260.398 105.034L266.838 119.664L271.414 117.65ZM264.974 103.02L269.718 101.439C268.932 99.0806 266.732 97.67 264.484 97.67V102.67V107.67C262.657 107.67 260.877 106.539 260.231 104.601L264.974 103.02ZM264.484 102.67V97.67H262.524V102.67V107.67H264.484V102.67ZM262.524 102.67V97.67C261.384 97.67 260.018 98.0124 258.848 99.0018C257.596 100.062 256.894 101.605 256.894 103.23H261.894H266.894C266.894 104.505 266.333 105.768 265.308 106.636C264.366 107.433 263.315 107.67 262.524 107.67V102.67ZM261.894 103.23H256.894V117.23H261.894H266.894V103.23H261.894ZM261.894 117.23H256.894C256.894 116.439 257.132 115.388 257.929 114.447C258.796 113.421 260.06 112.86 261.334 112.86V117.86V122.86C262.959 122.86 264.503 122.159 265.562 120.906C266.552 119.737 266.894 118.371 266.894 117.23H261.894ZM261.334 117.86V112.86H250.064V117.86V122.86H261.334V117.86ZM250.064 117.86V112.86C251.339 112.86 252.603 113.421 253.47 114.447C254.267 115.388 254.504 116.439 254.504 117.23H249.504H244.504C244.504 118.371 244.847 119.737 245.836 120.906C246.896 122.159 248.44 122.86 250.064 122.86V117.86ZM249.504 117.23H254.504V69.56H249.504H244.504V117.23H249.504ZM249.504 69.56H254.504C254.504 70.3875 254.236 71.6365 253.189 72.6843C252.141 73.7321 250.892 74 250.064 74V69V64C248.887 64 247.358 64.3729 246.118 65.6132C244.877 66.8535 244.504 68.3825 244.504 69.56H249.504ZM250.064 69V74H265.114V69V64H250.064V69ZM265.114 69V74C273.367 74 275.316 75.26 276.664 76.3946L279.884 72.57L283.105 68.7454C279.132 65.4 274.362 64 265.114 64V69ZM279.884 72.57L276.661 76.3926C278.95 78.3223 280.484 81.5991 280.484 85.52H285.484H290.484C290.484 79.0809 287.959 72.8377 283.107 68.7474L279.884 72.57ZM285.484 85.52H280.484C280.484 89.575 278.815 93.167 277.133 94.6534L280.444 98.4L283.755 102.147C288.093 98.313 290.484 91.685 290.484 85.52H285.484ZM280.444 98.4L277.215 94.5831C276.428 95.2486 275.772 95.7332 275.24 96.0717L277.924 100.29L280.609 104.508C281.617 103.867 282.641 103.091 283.674 102.217L280.444 98.4ZM277.924 100.29L275.688 95.8179C274.132 96.5959 273.284 97.9103 272.91 99.0326C272.562 100.074 272.487 101.33 272.901 102.571L277.644 100.99L282.388 99.4089C282.732 100.44 282.656 101.416 282.396 102.195C282.11 103.055 281.436 104.124 280.16 104.762L277.924 100.29ZM270.784 90.7L272.853 95.2518C277.868 92.9724 278.584 88.1055 278.584 85.73H273.584H268.584C268.584 85.9132 268.57 86.0705 268.548 86.1947C268.538 86.2548 268.527 86.2998 268.517 86.3311C268.508 86.3623 268.502 86.376 268.502 86.3756C268.504 86.3703 268.532 86.3132 268.6 86.2432C268.673 86.1678 268.729 86.1418 268.715 86.1482L270.784 90.7ZM273.584 85.73H278.584C278.584 83.8521 278.193 81.9078 277.108 80.1433C276.01 78.359 274.442 77.1507 272.75 76.365L270.644 80.9L268.539 85.435C268.685 85.503 268.726 85.5423 268.71 85.5282C268.687 85.5091 268.637 85.4592 268.591 85.3842C268.546 85.311 268.54 85.2716 268.548 85.3043C268.558 85.3442 268.584 85.4753 268.584 85.73H273.584ZM270.644 80.9L272.638 76.3146C269.912 75.1293 266.802 75.2 265.744 75.2V80.2V85.2C266.39 85.2 266.977 85.2033 267.561 85.2622C268.162 85.3229 268.505 85.4219 268.651 85.4853L270.644 80.9ZM265.744 80.2V75.2H262.524V80.2V85.2H265.744V80.2ZM262.524 80.2V75.2C259.413 75.2 256.894 77.7186 256.894 80.83H261.894H266.894C266.894 83.2414 264.936 85.2 262.524 85.2V80.2ZM261.894 80.83H256.894V90.77H261.894H266.894V80.83H261.894ZM261.894 90.77H256.894C256.894 93.8814 259.413 96.4 262.524 96.4V91.4V86.4C264.936 86.4 266.894 88.3586 266.894 90.77H261.894ZM262.524 91.4V96.4H266.164V91.4V86.4H262.524V91.4ZM266.164 91.4V96.4C267.086 96.4 270.163 96.4746 272.853 95.2518L270.784 90.7L268.715 86.1482C268.624 86.1895 268.338 86.2821 267.788 86.3406C267.261 86.3966 266.735 86.4 266.164 86.4V91.4ZM328.151 107.5L323.248 106.519L323.199 106.764L323.175 107.013L328.151 107.5ZM327.171 117.51L332.074 118.491L332.123 118.246L332.147 117.997L327.171 117.51ZM327.171 69.77L332.147 69.2794L332.122 69.0326L332.074 68.7894L327.171 69.77ZM328.151 79.71H333.151V79.4641L333.127 79.2194L328.151 79.71ZM327.521 106.8V111.8C326.087 111.8 324.997 111.137 324.338 110.43C323.669 109.713 322.888 108.319 323.248 106.519L328.151 107.5L333.054 108.481C333.484 106.331 332.563 104.587 331.649 103.607C330.744 102.638 329.305 101.8 327.521 101.8V106.8ZM328.151 107.5L323.175 107.013L322.195 117.023L327.171 117.51L332.147 117.997L333.127 107.987L328.151 107.5ZM327.171 117.51L322.268 116.529C322.378 115.98 322.697 115.047 323.582 114.235C324.532 113.365 325.657 113.07 326.541 113.07V118.07V123.07C327.775 123.07 329.18 122.67 330.34 121.607C331.435 120.603 331.894 119.39 332.074 118.491L327.171 117.51ZM326.541 118.07V113.07H299.941V118.07V123.07H326.541V118.07ZM299.941 118.07V113.07C301.148 113.07 302.321 113.573 303.159 114.475C303.99 115.371 304.311 116.452 304.311 117.37H299.311H294.311C294.311 120.196 296.487 123.07 299.941 123.07V118.07ZM299.311 117.37H304.311V69.77H299.311H294.311V117.37H299.311ZM299.311 69.77H304.311C304.311 71.833 302.683 74.21 299.871 74.21V69.21V64.21C296.359 64.21 294.311 67.147 294.311 69.77H299.311ZM299.871 69.21V74.21H326.541V69.21V64.21H299.871V69.21ZM326.541 69.21V74.21C325.657 74.21 324.532 73.9149 323.582 73.0445C322.697 72.2327 322.378 71.3 322.268 70.7506L327.171 69.77L332.074 68.7894C331.894 67.89 331.435 66.6773 330.34 65.673C329.18 64.6101 327.775 64.21 326.541 64.21V69.21ZM327.171 69.77L322.195 70.2606L323.175 80.2006L328.151 79.71L333.127 79.2194L332.147 69.2794L327.171 69.77ZM328.151 79.71H323.151C323.151 78.7915 323.471 77.711 324.303 76.8152C325.141 75.9132 326.313 75.41 327.521 75.41V80.41V85.41C330.975 85.41 333.151 82.536 333.151 79.71H328.151ZM327.521 80.41V75.41H312.331V80.41V85.41H327.521V80.41ZM312.331 80.41V75.41C309.22 75.41 306.701 77.9286 306.701 81.04H311.701H316.701C316.701 83.4514 314.742 85.41 312.331 85.41V80.41ZM311.701 81.04H306.701V86.99H311.701H316.701V81.04H311.701ZM311.701 86.99H306.701C306.701 90.1014 309.22 92.62 312.331 92.62V87.62V82.62C314.742 82.62 316.701 84.5786 316.701 86.99H311.701ZM312.331 87.62V92.62H323.391V87.62V82.62H312.331V87.62ZM323.391 87.62V92.62C320.98 92.62 319.021 90.6614 319.021 88.25H324.021H329.021C329.021 85.1386 326.502 82.62 323.391 82.62V87.62ZM324.021 88.25H319.021V98.19H324.021H329.021V88.25H324.021ZM324.021 98.19H319.021C319.021 95.7786 320.98 93.82 323.391 93.82V98.82V103.82C326.502 103.82 329.021 101.301 329.021 98.19H324.021ZM323.391 98.82V93.82H312.331V98.82V103.82H323.391V98.82ZM312.331 98.82V93.82C309.22 93.82 306.701 96.3386 306.701 99.45H311.701H316.701C316.701 101.861 314.742 103.82 312.331 103.82V98.82ZM311.701 99.45H306.701V106.17H311.701H316.701V99.45H311.701ZM311.701 106.17H306.701C306.701 109.281 309.22 111.8 312.331 111.8V106.8V101.8C314.742 101.8 316.701 103.759 316.701 106.17H311.701ZM312.331 106.8V111.8H327.521V106.8V101.8H312.331V106.8ZM370.847 107.36L375.816 107.912L375.847 107.637V107.36H370.847ZM369.727 117.44L364.757 116.888L364.727 117.163V117.44H369.727ZM370.217 106.66V111.66C368.654 111.66 367.514 110.88 366.884 110.153C366.267 109.441 365.847 108.471 365.847 107.36H370.847H375.847C375.847 105.899 375.286 104.579 374.441 103.604C373.584 102.615 372.129 101.66 370.217 101.66V106.66ZM370.847 107.36L365.877 106.808L364.757 116.888L369.727 117.44L374.696 117.992L375.816 107.912L370.847 107.36ZM369.727 117.44H364.727C364.727 115.812 365.553 114.613 366.351 113.949C367.122 113.306 368.108 112.93 369.167 112.93V117.93V122.93C370.505 122.93 371.771 122.449 372.753 121.631C373.76 120.792 374.727 119.348 374.727 117.44H369.727ZM369.167 117.93V112.93H342.637V117.93V122.93H369.167V117.93ZM342.637 117.93V112.93C345.449 112.93 347.077 115.307 347.077 117.37H342.077H337.077C337.077 119.993 339.125 122.93 342.637 122.93V117.93ZM342.077 117.37H347.077V69.63H342.077H337.077V117.37H342.077ZM342.077 69.63H347.077C347.077 70.4207 346.839 71.4716 346.042 72.4135C345.175 73.4385 343.911 74 342.637 74V69V64C341.012 64 339.468 64.7015 338.408 65.954C337.419 67.1234 337.077 68.4893 337.077 69.63H342.077ZM342.637 69V74H353.907V69V64H342.637V69ZM353.907 69V74C352.632 74 351.368 73.4385 350.501 72.4135C349.704 71.4716 349.467 70.4207 349.467 69.63H354.467H359.467C359.467 68.4893 359.124 67.1234 358.135 65.954C357.075 64.7015 355.531 64 353.907 64V69ZM354.467 69.63H349.467V106.1H354.467H359.467V69.63H354.467ZM354.467 106.1H349.467C349.467 109.511 352.369 111.66 355.097 111.66V106.66V101.66C356.269 101.66 357.3 102.127 358.042 102.811C358.744 103.459 359.467 104.583 359.467 106.1H354.467ZM355.097 106.66V111.66H370.217V106.66V101.66H355.097V106.66Z" fill="white" mask="url(#path-2-outside-1_1_86)"/>
<path d="M30.24 165.66C30.59 165.66 30.87 166.01 30.87 166.36L29.75 176.44C29.75 176.72 29.47 176.93 29.19 176.93H2.66C2.31 176.93 2.1 176.65 2.1 176.37V128.63C2.1 128.28 2.31 128 2.66 128H13.93C14.28 128 14.49 128.28 14.49 128.63V165.1C14.49 165.38 14.77 165.66 15.12 165.66H30.24ZM61.9604 165.8C62.3104 165.8 62.6604 166.15 62.5904 166.5L61.6104 176.51C61.5404 176.86 61.3304 177.07 60.9804 177.07H34.3804C34.0304 177.07 33.7504 176.79 33.7504 176.37V128.77C33.7504 128.49 33.9604 128.21 34.3104 128.21H60.9804C61.3304 128.21 61.5404 128.42 61.6104 128.77L62.5904 138.71C62.5904 139.13 62.3104 139.41 61.9604 139.41H46.7704C46.4204 139.41 46.1404 139.69 46.1404 140.04V145.99C46.1404 146.34 46.4204 146.62 46.7704 146.62H57.8304C58.1804 146.62 58.4604 146.9 58.4604 147.25V157.19C58.4604 157.54 58.1804 157.82 57.8304 157.82H46.7704C46.4204 157.82 46.1404 158.1 46.1404 158.45V165.17C46.1404 165.52 46.4204 165.8 46.7704 165.8H61.9604ZM112.032 160.69V160.76V160.83C112.032 161.81 111.962 162.79 111.752 163.77C110.492 170.07 105.382 175.18 98.6617 176.79C97.2617 177.14 95.7217 177.28 94.1817 177.28C92.7117 177.28 91.1717 177.14 89.7017 176.79C83.4017 175.25 78.5017 170.7 76.8917 164.75C76.8217 164.4 76.7517 164.12 76.6817 163.77C76.6117 163.63 76.6117 163.42 76.6117 163.21C76.5417 162.93 76.7517 162.65 77.0317 162.58L86.6217 160.13C86.9017 160.06 87.2517 160.27 87.3217 160.55C87.6017 161.67 88.0917 162.65 88.5817 163.35C89.6317 165.31 91.6617 166.64 94.0417 166.57C97.1917 166.57 99.8517 164.05 99.9917 160.83C100.202 157.33 97.4717 154.46 93.9717 154.46H91.4517C91.1017 154.46 90.8917 154.18 90.8917 153.83L90.8217 147.04C90.8217 146.76 91.0317 146.48 91.3817 146.48H93.9017C96.5617 146.48 98.7317 144.24 98.7317 141.58C98.7317 138.71 96.2117 136.4 93.2717 136.75C92.6417 136.82 92.0817 137.03 91.5217 137.31L91.2417 137.45C91.0317 137.59 90.7517 137.73 90.4717 138.08C90.0517 138.5 89.7017 138.92 89.4917 139.48C89.0717 140.25 88.7917 141.3 88.6517 142.35C88.5817 142.7 88.2317 142.91 87.8817 142.84L78.7817 140.46C78.5017 140.39 78.3617 140.11 78.3617 139.83C78.5017 138.36 78.9217 136.75 79.5517 135.49C82.0017 130.24 87.7417 126.81 94.1817 126.81C102.932 126.81 110.072 133.04 110.072 140.74C110.072 140.95 110.072 141.16 110.072 141.37C110.072 141.44 110.002 141.51 110.002 141.58C110.002 141.72 110.002 141.93 110.002 142.07C110.002 142.21 109.932 142.28 109.932 142.42C109.932 142.49 109.932 142.56 109.932 142.7C109.582 144.87 108.602 146.9 107.202 148.72C106.992 149 106.992 149.35 107.202 149.56C107.272 149.56 107.272 149.56 107.342 149.63C107.412 149.7 107.482 149.77 107.552 149.91C107.622 149.98 107.692 149.98 107.762 150.05C107.902 150.26 108.042 150.4 108.182 150.54C110.142 152.85 111.472 155.65 111.892 158.52C111.892 158.66 111.892 158.73 111.892 158.87C111.962 159.01 111.962 159.08 111.962 159.22C111.962 159.43 112.032 159.64 112.032 159.85V160.06C112.032 160.13 112.032 160.13 112.032 160.2V160.41C112.032 160.48 112.032 160.62 112.032 160.69ZM171.884 176.3C172.024 176.72 171.744 177.14 171.324 177.14H159.284C158.934 177.14 158.654 176.93 158.584 176.58L155.994 168.88C155.924 168.67 155.714 168.46 155.434 168.46H140.454C140.244 168.46 139.964 168.67 139.894 168.88L137.304 176.72C137.234 176.93 137.024 177.14 136.744 177.14H124.564C124.144 177.14 123.864 176.72 124.004 176.3L141.994 128.63C142.064 128.35 142.344 128.14 142.694 128.14H153.264C153.544 128.14 153.824 128.28 153.894 128.56L171.884 176.3ZM151.724 158.45C152.144 158.45 152.424 158.03 152.284 157.68L148.574 146.27C148.364 145.71 147.524 145.71 147.384 146.27L143.604 157.68C143.464 158.1 143.744 158.45 144.164 158.45H151.724ZM192.355 126.74C206.215 126.74 217.485 138.29 217.485 152.43C217.485 166.64 206.215 178.19 192.355 178.19C178.495 178.19 167.295 166.64 167.295 152.43C167.295 138.29 178.495 126.74 192.355 126.74ZM192.355 166.5C199.915 166.5 206.145 160.2 206.145 152.43C206.145 144.73 199.915 138.43 192.355 138.43C184.795 138.43 178.635 144.73 178.635 152.43C178.635 160.2 184.795 166.5 192.355 166.5ZM256.697 128.14C256.977 128.14 257.257 128.42 257.257 128.7V157.54C257.257 165.87 255.367 169.44 252.287 172.59C248.857 176.16 244.797 177.98 239.127 177.98C236.327 177.98 229.887 177.42 225.477 172.66C221.277 167.97 220.577 164.26 220.577 157.54V128.7C220.577 128.42 220.787 128.14 221.137 128.14H232.407C232.687 128.14 232.967 128.42 232.967 128.7V157.54C232.967 159.29 233.107 161.32 233.737 162.93C234.647 164.89 236.747 165.8 238.987 165.8C241.297 165.8 243.397 164.96 244.097 163.21C244.797 161.53 244.797 159.29 244.797 157.54V128.7C244.797 128.42 245.077 128.14 245.427 128.14H256.697ZM291.414 128C291.764 128 292.044 128.28 292.044 128.63V138.71C292.044 138.99 291.764 139.27 291.414 139.27H282.734C282.384 139.27 282.104 139.55 282.104 139.9V176.37C282.104 176.65 281.894 176.93 281.544 176.93H270.274C269.924 176.93 269.714 176.65 269.714 176.37V139.9C269.714 139.55 269.434 139.27 269.084 139.27H260.334C259.984 139.27 259.774 138.99 259.774 138.71V128.63C259.774 128.28 259.984 128 260.334 128H291.414ZM337.847 165.73C338.197 165.73 338.477 166.01 338.477 166.36V175.95C338.477 176.23 338.197 176.51 337.847 176.51H304.877C304.527 176.51 304.317 176.23 304.317 175.95V167.41C304.317 167.2 304.387 167.06 304.457 166.92L304.737 166.71C306.977 164.68 309.217 162.65 311.457 160.69C313.697 158.66 315.937 156.63 318.177 154.67L318.317 154.53C322.727 150.61 325.947 147.81 326.017 143.26C326.017 139.83 324.127 137.87 320.837 137.87C317.757 137.87 316.637 140.39 316.147 142.63C316.077 142.91 315.797 143.19 315.447 143.05L305.157 140.53C304.877 140.46 304.667 140.11 304.737 139.83C305.227 137.73 306.067 135.56 307.607 133.53C311.877 127.44 318.877 126.74 321.677 126.74C326.577 126.74 330.777 128.42 333.857 131.5C336.657 134.3 338.197 138.22 338.197 142.49C338.127 148.23 336.027 152.43 330.357 157.82C328.607 159.5 326.787 161.18 325.037 162.93C324.407 163.49 323.777 164.12 323.147 164.75C322.727 165.1 323.007 165.73 323.567 165.73H337.847ZM361.552 126.81C373.522 126.81 382.832 137.94 382.832 152.08C382.832 166.22 373.522 177.35 361.552 177.35C349.652 177.35 340.342 166.22 340.342 152.08C340.342 137.94 349.652 126.81 361.552 126.81ZM361.552 165.8C366.802 165.8 371.002 159.64 371.002 152.08C371.002 144.52 366.802 138.36 361.552 138.36C356.372 138.36 352.102 144.52 352.102 152.08C352.102 159.64 356.372 165.8 361.552 165.8ZM417.896 165.73C418.246 165.73 418.526 166.01 418.526 166.36V175.95C418.526 176.23 418.246 176.51 417.896 176.51H384.926C384.576 176.51 384.366 176.23 384.366 175.95V167.41C384.366 167.2 384.436 167.06 384.506 166.92L384.786 166.71C387.026 164.68 389.266 162.65 391.506 160.69C393.746 158.66 395.986 156.63 398.226 154.67L398.366 154.53C402.776 150.61 405.996 147.81 406.066 143.26C406.066 139.83 404.176 137.87 400.886 137.87C397.806 137.87 396.686 140.39 396.196 142.63C396.126 142.91 395.846 143.19 395.496 143.05L385.206 140.53C384.926 140.46 384.716 140.11 384.786 139.83C385.276 137.73 386.116 135.56 387.656 133.53C391.926 127.44 398.926 126.74 401.726 126.74C406.626 126.74 410.826 128.42 413.906 131.5C416.706 134.3 418.246 138.22 418.246 142.49C418.176 148.23 416.076 152.43 410.406 157.82C408.656 159.5 406.836 161.18 405.086 162.93C404.456 163.49 403.826 164.12 403.196 164.75C402.776 165.1 403.056 165.73 403.616 165.73H417.896ZM453.136 148.3C455.726 151.45 457.266 155.51 457.266 159.5C457.266 163.84 455.516 168.25 452.576 171.54C450.126 174.27 445.786 177.49 438.716 177.49C430.316 177.49 423.386 172.73 421.006 165.59C420.866 165.24 421.076 164.89 421.426 164.82L425.696 163.91L432.136 162.65C432.416 162.58 432.696 162.72 432.836 163C433.326 163.98 434.026 164.89 434.936 165.59C435.076 165.66 435.216 165.8 435.356 165.87C436.476 166.57 437.806 166.99 439.276 166.99C439.696 166.99 440.186 166.99 440.606 166.92C441.866 166.64 442.916 166.15 443.826 165.38C444.036 165.24 444.176 165.1 444.316 164.89C444.596 164.68 444.806 164.4 445.016 164.12C445.366 163.7 445.646 163.21 445.856 162.65C445.926 162.44 445.996 162.23 446.066 161.95C446.136 161.74 446.206 161.53 446.276 161.32C446.346 161.04 446.346 160.83 446.346 160.55C446.416 160.34 446.416 160.13 446.416 159.85C446.416 155.86 443.196 152.64 439.276 152.64C436.196 152.64 433.536 154.6 432.556 157.33C432.416 157.61 432.136 157.75 431.856 157.68L427.516 156.63L422.546 155.37C422.266 155.3 422.056 155.09 422.126 154.81L423.806 128.21C423.876 127.86 424.086 127.65 424.436 127.65H452.156C452.506 127.65 452.716 127.86 452.786 128.21L453.416 138.36C453.416 138.71 453.136 138.99 452.786 138.99H434.936C434.586 138.99 434.376 139.27 434.306 139.55L434.026 142.84C433.956 143.33 434.376 143.61 434.796 143.47C436.686 142.7 438.506 142.63 440.466 142.63C446.976 142.63 450.896 145.71 453.136 148.3Z" fill="white"/>
</svg>
