<svg width="169" height="71" viewBox="0 0 169 71" fill="none" xmlns="http://www.w3.org/2000/svg">
<path d="M19.56 13.1C21.04 14.9 21.92 17.22 21.92 19.5C21.92 21.98 20.92 24.5 19.24 26.38C17.84 27.94 15.36 29.78 11.32 29.78C6.52 29.78 2.56 27.06 1.2 22.98C1.12 22.78 1.24 22.58 1.44 22.54L3.88 22.02L7.56 21.3C7.72 21.26 7.88 21.34 7.96 21.5C8.24 22.06 8.64 22.58 9.16 22.98C9.24 23.02 9.32 23.1 9.4 23.14C10.04 23.54 10.8 23.78 11.64 23.78C11.88 23.78 12.16 23.78 12.4 23.74C13.12 23.58 13.72 23.3 14.24 22.86C14.36 22.78 14.44 22.7 14.52 22.58C14.68 22.46 14.8 22.3 14.92 22.14C15.12 21.9 15.28 21.62 15.4 21.3C15.44 21.18 15.48 21.06 15.52 20.9C15.56 20.78 15.6 20.66 15.64 20.54C15.68 20.38 15.68 20.26 15.68 20.1C15.72 19.98 15.72 19.86 15.72 19.7C15.72 17.42 13.88 15.58 11.64 15.58C9.88 15.58 8.36 16.7 7.8 18.26C7.72 18.42 7.56 18.5 7.4 18.46L4.92 17.86L2.08 17.14C1.92 17.1 1.8 16.98 1.84 16.82L2.8 1.62C2.84 1.42 2.96 1.3 3.16 1.3H19C19.2 1.3 19.32 1.42 19.36 1.62L19.72 7.42C19.72 7.62 19.56 7.78 19.36 7.78H9.16C8.96 7.78 8.84 7.94 8.8 8.1L8.64 9.98C8.6 10.26 8.84 10.42 9.08 10.34C10.16 9.9 11.2 9.86 12.32 9.86C16.04 9.86 18.28 11.62 19.56 13.1ZM40.79 29.9C38.79 29.9 37.0567 29.58 35.59 28.94C34.1233 28.3 32.99 27.42 32.19 26.3C31.4167 25.1533 31.03 23.82 31.03 22.3C31.03 21.3933 31.15 20.5533 31.39 19.78C31.6567 18.98 32.03 18.2467 32.51 17.58C33.0167 16.8867 33.6167 16.2467 34.31 15.66C35.03 15.0467 35.8433 14.4733 36.75 13.94L38.11 13.14L37.39 14.22C36.2167 13.0467 35.3633 11.94 34.83 10.9C34.3233 9.83333 34.07 8.74 34.07 7.62C34.07 6.28667 34.39 5.11333 35.03 4.1C35.67 3.08666 36.5767 2.3 37.75 1.74C38.9233 1.18 40.2967 0.899999 41.87 0.899999C44.0567 0.899999 45.79 1.46 47.07 2.58C48.35 3.67333 48.99 5.16667 48.99 7.06C48.99 8.07333 48.79 9.03333 48.39 9.94C47.99 10.8467 47.35 11.7133 46.47 12.54C45.59 13.3667 44.4167 14.18 42.95 14.98L42.99 13.78L49.79 21.02H48.71C49.0567 20.4333 49.3633 19.7933 49.63 19.1C49.8967 18.38 50.1233 17.62 50.31 16.82C50.5233 15.9933 50.6833 15.14 50.79 14.26C50.8967 13.5933 51.1233 13.1 51.47 12.78C51.8167 12.4333 52.31 12.26 52.95 12.26C53.6433 12.26 54.1633 12.46 54.51 12.86C54.8567 13.2333 54.99 13.78 54.91 14.5C54.7767 15.7533 54.55 16.9533 54.23 18.1C53.9367 19.22 53.5633 20.2733 53.11 21.26C52.6567 22.22 52.15 23.1133 51.59 23.94L51.55 22.7L55.35 26.54C55.8567 27.0467 56.11 27.5533 56.11 28.06C56.11 28.5667 55.91 28.9933 55.51 29.34C55.1367 29.66 54.6167 29.82 53.95 29.82C53.3633 29.82 52.8833 29.7133 52.51 29.5C52.1367 29.26 51.7233 28.9133 51.27 28.46L48.79 25.86H49.95C48.7767 27.1133 47.39 28.1 45.79 28.82C44.2167 29.54 42.55 29.9 40.79 29.9ZM41.07 25.94C42.35 25.94 43.4833 25.7 44.47 25.22C45.4833 24.7133 46.4033 23.9667 47.23 22.98L47.11 24.26L38.87 15.74L40.95 15.94L39.79 16.62C38.8833 17.1533 38.15 17.6867 37.59 18.22C37.03 18.7267 36.6167 19.2867 36.35 19.9C36.11 20.4867 35.99 21.1533 35.99 21.9C35.99 23.1533 36.43 24.14 37.31 24.86C38.19 25.58 39.4433 25.94 41.07 25.94ZM41.87 4.46C40.91 4.46 40.1367 4.74 39.55 5.3C38.9633 5.83333 38.67 6.56667 38.67 7.5C38.67 8.00667 38.75 8.48667 38.91 8.94C39.07 9.36667 39.35 9.84667 39.75 10.38C40.15 10.8867 40.6967 11.5133 41.39 12.26L40.27 12.18C41.39 11.54 42.27 10.9667 42.91 10.46C43.5767 9.95333 44.0567 9.44667 44.35 8.94C44.6433 8.43333 44.79 7.87333 44.79 7.26C44.79 6.35333 44.5233 5.66 43.99 5.18C43.4567 4.7 42.75 4.46 41.87 4.46ZM76.0394 1.3C76.2394 1.3 76.3994 1.46 76.3994 1.62V28.86C76.3994 29.06 76.2394 29.22 76.0394 29.22H69.5994C69.4394 29.22 69.2794 29.06 69.2794 28.86V8.06C69.2794 7.86 69.1194 7.7 68.9194 7.7H64.8794C64.6794 7.7 64.5194 7.54 64.5594 7.34L65.0394 1.62C65.0794 1.42 65.2394 1.3 65.3994 1.3H76.0394ZM90.9763 0.82C97.8163 0.82 103.136 7.18 103.136 15.26C103.136 23.34 97.8163 29.7 90.9763 29.7C84.1763 29.7 78.8563 23.34 78.8563 15.26C78.8563 7.18 84.1763 0.82 90.9763 0.82ZM90.9763 23.1C93.9763 23.1 96.3763 19.58 96.3763 15.26C96.3763 10.94 93.9763 7.42 90.9763 7.42C88.0163 7.42 85.5763 10.94 85.5763 15.26C85.5763 19.58 88.0163 23.1 90.9763 23.1ZM133.92 28.98C134.08 29.22 133.92 29.5 133.64 29.5H125.8C125.68 29.5 125.56 29.46 125.52 29.34L118.92 18.46C118.76 18.14 118.28 18.3 118.28 18.62V29.18C118.28 29.34 118.12 29.5 117.96 29.5H111.52C111.32 29.5 111.2 29.38 111.2 29.18V1.94C111.2 1.74 111.32 1.58 111.52 1.58H117.92C118.12 1.58 118.28 1.74 118.28 1.94V12.26C118.28 12.58 118.76 12.74 118.92 12.42L125.76 1.74C125.84 1.66 125.96 1.58 126.04 1.58H132.68C132.96 1.58 133.16 1.9 133 2.14L124.48 14.94C124.4 15.06 124.4 15.22 124.48 15.34L133.92 28.98ZM167.255 29.06C167.295 29.3 167.135 29.46 166.935 29.46H160.735C160.535 29.46 160.415 29.34 160.375 29.14L159.095 14.98C159.055 14.62 158.535 14.58 158.415 14.94L153.855 29.22C153.815 29.38 153.655 29.46 153.535 29.46H149.295C149.135 29.46 149.015 29.38 148.975 29.22L144.375 14.94C144.295 14.58 143.775 14.62 143.735 14.98L142.415 29.14C142.415 29.34 142.255 29.46 142.095 29.46H135.895C135.695 29.46 135.535 29.3 135.575 29.06L139.055 1.78C139.095 1.62 139.215 1.5 139.375 1.5H146.575C146.695 1.5 146.855 1.58 146.895 1.74L151.135 15.58C151.255 15.9 151.695 15.9 151.775 15.58L155.895 1.74C155.935 1.58 156.055 1.5 156.215 1.5H163.415C163.615 1.5 163.735 1.62 163.775 1.78L167.255 29.06Z" fill="white"/>
<mask id="path-2-outside-1_33_8" maskUnits="userSpaceOnUse" x="0.5" y="35.5" width="168" height="36" fill="black">
<rect fill="white" x="0.5" y="35.5" width="168" height="36"/>
<path d="M18.82 40.7C23.86 42.9 27.14 47.94 27.14 53.54C27.14 56.26 26.38 58.86 24.94 61.1C23.58 63.3 21.62 65.06 19.34 66.18C17.86 66.9 16.58 67.54 12.38 67.54H4.02C3.82 67.54 3.7 67.38 3.7 67.18V39.9C3.7 39.74 3.82 39.58 4.02 39.58H12.18C15.78 39.58 17.5 40.1 18.82 40.7ZM18.14 58.86C19.42 57.54 20.1 55.7 20.1 53.54C20.06 46.26 12.54 45.98 10.82 46.02C10.62 46.02 10.5 46.18 10.5 46.38V60.66C10.5 60.86 10.66 61.02 10.86 61.02H11.22C14.18 61.02 16.86 60.18 18.14 58.86ZM40.9575 39.38C40.7175 40.3133 40.4108 41.3267 40.0375 42.42C39.6642 43.5133 39.2508 44.6067 38.7975 45.7C38.3708 46.7667 37.9442 47.78 37.5175 48.74H34.9175C35.1042 47.9933 35.2908 47.1933 35.4775 46.34C35.6908 45.4867 35.8775 44.6333 36.0375 43.78C36.2242 42.9 36.3842 42.0467 36.5175 41.22C36.6775 40.3933 36.8108 39.6333 36.9175 38.94H40.6775L40.9575 39.38ZM71.1497 39.58C71.3497 39.58 71.5097 39.74 71.5097 39.94V67.18C71.5097 67.34 71.3497 67.5 71.1497 67.5H64.7497C64.5497 67.5 64.3897 67.34 64.3897 67.18V56.9C64.3897 56.7 64.2297 56.58 64.0297 56.58H56.0697C55.8697 56.58 55.7097 56.7 55.7097 56.9V67.18C55.7097 67.34 55.5497 67.5 55.3897 67.5H48.9497C48.7497 67.5 48.6297 67.34 48.6297 67.18V39.94C48.6297 39.74 48.7497 39.58 48.9497 39.58H55.3897C55.5497 39.58 55.7097 39.74 55.7097 39.94V49.82C55.7097 50.02 55.8697 50.18 56.0697 50.18H64.0297C64.2297 50.18 64.3897 50.02 64.3897 49.82V39.94C64.3897 39.74 64.5497 39.58 64.7497 39.58H71.1497ZM86.5459 39.58C86.7059 39.58 86.8659 39.74 86.8659 39.94V67.18C86.8659 67.34 86.7059 67.5 86.5459 67.5H80.1059C79.9059 67.5 79.7859 67.34 79.7859 67.18V39.94C79.7859 39.74 79.9059 39.58 80.1059 39.58H86.5459ZM111.436 57.78L115.476 67.02C115.556 67.26 115.396 67.5 115.156 67.5H108.196C108.036 67.5 107.916 67.42 107.876 67.3L104.196 58.94C104.156 58.82 104.036 58.74 103.916 58.74H102.796C102.596 58.74 102.436 58.86 102.436 59.06V67.06C102.436 67.26 102.316 67.42 102.116 67.42H95.6763C95.4762 67.42 95.3563 67.26 95.3563 67.06V39.82C95.3563 39.62 95.4762 39.5 95.6763 39.5H104.276C109.276 39.5 111.196 40.26 112.716 41.54C114.756 43.26 115.916 45.98 115.916 48.94C115.916 51.86 114.756 54.78 113.036 56.3C112.516 56.74 112.036 57.1 111.596 57.38C111.436 57.46 111.396 57.66 111.436 57.78ZM107.516 51.9C108.836 51.3 109.116 50.02 109.116 49.06C109.116 47.7 108.556 46.82 107.436 46.3C106.516 45.9 105.356 45.9 104.636 45.9H102.796C102.596 45.9 102.436 46.06 102.436 46.26V51.94C102.436 52.14 102.596 52.3 102.796 52.3H104.876C105.516 52.3 106.636 52.3 107.516 51.9ZM139.937 61.1C140.137 61.1 140.337 61.3 140.297 61.5L139.737 67.22C139.697 67.42 139.577 67.54 139.377 67.54H124.177C123.977 67.54 123.817 67.38 123.817 67.14V39.94C123.817 39.78 123.937 39.62 124.137 39.62H139.377C139.577 39.62 139.697 39.74 139.737 39.94L140.297 45.62C140.297 45.86 140.137 46.02 139.937 46.02H131.257C131.057 46.02 130.897 46.18 130.897 46.38V49.78C130.897 49.98 131.057 50.14 131.257 50.14H137.577C137.777 50.14 137.937 50.3 137.937 50.5V56.18C137.937 56.38 137.777 56.54 137.577 56.54H131.257C131.057 56.54 130.897 56.7 130.897 56.9V60.74C130.897 60.94 131.057 61.1 131.257 61.1H139.937ZM164.335 61.02C164.535 61.02 164.695 61.22 164.695 61.42L164.055 67.18C164.055 67.34 163.895 67.46 163.735 67.46H148.575C148.375 67.46 148.255 67.3 148.255 67.14V39.86C148.255 39.66 148.375 39.5 148.575 39.5H155.015C155.215 39.5 155.335 39.66 155.335 39.86V60.7C155.335 60.86 155.495 61.02 155.695 61.02H164.335Z"/>
</mask>
<path d="M18.82 40.7L17.5786 43.4311L17.5991 43.4404L17.6198 43.4495L18.82 40.7ZM24.94 61.1L22.4165 59.4777L22.4021 59.5L22.3882 59.5225L24.94 61.1ZM19.34 66.18L20.6524 68.8777L20.6627 68.8727L19.34 66.18ZM18.14 58.86L20.2937 60.9484L20.2937 60.9484L18.14 58.86ZM20.1 53.54H23.1V53.5318L23.1 53.5235L20.1 53.54ZM10.82 46.02V49.02H10.8549L10.8898 49.0192L10.82 46.02ZM18.82 40.7L17.6198 43.4495C21.5487 45.1645 24.14 49.1131 24.14 53.54H27.14H30.14C30.14 46.7669 26.1713 40.6355 20.0202 37.9505L18.82 40.7ZM27.14 53.54H24.14C24.14 55.6939 23.5405 57.7292 22.4165 59.4777L24.94 61.1L27.4635 62.7223C29.2195 59.9908 30.14 56.8261 30.14 53.54H27.14ZM24.94 61.1L22.3882 59.5225C21.328 61.2376 19.7962 62.6135 18.0173 63.4873L19.34 66.18L20.6627 68.8727C23.4438 67.5065 25.832 65.3624 27.4918 62.6775L24.94 61.1ZM19.34 66.18L18.0276 63.4823C17.293 63.8397 16.8585 64.0481 16.1724 64.2146C15.4531 64.3892 14.3396 64.54 12.38 64.54V67.54V70.54C14.6204 70.54 16.2469 70.3708 17.5876 70.0454C18.9615 69.7119 19.907 69.2403 20.6524 68.8777L19.34 66.18ZM12.38 67.54V64.54H4.02V67.54V70.54H12.38V67.54ZM4.02 67.54V64.54C4.78976 64.54 5.552 64.8789 6.07516 65.4972C6.55608 66.0655 6.7 66.7006 6.7 67.18H3.7H0.7C0.7 67.8594 0.90392 68.6745 1.49484 69.3728C2.128 70.1211 3.05024 70.54 4.02 70.54V67.54ZM3.7 67.18H6.7V39.9H3.7H0.7V67.18H3.7ZM3.7 39.9H6.7C6.7 41.1458 5.71723 42.58 4.02 42.58V39.58V36.58C1.92277 36.58 0.7 38.3342 0.7 39.9H3.7ZM4.02 39.58V42.58H12.18V39.58V36.58H4.02V39.58ZM12.18 39.58V42.58C15.4356 42.58 16.7182 43.04 17.5786 43.4311L18.82 40.7L20.0614 37.9689C18.2818 37.16 16.1244 36.58 12.18 36.58V39.58ZM18.14 58.86L20.2937 60.9484C22.2081 58.9742 23.1 56.3373 23.1 53.54H20.1H17.1C17.1 55.0627 16.6319 56.1058 15.9863 56.7716L18.14 58.86ZM20.1 53.54L23.1 53.5235C23.087 51.1588 22.4554 49.1653 21.3295 47.5631C20.2199 45.9844 18.7582 44.9662 17.3533 44.314C14.6284 43.0488 11.767 42.9972 10.7502 43.0208L10.82 46.02L10.8898 49.0192C11.593 49.0028 13.3516 49.0712 14.8267 49.756C15.5218 50.0788 16.0551 50.4931 16.4205 51.0131C16.7696 51.5097 17.093 52.2812 17.1 53.5565L20.1 53.54ZM10.82 46.02V43.02C9.85025 43.02 8.92801 43.4389 8.29485 44.1872C7.70392 44.8855 7.5 45.7006 7.5 46.38H10.5H13.5C13.5 46.8594 13.3561 47.4945 12.8752 48.0628C12.352 48.6811 11.5898 49.02 10.82 49.02V46.02ZM10.5 46.38H7.5V60.66H10.5H13.5V46.38H10.5ZM10.5 60.66H7.5C7.5 62.5169 9.00315 64.02 10.86 64.02V61.02V58.02C12.3169 58.02 13.5 59.2031 13.5 60.66H10.5ZM10.86 61.02V64.02H11.22V61.02V58.02H10.86V61.02ZM11.22 61.02V64.02C12.9707 64.02 14.6855 63.7732 16.2048 63.2984C17.6842 62.8362 19.1847 62.0921 20.2937 60.9484L18.14 58.86L15.9863 56.7716C15.8153 56.9479 15.3359 57.2838 14.4152 57.5716C13.5345 57.8468 12.4293 58.02 11.22 58.02V61.02ZM40.9575 39.38L43.863 40.1271L44.187 38.867L43.4885 37.7694L40.9575 39.38ZM40.0375 42.42L37.1985 41.4506L37.1985 41.4506L40.0375 42.42ZM38.7975 45.7L36.0263 44.551L36.0191 44.5683L36.0121 44.5858L38.7975 45.7ZM37.5175 48.74V51.74H39.4671L40.2589 49.9584L37.5175 48.74ZM34.9175 48.74L32.0071 48.0124L31.0752 51.74H34.9175V48.74ZM35.4775 46.34L32.5671 45.6124L32.5563 45.6555L32.5468 45.6989L35.4775 46.34ZM36.0375 43.78L33.1028 43.1575L33.0954 43.1922L33.0889 43.2271L36.0375 43.78ZM36.5175 41.22L33.5722 40.6499L33.5632 40.696L33.5558 40.7423L36.5175 41.22ZM36.9175 38.94V35.94H34.3437L33.9524 38.4838L36.9175 38.94ZM40.6775 38.94L43.2085 37.3294L42.3243 35.94H40.6775V38.94ZM40.9575 39.38L38.052 38.6329C37.8346 39.4783 37.5515 40.4166 37.1985 41.4506L40.0375 42.42L42.8765 43.3894C43.2702 42.2367 43.6004 41.1483 43.863 40.1271L40.9575 39.38ZM40.0375 42.42L37.1985 41.4506C36.8463 42.4819 36.4557 43.5153 36.0263 44.551L38.7975 45.7L41.5687 46.849C42.046 45.698 42.482 44.5448 42.8765 43.3894L40.0375 42.42ZM38.7975 45.7L36.0121 44.5858C35.5981 45.6207 35.1861 46.5991 34.7761 47.5216L37.5175 48.74L40.2589 49.9584C40.7023 48.9609 41.1435 47.9127 41.5829 46.8142L38.7975 45.7ZM37.5175 48.74V45.74H34.9175V48.74V51.74H37.5175V48.74ZM34.9175 48.74L37.8279 49.4676C38.0227 48.6887 38.216 47.8596 38.4082 46.9811L35.4775 46.34L32.5468 45.6989C32.3656 46.5271 32.1857 47.298 32.0071 48.0124L34.9175 48.74ZM35.4775 46.34L38.3879 47.0676C38.6155 46.1572 38.815 45.2456 38.9861 44.3329L36.0375 43.78L33.0889 43.2271C32.94 44.0211 32.7661 44.8162 32.5671 45.6124L35.4775 46.34ZM36.0375 43.78L38.9722 44.4025C39.1683 43.478 39.3375 42.5763 39.4792 41.6977L36.5175 41.22L33.5558 40.7423C33.4308 41.5171 33.28 42.322 33.1028 43.1575L36.0375 43.78ZM36.5175 41.22L39.4628 41.7901C39.6288 40.9328 39.7691 40.1342 39.8826 39.3962L36.9175 38.94L33.9524 38.4838C33.8526 39.1325 33.7262 39.8539 33.5722 40.6499L36.5175 41.22ZM36.9175 38.94V41.94H40.6775V38.94V35.94H36.9175V38.94ZM40.6775 38.94L38.1465 40.5506L38.4265 40.9906L40.9575 39.38L43.4885 37.7694L43.2085 37.3294L40.6775 38.94ZM71.1497 39.58V42.58C69.6928 42.58 68.5097 41.3969 68.5097 39.94H71.5097H74.5097C74.5097 38.0831 73.0065 36.58 71.1497 36.58V39.58ZM71.5097 39.94H68.5097V67.18H71.5097H74.5097V39.94H71.5097ZM71.5097 67.18H68.5097C68.5097 66.2659 68.9452 65.5876 69.3699 65.1956C69.818 64.7819 70.4415 64.5 71.1497 64.5V67.5V70.5C72.7759 70.5 74.5097 69.2184 74.5097 67.18H71.5097ZM71.1497 67.5V64.5H64.7497V67.5V70.5H71.1497V67.5ZM64.7497 67.5V64.5C65.4579 64.5 66.0814 64.7819 66.5295 65.1956C66.9542 65.5876 67.3897 66.2659 67.3897 67.18H64.3897H61.3897C61.3897 69.2184 63.1235 70.5 64.7497 70.5V67.5ZM64.3897 67.18H67.3897V56.9H64.3897H61.3897V67.18H64.3897ZM64.3897 56.9H67.3897C67.3897 55.9302 66.9708 55.008 66.2225 54.3748C65.5242 53.7839 64.7091 53.58 64.0297 53.58V56.58V59.58C63.5503 59.58 62.9152 59.4361 62.3469 58.9552C61.7286 58.432 61.3897 57.6698 61.3897 56.9H64.3897ZM64.0297 56.58V53.58H56.0697V56.58V59.58H64.0297V56.58ZM56.0697 56.58V53.58C55.3903 53.58 54.5752 53.7839 53.8769 54.3748C53.1286 55.008 52.7097 55.9302 52.7097 56.9H55.7097H58.7097C58.7097 57.6698 58.3708 58.432 57.7525 58.9552C57.1842 59.4361 56.5491 59.58 56.0697 59.58V56.58ZM55.7097 56.9H52.7097V67.18H55.7097H58.7097V56.9H55.7097ZM55.7097 67.18H52.7097C52.7097 66.2843 53.1273 65.6397 53.4884 65.2787C53.8494 64.9176 54.494 64.5 55.3897 64.5V67.5V70.5C56.4454 70.5 57.25 70.0024 57.731 69.5213C58.212 69.0403 58.7097 68.2357 58.7097 67.18H55.7097ZM55.3897 67.5V64.5H48.9497V67.5V70.5H55.3897V67.5ZM48.9497 67.5V64.5C50.6469 64.5 51.6297 65.9342 51.6297 67.18H48.6297H45.6297C45.6297 68.7458 46.8525 70.5 48.9497 70.5V67.5ZM48.6297 67.18H51.6297V39.94H48.6297H45.6297V67.18H48.6297ZM48.6297 39.94H51.6297C51.6297 40.4194 51.4858 41.0545 51.0048 41.6228C50.4817 42.2411 49.7195 42.58 48.9497 42.58V39.58V36.58C47.9799 36.58 47.0577 36.9989 46.4245 37.7472C45.8336 38.4455 45.6297 39.2606 45.6297 39.94H48.6297ZM48.9497 39.58V42.58H55.3897V39.58V36.58H48.9497V39.58ZM55.3897 39.58V42.58C54.4755 42.58 53.7973 42.1445 53.4053 41.7198C52.9916 41.2717 52.7097 40.6482 52.7097 39.94H55.7097H58.7097C58.7097 38.3138 57.4281 36.58 55.3897 36.58V39.58ZM55.7097 39.94H52.7097V49.82H55.7097H58.7097V39.94H55.7097ZM55.7097 49.82H52.7097C52.7097 51.6769 54.2128 53.18 56.0697 53.18V50.18V47.18C57.5265 47.18 58.7097 48.3631 58.7097 49.82H55.7097ZM56.0697 50.18V53.18H64.0297V50.18V47.18H56.0697V50.18ZM64.0297 50.18V53.18C65.8865 53.18 67.3897 51.6769 67.3897 49.82H64.3897H61.3897C61.3897 48.3631 62.5728 47.18 64.0297 47.18V50.18ZM64.3897 49.82H67.3897V39.94H64.3897H61.3897V49.82H64.3897ZM64.3897 39.94H67.3897C67.3897 41.3969 66.2065 42.58 64.7497 42.58V39.58V36.58C62.8928 36.58 61.3897 38.0831 61.3897 39.94H64.3897ZM64.7497 39.58V42.58H71.1497V39.58V36.58H64.7497V39.58ZM86.5459 39.58V42.58C85.6318 42.58 84.9535 42.1445 84.5615 41.7198C84.1478 41.2717 83.8659 40.6482 83.8659 39.94H86.8659H89.8659C89.8659 38.3138 88.5844 36.58 86.5459 36.58V39.58ZM86.8659 39.94H83.8659V67.18H86.8659H89.8659V39.94H86.8659ZM86.8659 67.18H83.8659C83.8659 66.2843 84.2836 65.6397 84.6446 65.2787C85.0057 64.9176 85.6502 64.5 86.5459 64.5V67.5V70.5C87.6016 70.5 88.4062 70.0024 88.8873 69.5213C89.3683 69.0403 89.8659 68.2357 89.8659 67.18H86.8659ZM86.5459 67.5V64.5H80.1059V67.5V70.5H86.5459V67.5ZM80.1059 67.5V64.5C81.8032 64.5 82.7859 65.9342 82.7859 67.18H79.7859H76.7859C76.7859 68.7458 78.0087 70.5 80.1059 70.5V67.5ZM79.7859 67.18H82.7859V39.94H79.7859H76.7859V67.18H79.7859ZM79.7859 39.94H82.7859C82.7859 40.4194 82.642 41.0545 82.1611 41.6228C81.6379 42.2411 80.8757 42.58 80.1059 42.58V39.58V36.58C79.1362 36.58 78.2139 36.9989 77.5808 37.7472C76.9899 38.4455 76.7859 39.2606 76.7859 39.94H79.7859ZM80.1059 39.58V42.58H86.5459V39.58V36.58H80.1059V39.58ZM111.436 57.78L108.59 58.7287L108.633 58.8575L108.688 58.9818L111.436 57.78ZM115.476 67.02L118.322 66.0713L118.279 65.9425L118.225 65.8182L115.476 67.02ZM107.876 67.3L110.722 66.3513L110.678 66.219L110.622 66.0913L107.876 67.3ZM104.196 58.94L101.35 59.8887L101.394 60.021L101.45 60.1487L104.196 58.94ZM112.716 41.54L114.65 39.2464L114.649 39.2453L112.716 41.54ZM113.036 56.3L114.974 58.5902L114.999 58.5693L115.023 58.548L113.036 56.3ZM111.596 57.38L112.938 60.0633L113.076 59.9941L113.207 59.911L111.596 57.38ZM107.516 51.9L108.758 54.6311L108.758 54.6311L107.516 51.9ZM107.436 46.3L108.7 43.579L108.666 43.5635L108.632 43.5488L107.436 46.3ZM111.436 57.78L108.688 58.9818L112.728 68.2218L115.476 67.02L118.225 65.8182L114.185 56.5782L111.436 57.78ZM115.476 67.02L112.63 67.9687C112.143 66.5062 113.102 64.5 115.156 64.5V67.5V70.5C117.69 70.5 118.97 68.0138 118.322 66.0713L115.476 67.02ZM115.156 67.5V64.5H108.196V67.5V70.5H115.156V67.5ZM108.196 67.5V64.5C109.031 64.5 110.268 64.9869 110.722 66.3513L107.876 67.3L105.03 68.2487C105.565 69.8531 107.041 70.5 108.196 70.5V67.5ZM107.876 67.3L110.622 66.0913L106.942 57.7313L104.196 58.94L101.45 60.1487L105.13 68.5087L107.876 67.3ZM104.196 58.94L107.042 57.9913C106.573 56.5824 105.259 55.74 103.916 55.74V58.74V61.74C102.814 61.74 101.74 61.0576 101.35 59.8887L104.196 58.94ZM103.916 58.74V55.74H102.796V58.74V61.74H103.916V58.74ZM102.796 58.74V55.74C102.117 55.74 101.302 55.9439 100.603 56.5348C99.8551 57.168 99.4363 58.0902 99.4363 59.06H102.436H105.436C105.436 59.8298 105.097 60.592 104.479 61.1152C103.911 61.5961 103.276 61.74 102.796 61.74V58.74ZM102.436 59.06H99.4363V67.06H102.436H105.436V59.06H102.436ZM102.436 67.06H99.4363C99.4363 66.5806 99.5802 65.9455 100.061 65.3772C100.584 64.7589 101.346 64.42 102.116 64.42V67.42V70.42C103.086 70.42 104.008 70.0011 104.641 69.2528C105.232 68.5545 105.436 67.7394 105.436 67.06H102.436ZM102.116 67.42V64.42H95.6763V67.42V70.42H102.116V67.42ZM95.6763 67.42V64.42C96.446 64.42 97.2082 64.7589 97.7314 65.3772C98.2123 65.9455 98.3563 66.5806 98.3563 67.06H95.3563H92.3563C92.3563 67.7394 92.5602 68.5545 93.1511 69.2528C93.7843 70.0011 94.7065 70.42 95.6763 70.42V67.42ZM95.3563 67.06H98.3563V39.82H95.3563H92.3563V67.06H95.3563ZM95.3563 39.82H98.3563C98.3563 40.3215 98.194 41.0749 97.5626 41.7063C96.9311 42.3377 96.1778 42.5 95.6763 42.5V39.5V36.5C94.9747 36.5 94.0614 36.7222 93.3199 37.4637C92.5785 38.2051 92.3563 39.1185 92.3563 39.82H95.3563ZM95.6763 39.5V42.5H104.276V39.5V36.5H95.6763V39.5ZM104.276 39.5V42.5C108.978 42.5 110.051 43.218 110.784 43.8347L112.716 41.54L114.649 39.2453C112.341 37.302 109.575 36.5 104.276 36.5V39.5ZM112.716 41.54L110.782 43.8336C112.054 44.9054 112.916 46.7354 112.916 48.94H115.916H118.916C118.916 45.2246 117.459 41.6146 114.65 39.2464L112.716 41.54ZM115.916 48.94H112.916C112.916 51.227 111.973 53.2362 111.05 54.052L113.036 56.3L115.023 58.548C117.54 56.3238 118.916 52.493 118.916 48.94H115.916ZM113.036 56.3L111.098 54.0098C110.653 54.3871 110.283 54.6599 109.986 54.849L111.596 57.38L113.207 59.911C113.79 59.5401 114.38 59.0929 114.974 58.5902L113.036 56.3ZM111.596 57.38L110.255 54.6967C109.325 55.1615 108.818 55.9467 108.595 56.6163C108.388 57.2376 108.343 57.9868 108.59 58.7287L111.436 57.78L114.282 56.8313C114.49 57.4532 114.444 58.0424 114.287 58.5137C114.114 59.0333 113.708 59.6785 112.938 60.0633L111.596 57.38ZM107.516 51.9L108.758 54.6311C111.701 53.2934 112.116 50.4373 112.116 49.06H109.116H106.116C106.116 49.1579 106.109 49.2393 106.098 49.3006C106.087 49.3621 106.077 49.3813 106.082 49.3696C106.089 49.3535 106.114 49.307 106.165 49.254C106.19 49.2287 106.215 49.2077 106.237 49.1918C106.248 49.1841 106.257 49.1784 106.264 49.1745C106.271 49.1706 106.275 49.1689 106.275 49.1689L107.516 51.9ZM109.116 49.06H112.116C112.116 47.9673 111.889 46.8287 111.251 45.7927C110.606 44.7449 109.687 44.0374 108.7 43.579L107.436 46.3L106.173 49.021C106.247 49.0553 106.259 49.0713 106.239 49.0539C106.228 49.0453 106.212 49.0305 106.194 49.0091C106.175 48.9876 106.157 48.9632 106.141 48.9373C106.125 48.9114 106.114 48.8886 106.107 48.8714C106.1 48.8545 106.099 48.8467 106.1 48.8512C106.102 48.861 106.116 48.9242 106.116 49.06H109.116ZM107.436 46.3L108.632 43.5488C107.043 42.8576 105.235 42.9 104.636 42.9V45.9V48.9C105.006 48.9 105.335 48.902 105.66 48.9348C105.996 48.9688 106.176 49.0232 106.24 49.0512L107.436 46.3ZM104.636 45.9V42.9H102.796V45.9V48.9H104.636V45.9ZM102.796 45.9V42.9C100.939 42.9 99.4363 44.4032 99.4363 46.26H102.436H105.436C105.436 47.7168 104.253 48.9 102.796 48.9V45.9ZM102.436 46.26H99.4363V51.94H102.436H105.436V46.26H102.436ZM102.436 51.94H99.4363C99.4363 53.7969 100.939 55.3 102.796 55.3V52.3V49.3C104.253 49.3 105.436 50.4831 105.436 51.94H102.436ZM102.796 52.3V55.3H104.876V52.3V49.3H102.796V52.3ZM104.876 52.3V55.3C105.397 55.3 107.188 55.3447 108.758 54.6311L107.516 51.9L106.275 49.1689C106.242 49.1837 106.095 49.2342 105.789 49.2668C105.496 49.298 105.203 49.3 104.876 49.3V52.3ZM140.297 61.5L137.355 60.9117L137.326 61.0586L137.311 61.2077L140.297 61.5ZM139.737 67.22L142.679 67.8084L142.708 67.6614L142.723 67.5123L139.737 67.22ZM139.737 39.94L142.723 39.6457L142.708 39.4976L142.679 39.3516L139.737 39.94ZM140.297 45.62H143.297V45.4725L143.283 45.3257L140.297 45.62ZM139.937 61.1V64.1C139.072 64.1 138.413 63.6996 138.014 63.272C137.609 62.8378 137.139 61.9963 137.355 60.9117L140.297 61.5L143.239 62.0883C143.496 60.8037 142.946 59.7622 142.4 59.178C141.861 58.6004 141.003 58.1 139.937 58.1V61.1ZM140.297 61.5L137.311 61.2077L136.751 66.9277L139.737 67.22L142.723 67.5123L143.283 61.7923L140.297 61.5ZM139.737 67.22L136.795 66.6316C136.862 66.297 137.056 65.7333 137.59 65.2435C138.163 64.7186 138.842 64.54 139.377 64.54V67.54V70.54C140.113 70.54 140.952 70.3014 141.644 69.6665C142.299 69.0667 142.572 68.343 142.679 67.8084L139.737 67.22ZM139.377 67.54V64.54H124.177V67.54V70.54H139.377V67.54ZM124.177 67.54V64.54C124.907 64.54 125.615 64.8439 126.121 65.3886C126.623 65.9296 126.817 66.5829 126.817 67.14H123.817H120.817C120.817 68.8236 122.115 70.54 124.177 70.54V67.54ZM123.817 67.14H126.817V39.94H123.817H120.817V67.14H123.817ZM123.817 39.94H126.817C126.817 41.1858 125.834 42.62 124.137 42.62V39.62V36.62C122.04 36.62 120.817 38.3742 120.817 39.94H123.817ZM124.137 39.62V42.62H139.377V39.62V36.62H124.137V39.62ZM139.377 39.62V42.62C138.842 42.62 138.163 42.4414 137.59 41.9165C137.056 41.4266 136.862 40.863 136.795 40.5284L139.737 39.94L142.679 39.3516C142.572 38.817 142.299 38.0934 141.644 37.4935C140.952 36.8586 140.113 36.62 139.377 36.62V39.62ZM139.737 39.94L136.752 40.2343L137.312 45.9143L140.297 45.62L143.283 45.3257L142.723 39.6457L139.737 39.94ZM140.297 45.62H137.297C137.297 45.0629 137.491 44.4096 137.994 43.8686C138.5 43.3239 139.208 43.02 139.937 43.02V46.02V49.02C142 49.02 143.297 47.3036 143.297 45.62H140.297ZM139.937 46.02V43.02H131.257V46.02V49.02H139.937V46.02ZM131.257 46.02V43.02C129.4 43.02 127.897 44.5231 127.897 46.38H130.897H133.897C133.897 47.8369 132.714 49.02 131.257 49.02V46.02ZM130.897 46.38H127.897V49.78H130.897H133.897V46.38H130.897ZM130.897 49.78H127.897C127.897 51.6368 129.4 53.14 131.257 53.14V50.14V47.14C132.714 47.14 133.897 48.3232 133.897 49.78H130.897ZM131.257 50.14V53.14H137.577V50.14V47.14H131.257V50.14ZM137.577 50.14V53.14C136.12 53.14 134.937 51.9569 134.937 50.5H137.937H140.937C140.937 48.6431 139.434 47.14 137.577 47.14V50.14ZM137.937 50.5H134.937V56.18H137.937H140.937V50.5H137.937ZM137.937 56.18H134.937C134.937 54.7231 136.12 53.54 137.577 53.54V56.54V59.54C139.434 59.54 140.937 58.0369 140.937 56.18H137.937ZM137.577 56.54V53.54H131.257V56.54V59.54H137.577V56.54ZM131.257 56.54V53.54C129.4 53.54 127.897 55.0432 127.897 56.9H130.897H133.897C133.897 58.3568 132.714 59.54 131.257 59.54V56.54ZM130.897 56.9H127.897V60.74H130.897H133.897V56.9H130.897ZM130.897 60.74H127.897C127.897 62.5969 129.4 64.1 131.257 64.1V61.1V58.1C132.714 58.1 133.897 59.2831 133.897 60.74H130.897ZM131.257 61.1V64.1H139.937V61.1V58.1H131.257V61.1ZM164.695 61.42L167.676 61.7513L167.695 61.5862V61.42H164.695ZM164.055 67.18L161.073 66.8487L161.055 67.0138V67.18H164.055ZM164.335 61.02V64.02C163.392 64.02 162.704 63.5497 162.323 63.1098C161.949 62.6784 161.695 62.0918 161.695 61.42H164.695H167.695C167.695 60.5482 167.361 59.7616 166.857 59.1802C166.346 58.5903 165.477 58.02 164.335 58.02V61.02ZM164.695 61.42L161.713 61.0887L161.073 66.8487L164.055 67.18L167.036 67.5113L167.676 61.7513L164.695 61.42ZM164.055 67.18H161.055C161.055 66.1993 161.553 65.4764 162.034 65.0753C162.5 64.6872 163.096 64.46 163.735 64.46V67.46V70.46C164.534 70.46 165.289 70.1728 165.875 69.6847C166.477 69.1836 167.055 68.3207 167.055 67.18H164.055ZM163.735 67.46V64.46H148.575V67.46V70.46H163.735V67.46ZM148.575 67.46V64.46C150.272 64.46 151.255 65.8942 151.255 67.14H148.255H145.255C145.255 68.7058 146.477 70.46 148.575 70.46V67.46ZM148.255 67.14H151.255V39.86H148.255H145.255V67.14H148.255ZM148.255 39.86H151.255C151.255 40.3394 151.111 40.9745 150.63 41.5428C150.107 42.1611 149.344 42.5 148.575 42.5V39.5V36.5C147.605 36.5 146.683 36.9189 146.05 37.6672C145.459 38.3655 145.255 39.1806 145.255 39.86H148.255ZM148.575 39.5V42.5H155.015V39.5V36.5H148.575V39.5ZM155.015 39.5V42.5C154.245 42.5 153.483 42.1611 152.96 41.5428C152.479 40.9745 152.335 40.3394 152.335 39.86H155.335H158.335C158.335 39.1806 158.131 38.3655 157.54 37.6672C156.907 36.9189 155.984 36.5 155.015 36.5V39.5ZM155.335 39.86H152.335V60.7H155.335H158.335V39.86H155.335ZM155.335 60.7H152.335C152.335 62.7384 154.068 64.02 155.695 64.02V61.02V58.02C156.403 58.02 157.026 58.3019 157.475 58.7156C157.899 59.1076 158.335 59.7859 158.335 60.7H155.335ZM155.695 61.02V64.02H164.335V61.02V58.02H155.695V61.02Z" fill="white" mask="url(#path-2-outside-1_33_8)"/>
</svg>
