<?xml version="1.0" standalone="no"?>
<!DOCTYPE svg PUBLIC "-//W3C//DTD SVG 20010904//EN"
 "http://www.w3.org/TR/2001/REC-SVG-20010904/DTD/svg10.dtd">
<svg version="1.0" xmlns="http://www.w3.org/2000/svg"
 width="1414.000000pt" height="2000.000000pt" viewBox="0 0 1414.000000 2000.000000"
 preserveAspectRatio="xMidYMid meet">

<g transform="translate(0.000000,2000.000000) scale(0.100000,-0.100000)"
fill="#000000" stroke="none">
<path d="M5288 13466 c-55 -50 -130 -83 -248 -106 -187 -38 -242 -65 -315
-158 -65 -83 -88 -160 -83 -276 4 -78 9 -101 40 -166 68 -143 120 -190 210
-190 55 0 144 43 208 100 l45 39 -22 18 c-64 52 -45 173 27 173 27 0 52 -20
63 -53 4 -11 14 -17 24 -15 15 3 17 14 14 89 -2 80 0 92 28 149 34 68 59 106
102 152 30 34 59 105 59 147 -1 37 -35 107 -58 120 -34 18 -55 13 -94 -23z"/>
<path d="M1730 13335 c-55 -25 -96 -61 -117 -104 -11 -22 -40 -55 -64 -73 -52
-40 -89 -93 -115 -162 -15 -40 -19 -78 -19 -176 0 -112 3 -130 24 -169 36 -69
66 -91 123 -91 41 0 128 43 165 82 l28 29 -21 17 c-30 23 -38 56 -24 96 14 43
42 69 75 69 35 0 47 -14 54 -60 6 -38 37 -60 44 -31 40 156 106 257 168 258
41 0 107 -26 147 -60 43 -35 83 -39 128 -11 88 54 113 158 54 225 -42 47 -82
59 -158 47 -82 -13 -128 -1 -246 66 -112 64 -180 77 -246 48z"/>
<path d="M14055 13124 c-27 -7 -97 -15 -155 -17 -90 -3 -114 -8 -160 -31 -79
-39 -142 -106 -181 -190 -31 -66 -33 -78 -33 -171 1 -87 5 -109 31 -170 35
-84 106 -191 132 -200 29 -9 125 32 182 77 51 40 52 41 31 57 -33 25 -43 64
-28 108 23 69 79 75 111 13 9 -18 23 -30 35 -30 19 0 20 7 20 109 0 60 5 122
11 138 12 34 58 83 76 83 10 0 13 28 13 120 0 136 5 129 -85 104z"/>
<path d="M7982 12885 c-92 -20 -166 -60 -218 -118 -55 -61 -68 -85 -88 -164
-46 -179 9 -350 138 -424 28 -16 59 -29 68 -29 24 0 53 46 73 113 15 53 15 61
1 92 -35 73 31 138 85 84 21 -21 24 -21 53 -6 17 9 73 36 125 61 120 58 176
101 202 153 27 55 19 94 -31 142 -45 44 -105 75 -185 96 -71 18 -138 18 -223
0z"/>
<path d="M10305 12871 c-52 -24 -121 -98 -173 -188 -23 -39 -42 -74 -42 -76 0
-6 -115 -250 -152 -322 -88 -172 -180 -266 -310 -314 -32 -12 -36 -36 -9 -50
10 -6 60 -14 111 -19 343 -35 545 119 695 528 21 58 48 125 61 150 12 25 25
63 28 85 3 24 22 63 46 97 l40 57 -24 16 c-82 54 -199 69 -271 36z"/>
<path d="M10890 12860 c-74 -11 -158 -44 -207 -79 -46 -33 -118 -136 -133
-189 -38 -140 -14 -303 59 -386 22 -26 117 -86 135 -86 22 0 61 57 80 118 15
48 15 55 1 75 -21 30 -19 73 5 97 25 25 50 25 81 1 l24 -19 130 63 c193 94
256 158 234 238 -10 37 -66 95 -120 122 -77 40 -196 59 -289 45z"/>
<path d="M4838 12394 c-4 -3 8 -28 25 -56 28 -44 32 -60 32 -118 0 -58 -5 -77
-39 -144 -41 -80 -89 -130 -135 -141 -56 -13 -82 -29 -103 -64 -56 -92 -238
-326 -362 -465 -77 -86 -74 -80 -86 -168 -5 -40 -14 -109 -20 -153 -6 -44 -15
-89 -20 -100 -5 -11 -12 -45 -16 -75 -3 -30 -11 -62 -17 -71 -8 -13 -7 -22 2
-33 14 -17 68 -46 85 -46 34 0 143 -69 174 -110 32 -42 34 -47 30 -115 -3 -59
-8 -77 -33 -112 -32 -45 -95 -91 -135 -99 -14 -3 -33 -9 -42 -15 -46 -24 -175
-2 -220 39 -11 9 -18 11 -18 4 0 -7 -13 -40 -30 -74 -16 -34 -30 -63 -30 -65
0 -2 23 -3 50 -3 28 0 50 -3 50 -6 0 -3 -22 -31 -50 -61 -149 -163 -216 -394
-245 -848 -6 -91 -24 -248 -51 -428 -8 -54 -14 -115 -14 -137 l0 -39 98 -30
c147 -45 461 -122 657 -160 49 -9 75 -2 75 21 0 5 8 28 19 51 10 23 58 144
107 269 49 125 93 228 97 228 6 0 268 -193 383 -282 15 -11 162 109 456 375
54 49 98 91 98 94 0 3 -51 69 -114 147 -62 77 -222 276 -355 441 -213 265
-262 335 -233 335 4 0 12 19 18 43 7 23 19 69 29 102 9 33 23 85 31 115 13 56
32 132 59 240 55 221 71 289 86 380 6 36 16 70 22 76 7 7 39 26 72 44 89 48
88 46 65 113 -11 31 -20 64 -20 74 0 10 -12 50 -26 88 -24 66 -25 81 -24 255
l1 185 -35 85 c-23 55 -41 86 -53 89 -41 8 -213 195 -267 291 -12 22 -25 37
-28 34z"/>
<path d="M7485 12188 c-33 -12 -78 -31 -99 -42 -85 -44 -128 -160 -89 -236 18
-35 88 -80 124 -80 10 0 40 19 68 43 28 24 76 57 107 73 59 30 78 55 89 117 6
33 5 37 -13 37 -19 0 -102 82 -102 101 0 13 -18 10 -85 -13z"/>
<path d="M10986 11844 c-8 -29 1 -64 15 -64 5 0 9 -6 9 -12 1 -17 39 -62 46
-55 10 10 -8 95 -27 126 -23 38 -35 39 -43 5z"/>
<path d="M10229 11339 c-13 -17 -37 -46 -54 -63 -16 -18 -36 -42 -42 -54 -12
-20 -10 -23 31 -42 25 -11 48 -24 51 -30 3 -5 12 -10 19 -10 10 0 15 30 19
113 3 61 4 113 2 115 -1 1 -13 -12 -26 -29z"/>
<path d="M331 10333 c-16 -20 -50 -77 -75 -127 -94 -193 -144 -430 -165 -781
-6 -88 -19 -227 -30 -310 -12 -82 -26 -193 -32 -245 -6 -52 -11 -99 -12 -105
-2 -9 112 -50 240 -88 62 -18 62 -18 80 70 22 106 54 249 88 393 7 30 21 89
30 130 9 41 23 102 31 135 8 33 21 89 28 125 8 36 21 94 29 130 8 36 23 99 32
140 10 41 23 100 30 130 7 30 20 87 29 125 9 39 20 86 25 106 l8 36 -80 39
c-44 21 -108 57 -141 80 -34 22 -66 43 -73 47 -7 4 -24 -8 -42 -30z"/>
<path d="M732 10128 c-22 -88 -45 -189 -182 -788 -77 -338 -145 -632 -151
-653 -12 -45 -12 -43 22 -52 25 -6 27 -4 37 47 7 29 18 80 26 113 7 33 35 155
61 270 26 116 53 235 60 265 7 30 21 89 30 130 9 41 23 102 31 135 8 33 21 92
30 130 37 169 64 287 85 373 11 46 11 55 -2 63 -26 16 -36 9 -47 -33z"/>
<path d="M856 10068 c-9 -40 -24 -101 -32 -135 -16 -73 -34 -147 -68 -293 -14
-58 -32 -139 -41 -180 -9 -41 -20 -91 -25 -110 -16 -69 -52 -226 -67 -290 -8
-36 -18 -81 -23 -100 -80 -346 -79 -340 -61 -349 9 -5 32 -11 51 -14 19 -3 85
-17 147 -30 l112 -24 24 66 c29 78 87 240 93 259 7 22 19 11 83 -70 34 -43 66
-78 72 -78 6 0 40 14 76 30 35 17 67 30 70 30 13 0 491 241 501 253 12 14 -5
54 -227 520 -34 71 -61 130 -61 132 0 3 -59 129 -168 357 l-37 78 -180 4 c-99
2 -189 7 -200 10 -19 7 -23 0 -39 -66z"/>
<path d="M12760 10020 c-19 -17 -35 -36 -35 -42 0 -19 -39 -27 -56 -12 -14 12
-18 12 -28 1 -8 -11 -37 -13 -118 -11 -66 1 -113 -2 -121 -8 -9 -8 -18 -5 -35
10 -22 21 -24 21 -41 4 -15 -15 -16 -15 -11 -1 9 25 -14 34 -30 13 -17 -25
-141 -28 -139 -3 1 8 -7 15 -16 15 -11 0 -16 -6 -12 -15 3 -9 0 -12 -9 -9 -7
2 -16 15 -20 29 -6 20 -7 21 -8 4 -2 -22 -31 -66 -31 -47 0 19 -20 14 -41 -10
l-20 -23 4 30 c2 17 2 24 0 18 -3 -7 -15 -13 -28 -13 -13 0 -25 -6 -28 -12 -5
-17 -37 8 -37 28 0 8 -7 14 -15 14 -13 0 -13 -4 -3 -22 7 -13 17 -26 22 -30 5
-3 -3 -5 -17 -5 -15 1 -29 7 -31 13 -2 6 -16 10 -30 9 -14 -2 -24 0 -21 5 3 4
-2 13 -9 19 -11 10 -15 8 -18 -6 -3 -16 -4 -16 -18 -1 -14 14 -16 14 -32 -5
-10 -11 -18 -15 -18 -9 0 16 -57 15 -63 0 -4 -10 -8 -10 -15 0 -7 11 -10 9
-15 -7 -3 -12 -10 -21 -17 -21 -7 0 -9 8 -5 20 7 23 -4 26 -24 8 -11 -10 -13
-10 -7 0 5 9 -5 12 -38 12 -46 0 -69 -16 -45 -31 8 -5 10 -9 5 -9 -6 0 -20 10
-33 21 -18 18 -25 20 -38 9 -12 -10 -18 -10 -30 0 -11 10 -17 9 -29 -3 -8 -8
-13 -17 -10 -19 2 -3 -16 -11 -41 -18 -39 -11 -46 -16 -41 -33 4 -15 2 -17 -7
-8 -6 6 -33 11 -59 11 -26 0 -48 4 -48 9 0 14 -54 20 -63 8 -5 -7 -7 -3 -4 11
5 20 -3 27 -25 23 -5 0 -8 5 -8 13 0 10 -11 13 -40 10 -30 -3 -42 0 -46 11 -8
20 -22 19 -27 -2 -4 -17 -5 -17 -6 0 0 9 -5 17 -10 17 -12 0 -24 -37 -17 -49
9 -13 -23 -22 -42 -12 -18 9 -58 5 -247 -29 -66 -11 -158 -27 -205 -36 -82
-14 -154 -27 -333 -58 -45 -8 -109 -20 -141 -25 -33 -6 -64 -15 -70 -21 -14
-14 -36 -13 -36 2 0 6 13 23 28 37 15 14 40 42 56 61 26 32 27 35 10 41 -15 6
-14 8 8 8 19 1 33 10 45 29 10 15 22 30 27 34 6 4 7 10 3 15 -5 4 -17 -3 -29
-17 -11 -14 -17 -20 -14 -13 7 13 -10 26 -36 28 -10 1 -18 -5 -18 -13 0 -13
-2 -13 -17 0 -27 23 -47 33 -39 20 4 -6 2 -20 -3 -31 -13 -23 -61 -35 -61 -15
0 8 -7 14 -15 14 -8 0 -12 6 -9 14 3 8 0 17 -7 22 -8 4 -10 3 -5 -5 4 -6 1
-18 -8 -26 -10 -10 -17 -12 -21 -4 -4 6 -13 8 -21 5 -8 -3 -11 0 -8 9 4 11 -2
13 -28 11 -18 -2 -42 -7 -53 -11 -23 -10 -60 -45 -47 -45 6 0 12 -10 15 -22
l6 -23 -17 21 c-12 14 -28 20 -54 19 -21 0 -45 2 -55 6 -10 4 7 6 37 5 43 -1
55 2 55 14 0 11 -12 15 -46 15 -26 0 -53 5 -60 11 -8 6 -29 14 -47 17 -29 6
-31 5 -18 -8 8 -8 25 -15 37 -15 14 0 19 -4 14 -9 -6 -5 -30 -6 -55 -2 -34 5
-48 3 -57 -9 -9 -12 -14 -13 -24 -2 -7 6 -23 12 -35 12 -13 0 -31 8 -40 18
-17 16 -18 16 -11 0 4 -12 2 -18 -8 -18 -8 0 -15 -8 -15 -17 0 -16 -1 -16 -12
0 -8 10 -32 18 -66 20 -29 2 -60 11 -70 21 -10 9 -23 16 -28 16 -5 0 -2 -4 6
-10 12 -8 12 -10 -3 -16 -9 -3 -14 -10 -11 -15 3 -5 -2 -6 -10 -3 -11 4 -16 0
-16 -10 0 -9 8 -16 18 -16 16 -1 16 -2 -2 -15 -11 -8 -16 -20 -12 -30 3 -10 2
-13 -4 -10 -6 4 -10 16 -9 28 6 66 3 69 -58 67 -32 -2 -66 1 -76 5 -9 4 -23 3
-30 -3 -6 -5 -60 -8 -120 -6 -79 2 -111 -1 -120 -10 -10 -11 -16 -9 -36 12
-21 23 -24 24 -33 9 -5 -9 -14 -17 -21 -17 -7 0 -6 4 3 10 13 9 13 11 0 19
-10 7 -18 5 -26 -7 -16 -23 -140 -25 -138 -1 1 8 -7 15 -16 15 -11 0 -16 -6
-12 -15 3 -9 0 -12 -9 -9 -7 2 -16 15 -20 29 -5 16 -7 18 -8 6 -1 -9 -7 -26
-13 -37 -11 -17 -10 -22 2 -31 13 -9 13 -10 0 -6 -9 3 -14 15 -13 33 0 16 -1
23 -4 17 -2 -7 -9 -13 -15 -13 -5 0 -19 -10 -29 -22 l-20 -23 4 30 c2 17 2 24
0 18 -3 -7 -15 -13 -28 -13 -13 0 -25 -5 -27 -11 -2 -7 -18 -12 -36 -13 -26
-1 -35 -7 -48 -36 -34 -73 -125 -117 -306 -146 -80 -13 -102 -13 -192 1 -162
24 -239 57 -413 172 -13 9 -14 11 -2 7 21 -7 32 31 13 47 -11 9 -14 8 -14 -7
0 -17 -1 -17 -14 2 -14 18 -15 18 -21 1 -4 -9 -5 -23 -2 -31 4 -9 -4 -16 -21
-19 -33 -6 -43 1 -19 14 23 13 22 32 -2 24 -10 -3 -32 -7 -49 -9 -24 -4 -29
-1 -25 13 5 19 -20 22 -47 6 -23 -14 -49 -13 -62 2 -9 11 -13 10 -25 -7 -8
-11 -11 -26 -7 -33 4 -6 -4 -2 -17 9 -13 12 -30 19 -37 17 -7 -3 -21 6 -31 19
l-20 23 1 -32 c1 -25 6 -33 19 -33 10 0 20 -4 23 -9 3 -5 23 -12 43 -16 21 -4
43 -10 48 -14 6 -4 44 -18 85 -31 93 -31 109 -44 90 -74 -88 -141 -120 -301
-101 -515 8 -81 7 -143 -1 -220 -20 -182 -23 -172 47 -193 139 -42 281 -59
480 -56 l189 3 13 45 c7 25 17 63 23 85 19 77 16 78 165 -34 75 -56 143 -105
151 -108 9 -3 25 -1 37 4 12 5 53 20 90 33 73 24 154 64 227 113 60 39 199
183 206 213 3 13 10 24 15 24 20 0 7 40 -26 83 -19 25 -35 51 -35 56 0 13 37
15 44 2 3 -5 26 -12 51 -15 24 -4 47 -11 50 -17 4 -5 16 -9 28 -9 12 0 42 -6
67 -14 25 -8 83 -25 130 -37 47 -12 92 -24 100 -27 8 -3 38 -11 65 -18 28 -7
79 -20 115 -29 73 -18 145 -36 240 -59 65 -17 137 -33 263 -59 38 -8 75 -20
82 -28 11 -12 7 -55 -31 -274 -24 -143 -51 -300 -59 -350 -7 -49 -19 -114 -24
-144 -20 -98 -16 -114 32 -148 106 -75 419 -232 463 -233 13 0 29 33 94 185
23 55 57 132 75 170 18 39 60 134 94 213 34 78 73 167 86 197 14 29 42 93 63
142 l39 88 64 -3 c35 -1 80 -8 99 -14 19 -6 158 -103 309 -216 256 -191 277
-204 300 -194 14 6 103 44 196 85 94 41 198 85 233 98 61 23 63 25 59 54 -3
17 -8 40 -12 53 l-7 22 253 1 c140 0 287 4 327 8 40 4 77 4 82 1 7 -4 7 -33 0
-83 -12 -82 -9 -97 18 -97 10 0 34 -9 53 -19 44 -24 144 -53 337 -97 34 -8 92
-21 130 -30 37 -8 96 -21 132 -28 36 -7 73 -16 83 -20 9 -5 23 -6 31 -3 7 3
57 117 111 254 54 136 100 251 104 255 3 4 17 9 31 12 21 5 51 -15 183 -124
88 -72 162 -130 165 -130 9 1 68 46 191 149 l101 85 0 545 c-1 542 -2 571 -34
571 -6 0 -4 -5 4 -10 12 -7 12 -12 3 -21 -10 -10 -16 -9 -31 4 -24 22 -27 22
-68 -10 -26 -20 -38 -23 -46 -15 -7 7 -20 12 -30 12 -11 0 -15 5 -12 15 7 18
-7 20 -23 4 -6 -6 -17 -8 -24 -3 -23 14 -53 12 -69 -5 -8 -9 -14 -15 -13 -12
5 9 -19 31 -28 25 -5 -3 -9 2 -9 10 0 8 -9 20 -20 26 -21 11 -276 24 -700 35
l-245 7 -35 -32z m-4443 -76 c10 -27 -14 -40 -37 -19 -20 18 -20 20 -3 26 27
11 33 10 40 -7z m1331 -15 c-3 -8 -7 -3 -11 10 -4 17 -3 21 5 13 5 -5 8 -16 6
-23z m2099 -41 c-7 -4 -15 -8 -19 -8 -11 0 -10 18 2 25 6 3 10 18 11 33 1 24
2 23 9 -8 6 -24 5 -37 -3 -42z m400 56 c10 -26 -14 -41 -35 -21 -15 16 -15 19
-2 27 21 14 30 12 37 -6z m-5370 -16 c-3 -8 -6 -5 -6 6 -1 11 2 17 5 13 3 -3
4 -12 1 -19z m1593 18 c0 -2 -7 -9 -15 -16 -13 -11 -14 -10 -9 4 5 14 24 23
24 12z m299 -21 c6 3 11 -1 11 -9 0 -12 -10 -16 -36 -16 -29 0 -35 3 -30 16 3
9 6 20 6 26 0 6 9 3 19 -6 11 -10 25 -15 30 -11z m239 6 c3 -8 -1 -12 -9 -9
-7 2 -15 10 -17 17 -3 8 1 12 9 9 7 -2 15 -10 17 -17z m42 15 c0 -11 -19 -15
-25 -6 -3 5 1 10 9 10 9 0 16 -2 16 -4z m663 -11 c7 -16 -8 -29 -23 -20 -10 6
-2 35 10 35 4 0 10 -7 13 -15z m1924 -7 c-3 -8 -6 -5 -6 6 -1 11 2 17 5 13 3
-3 4 -12 1 -19z m663 18 c0 -2 -7 -9 -15 -16 -13 -11 -14 -10 -9 4 5 14 24 23
24 12z m299 -21 c6 3 11 -1 11 -9 0 -11 -9 -16 -28 -16 -37 0 -44 8 -30 33 10
20 11 20 24 3 7 -10 17 -15 23 -11z m-5599 -17 c0 -21 0 -21 -15 -2 -14 19
-14 19 -15 0 0 -11 -3 -17 -6 -13 -11 10 4 37 21 37 9 0 15 -9 15 -22z m1235
12 c-3 -5 -12 -10 -18 -10 -7 0 -6 4 3 10 19 12 23 12 15 0z m361 -5 c-33 -18
-36 -18 -36 -6 0 9 21 18 50 20 8 0 2 -6 -14 -14z m222 1 c-7 -8 -15 -12 -17
-11 -5 6 10 25 20 25 5 0 4 -6 -3 -14z m117 4 c-27 -12 -35 -12 -35 0 0 6 12
10 28 9 24 0 25 -1 7 -9z m539 -2 c-3 -4 -11 -5 -19 -1 -21 7 -19 12 4 10 11
0 18 -5 15 -9z m390 4 c2 -4 -4 -8 -14 -8 -10 0 -16 4 -14 8 3 4 9 8 14 8 5 0
11 -4 14 -8z m1196 -7 c0 -1 -6 -7 -13 -13 -10 -8 -13 -6 -13 7 0 11 6 17 13
14 7 -3 13 -6 13 -8z m1370 1 c-14 -7 -29 -10 -34 -8 -11 6 20 20 44 21 8 0 4
-5 -10 -13z m230 10 c0 -2 -7 -7 -16 -10 -8 -3 -12 -2 -9 4 6 10 25 14 25 6z
m105 -6 c-27 -12 -35 -12 -35 0 0 6 12 10 28 9 24 0 25 -1 7 -9z m1351 -8 c0
-10 -8 -18 -18 -18 -23 0 -23 23 0 29 9 3 17 5 17 6 1 0 1 -7 1 -17z m104 4
c0 -8 -4 -18 -10 -21 -5 -3 -10 3 -10 14 0 12 5 21 10 21 6 0 10 -6 10 -14z
m-5900 -10 c0 -8 -6 -17 -12 -19 -10 -4 -9 -8 2 -17 13 -10 13 -11 0 -7 -21 5
-26 57 -6 57 9 0 16 -6 16 -14z m360 10 c0 -2 -7 -9 -15 -16 -12 -10 -15 -10
-15 4 0 9 7 16 15 16 8 0 15 -2 15 -4z m2447 -18 c-3 -8 -6 -5 -6 6 -1 11 2
17 5 13 3 -3 4 -12 1 -19z m346 -5 c-7 -3 -13 -12 -13 -20 0 -9 -2 -14 -5 -11
-4 3 -3 18 1 33 5 20 9 24 18 14 8 -8 8 -13 -1 -16z m347 17 c0 -5 -4 -10 -9
-10 -6 0 -13 5 -16 10 -3 6 1 10 9 10 9 0 16 -4 16 -10z m328 -7 c-5 -25 -28
-28 -28 -4 0 12 6 21 16 21 9 0 14 -7 12 -17z m362 13 c0 -2 -7 -9 -15 -16
-12 -10 -15 -10 -15 4 0 9 7 16 15 16 8 0 15 -2 15 -4z m1660 0 c0 -11 -19
-15 -25 -6 -3 5 1 10 9 10 9 0 16 -2 16 -4z m-7060 -26 c0 -5 -4 -10 -10 -10
-5 0 -10 5 -10 10 0 6 5 10 10 10 6 0 10 -4 10 -10z m2297 -22 c-3 -7 -5 -2
-5 12 0 14 2 19 5 13 2 -7 2 -19 0 -25z m397 23 c3 -4 -6 -6 -19 -3 -14 2 -25
6 -25 8 0 8 39 4 44 -5z m-1570 -17 c5 -14 4 -15 -9 -4 -17 14 -19 20 -6 20 5
0 12 -7 15 -16z m1687 -7 c-10 -9 -11 -8 -5 6 3 10 9 15 12 12 3 -3 0 -11 -7
-18z m2143 7 c3 -8 2 -12 -4 -9 -6 3 -10 10 -10 16 0 14 7 11 14 -7z m-3557
-10 c-3 -3 -12 -4 -19 -1 -8 3 -5 6 6 6 11 1 17 -2 13 -5z m510 0 c-3 -3 -12
-4 -19 -1 -8 3 -5 6 6 6 11 1 17 -2 13 -5z m533 -4 c0 -5 -4 -10 -10 -10 -5 0
-10 5 -10 10 0 6 5 10 10 10 6 0 10 -4 10 -10z m1685 -29 c-6 -5 -25 10 -25
20 0 5 6 4 14 -3 8 -7 12 -15 11 -17z m-2445 -11 c0 -5 -4 -10 -10 -10 -5 0
-10 5 -10 10 0 6 5 10 10 10 6 0 10 -4 10 -10z m3840 6 c0 -11 -19 -15 -25 -6
-3 5 1 10 9 10 9 0 16 -2 16 -4z"/>
<path d="M11385 9979 c-4 -6 -5 -13 -2 -16 7 -7 27 6 27 18 0 12 -17 12 -25
-2z"/>
<path d="M6625 9970 c3 -5 11 -10 16 -10 6 0 7 5 4 10 -3 6 -11 10 -16 10 -6
0 -7 -4 -4 -10z"/>
<path d="M6664 9964 c3 -9 6 -17 6 -19 0 -2 9 -1 20 2 16 4 18 8 9 19 -16 20
-43 18 -35 -2z"/>
<path d="M8100 9966 c0 -9 7 -12 20 -9 11 3 20 9 20 14 0 5 -9 9 -20 9 -11 0
-20 -6 -20 -14z"/>
<path d="M9285 9970 c4 -6 11 -8 16 -5 14 9 11 15 -7 15 -8 0 -12 -5 -9 -10z"/>
<path d="M11455 9970 c3 -5 10 -10 16 -10 5 0 9 5 9 10 0 6 -7 10 -16 10 -8 0
-12 -4 -9 -10z"/>
<path d="M11930 9966 c0 -9 7 -12 20 -9 11 3 20 9 20 14 0 5 -9 9 -20 9 -11 0
-20 -6 -20 -14z"/>
<path d="M8060 9946 c0 -9 5 -16 10 -16 6 0 10 4 10 9 0 6 -4 13 -10 16 -5 3
-10 -1 -10 -9z"/>
<path d="M1341 7958 c-12 -12 -23 -35 -25 -52 -24 -157 -29 -879 -7 -961 31
-113 117 -228 198 -266 53 -24 75 -24 104 0 24 19 24 23 24 188 l0 168 34 69
c18 37 40 77 50 89 54 66 76 86 139 127 76 48 98 79 86 124 -8 35 -65 71 -127
80 -63 10 -144 52 -151 79 -9 33 -7 93 3 119 5 14 32 49 60 78 87 92 77 120
-43 120 -70 0 -181 22 -233 45 -45 22 -89 19 -112 -7z"/>
<path d="M13917 7709 c-44 -25 -48 -64 -54 -465 -7 -421 -2 -465 58 -584 42
-84 139 -170 191 -170 l28 0 0 588 0 588 -87 27 c-96 30 -109 31 -136 16z"/>
<path d="M10272 7467 c-32 -34 -36 -72 -18 -198 23 -163 35 -258 51 -389 40
-319 68 -410 161 -531 l47 -62 90 7 c50 3 105 6 124 6 40 0 42 11 12 101 -17
54 -20 81 -16 169 7 153 37 218 158 347 43 46 79 88 79 93 0 21 -21 60 -45 84
-21 21 -35 26 -77 26 -28 0 -65 4 -82 9 -17 5 -44 13 -61 18 -19 5 -36 21 -49
46 -22 41 -24 32 38 155 63 127 50 146 -88 129 -66 -8 -110 -7 -171 1 -112 16
-128 15 -153 -11z"/>
<path d="M5035 7448 c-27 -5 -107 -6 -177 -2 l-126 6 -19 -28 c-22 -34 -22
-109 1 -234 9 -47 31 -186 51 -310 20 -124 47 -263 62 -309 34 -108 104 -214
170 -258 75 -48 90 -54 140 -51 36 2 50 9 66 30 22 30 22 33 -18 168 -12 40
-15 80 -12 145 6 128 39 204 128 301 73 78 88 111 71 149 -17 37 -65 55 -159
62 -93 7 -135 28 -147 77 -7 30 15 94 54 158 35 56 38 83 11 98 -22 11 -26 11
-96 -2z"/>
<path d="M7885 7379 c-22 -4 -102 -8 -178 -8 l-137 -1 -21 -32 c-12 -21 -18
-42 -14 -58 3 -14 12 -63 21 -110 79 -430 117 -616 133 -655 61 -147 135 -239
226 -282 66 -30 109 -30 140 2 34 33 33 42 -19 154 -6 14 -11 80 -11 155 0
130 0 132 35 200 19 37 58 94 87 125 56 59 69 86 59 124 -9 37 -44 50 -148 55
-87 4 -100 7 -129 32 -30 24 -33 32 -32 79 0 38 10 69 37 121 20 39 36 77 36
84 0 13 -23 28 -38 25 -4 -1 -25 -5 -47 -10z"/>
<path d="M8784 6720 c-26 -10 -54 -48 -82 -111 -22 -49 -73 -99 -99 -99 -27 0
-77 37 -130 99 -85 96 -109 93 -138 -19 -16 -65 -39 -118 -95 -218 -25 -44
-27 -57 -19 -81 18 -50 22 -52 374 -147 94 -25 175 -49 180 -54 6 -4 35 -4 65
1 72 12 469 64 572 76 44 5 48 7 54 38 3 18 3 43 -1 54 -9 29 -55 51 -107 51
-59 0 -151 25 -211 57 -104 57 -174 141 -218 258 -12 33 -31 70 -42 83 -21 23
-63 28 -103 12z"/>
<path d="M11648 6683 c-14 -16 -41 -57 -59 -92 -79 -152 -160 -146 -283 22
-36 49 -71 51 -81 5 -17 -80 -50 -165 -92 -231 -14 -22 -23 -41 -21 -43 3 -2
76 1 164 6 87 6 271 15 408 20 136 5 250 11 252 13 3 2 -15 24 -39 48 -47 46
-99 133 -111 184 -4 17 -19 45 -32 63 -32 41 -70 43 -106 5z"/>
<path d="M5985 6662 c-29 -24 -51 -62 -60 -100 -19 -87 -76 -152 -134 -152
-38 0 -102 42 -154 102 -41 46 -57 58 -77 56 -21 -3 -26 -10 -31 -43 -23 -142
-35 -181 -85 -276 -13 -26 -24 -55 -24 -65 1 -43 53 -80 124 -90 22 -3 79 -11
126 -19 47 -8 130 -21 185 -30 55 -8 125 -20 155 -25 30 -5 119 -17 197 -26
133 -17 147 -17 238 0 93 16 181 53 229 95 43 37 76 94 76 132 0 57 -24 69
-135 69 -220 0 -396 106 -484 292 -35 75 -58 98 -94 98 -18 -1 -41 -8 -52 -18z"/>
<path d="M2662 6520 c-29 -18 -72 -90 -72 -121 0 -6 -9 -30 -20 -54 -26 -58
-62 -85 -113 -85 -47 0 -76 20 -162 109 -32 34 -62 61 -67 61 -24 0 -46 -42
-53 -101 -9 -81 -36 -172 -69 -231 -34 -62 -34 -111 0 -143 35 -32 21 -29 367
-80 56 -8 145 -22 197 -30 214 -32 270 -37 380 -33 136 6 195 23 280 80 113
75 154 182 88 231 -22 17 -41 20 -108 19 -217 -5 -391 94 -487 275 -63 118
-99 141 -161 103z"/>
<path d="M8512 5685 c-6 -8 -19 -12 -27 -9 -9 4 -15 0 -15 -8 0 -15 -33 -18
-46 -5 -13 13 -65 7 -70 -7 -7 -17 -44 -9 -44 10 0 14 -20 13 -67 -2 -27 -8
-12 -26 17 -22 34 5 43 -16 10 -25 -24 -6 -50 17 -50 44 0 10 -7 19 -15 19 -9
0 -12 -6 -9 -17 5 -15 4 -16 -5 -3 -13 19 -143 20 -149 1 -3 -9 -7 -9 -18 0
-11 9 -14 8 -14 -2 -1 -11 -3 -11 -13 1 -8 11 -34 16 -86 18 -65 2 -72 0 -61
-13 20 -24 4 -29 -24 -7 -33 25 -142 24 -161 -1 -11 -15 -13 -15 -29 2 -10 11
-25 17 -37 14 -10 -3 -27 1 -36 8 -14 12 -15 12 -9 0 7 -10 2 -12 -23 -6 -26
5 -31 4 -31 -12 -1 -17 -2 -17 -13 -1 -18 23 -89 21 -76 -3 7 -13 4 -15 -16
-11 -13 2 -30 10 -36 18 -6 8 -18 14 -25 14 -17 0 -19 -29 -1 -34 6 -2 21 -7
32 -12 18 -6 18 -7 2 -11 -10 -3 -24 1 -32 7 -12 10 -15 10 -15 -1 0 -10 -3
-10 -12 -1 -7 7 -13 20 -13 30 0 12 -7 16 -25 13 -14 -1 -27 -7 -30 -11 -3 -5
-13 -3 -22 4 -10 7 -15 15 -12 18 2 3 -7 3 -21 0 -14 -2 -30 -12 -35 -21 -11
-22 3 -46 21 -36 11 6 12 5 2 -6 -15 -15 -32 -3 -38 27 -2 11 -4 21 -4 23 -1
2 -7 -1 -13 -6 -7 -6 -22 -13 -32 -17 -19 -7 -19 -6 -1 14 26 29 13 34 -29 11
-29 -17 -36 -18 -36 -6 0 20 -24 19 -41 -1 -12 -14 -14 -14 -19 0 -5 14 -8 14
-34 1 -25 -13 -27 -13 -22 0 9 23 -2 18 -36 -17 -18 -18 -26 -25 -19 -16 14
19 8 48 -10 48 -6 0 -9 -7 -5 -15 3 -9 0 -15 -9 -15 -8 0 -15 7 -15 15 0 11
-12 15 -47 15 -43 0 -45 -1 -27 -15 16 -12 17 -14 2 -15 -9 0 -25 -3 -35 -6
-13 -4 -14 -3 -5 3 10 8 10 12 -1 22 -12 9 -16 8 -21 -4 -3 -8 -10 -15 -17
-15 -6 0 -9 6 -6 13 7 19 -55 16 -70 -3 -11 -13 -14 -12 -19 8 -6 21 -24 31
-24 14 0 -5 -22 -8 -50 -8 -34 1 -50 -3 -50 -11 0 -9 17 -14 48 -15 40 -1 42
-2 12 -5 -19 -3 -41 -9 -47 -15 -10 -8 -13 -6 -13 6 0 9 -7 16 -16 16 -10 0
-14 5 -10 16 3 8 2 13 -3 10 -4 -3 -23 -1 -42 4 -19 6 -37 6 -42 1 -5 -5 -2
-8 8 -8 10 1 20 -5 22 -13 4 -13 3 -13 -6 0 -10 13 -12 13 -21 0 -7 -12 -10
-12 -10 -1 0 11 -18 12 -92 6 -51 -4 -97 -11 -102 -16 -6 -5 -21 -9 -34 -9
-14 0 -31 -8 -39 -17 -10 -13 -16 -15 -19 -5 -3 6 -13 12 -22 12 -15 0 -15 -2
-2 -10 12 -8 9 -10 -12 -10 -16 0 -28 5 -28 10 0 6 -5 10 -11 10 -5 0 -7 -4
-4 -10 4 -6 -7 -10 -25 -10 -28 0 -30 -2 -25 -27 3 -16 2 -21 -2 -13 -14 33
-63 57 -63 31 0 -5 -21 -7 -46 -5 -43 4 -45 3 -40 -18 3 -13 3 -17 0 -10 -3 6
-17 12 -30 12 -13 0 -24 -6 -24 -12 0 -10 -3 -9 -9 1 -6 10 -17 11 -37 6 -16
-4 -44 -7 -62 -6 -18 2 -38 -2 -45 -7 -7 -5 -55 -13 -107 -17 -52 -4 -99 -11
-105 -15 -5 -4 -53 -11 -105 -15 -52 -4 -99 -10 -105 -14 -5 -3 -57 -12 -115
-18 -58 -7 -159 -20 -225 -28 -341 -44 -526 -66 -730 -85 -66 -6 -142 -15
-170 -21 -47 -9 -107 -15 -420 -39 -71 -5 -161 -14 -200 -20 -38 -5 -128 -12
-200 -15 -71 -4 -168 -10 -215 -16 -47 -5 -193 -14 -325 -19 -132 -5 -289 -13
-350 -17 -135 -9 -1021 -9 -1125 0 -41 3 -154 11 -250 16 -96 6 -209 15 -250
21 -95 12 -230 29 -340 41 -47 5 -94 13 -105 18 -11 5 -39 12 -62 14 l-43 5 0
-2669 0 -2669 7070 0 7070 0 0 2820 c0 1551 -4 2820 -8 2820 -4 0 -13 -5 -20
-12 -9 -9 -12 -8 -12 5 0 9 -7 17 -16 17 -9 0 -14 6 -11 13 6 16 -6 17 -178
13 -139 -4 -138 -4 -132 -20 4 -10 0 -12 -14 -9 -10 3 -19 11 -19 17 0 7 -16
11 -40 11 -26 0 -40 -4 -40 -12 0 -7 6 -13 13 -13 7 0 13 -9 13 -20 0 -13 -7
-20 -19 -20 -14 0 -18 5 -14 20 3 10 -1 24 -9 31 -8 6 -12 14 -10 18 3 4 -12
5 -32 3 -20 -3 -73 -4 -117 -4 -44 0 -74 -2 -67 -5 19 -8 14 -23 -8 -23 -11 0
-20 6 -20 13 0 8 -4 7 -10 -3 -9 -13 -11 -13 -20 0 -6 10 -10 11 -10 3 0 -16
-22 -17 -38 -1 -6 6 -30 12 -54 13 -23 1 -44 7 -46 14 -2 7 -8 6 -18 -4 -8 -8
-21 -12 -29 -9 -8 4 -18 -1 -21 -10 -8 -20 -24 -21 -24 -1 0 16 -29 10 -43 -9
-6 -8 -10 -7 -14 2 -2 6 -13 12 -24 12 -13 0 -17 5 -12 18 7 16 6 16 -11 -1
-14 -13 -28 -16 -64 -11 -26 3 -60 5 -77 3 -16 -1 -51 -2 -76 -2 l-46 0 3 -36
c1 -20 0 -28 -3 -18 -2 9 -9 17 -14 17 -5 0 -9 8 -9 18 0 14 -8 17 -35 17 -20
-1 -41 -7 -47 -13 -9 -9 -16 -8 -30 5 -17 15 -18 15 -18 -6 0 -14 -5 -21 -12
-18 -7 2 -12 14 -10 26 3 19 1 20 -22 10 -19 -9 -29 -9 -40 0 -10 9 -20 9 -33
2 -11 -5 -31 -8 -46 -7 -15 2 -32 -3 -38 -11 -9 -10 -15 -10 -25 -2 -8 6 -12
14 -9 18 8 14 -38 4 -49 -10 -12 -15 -40 -19 -52 -6 -13 12 -64 8 -70 -7 -6
-17 -44 -9 -44 9 0 17 -72 4 -78 -14 -3 -10 3 -12 27 -9 33 5 44 -15 15 -26
-20 -8 -54 20 -54 44 0 15 -9 17 -62 16 l-63 -2 0 -31 c1 -22 -3 -29 -13 -25
-9 3 -12 15 -10 33 4 25 3 27 -16 16 -26 -14 -49 -15 -58 -2 -4 5 -38 10 -77
12 l-69 2 2 -35 c4 -40 -12 -56 -57 -60 -18 -1 -24 0 -14 3 14 4 17 11 12 30
-4 18 -2 24 7 21 7 -3 15 -15 18 -28 5 -20 7 -21 19 -6 8 10 9 16 3 16 -6 0
-9 6 -6 14 10 25 -36 44 -101 41 -46 -2 -61 -6 -63 -19 -4 -21 -15 -20 -36 3
-10 11 -25 17 -37 14 -10 -3 -27 1 -36 8 -12 10 -14 10 -9 2 4 -8 2 -13 -8
-13 -8 0 -16 -6 -19 -12 -2 -7 -3 -5 -2 5 2 9 -3 17 -10 17 -8 0 -16 -8 -18
-17 -4 -17 -5 -17 -6 0 -1 14 -9 17 -46 15 -25 -2 -45 -4 -45 -5 0 -1 7 -9 16
-18 15 -15 14 -15 -12 -9 -16 4 -36 13 -45 20 -20 18 -39 18 -39 0 0 -8 15
-20 33 -26 25 -10 28 -14 13 -17 -10 -3 -23 1 -27 9 -7 9 -11 10 -16 2 -6 -9
-11 -8 -20 1 -9 9 -9 15 -2 17 7 2 6 8 -3 15 -11 9 -20 9 -41 -2 -15 -8 -27
-10 -27 -4 0 5 -7 9 -15 9 -8 0 -15 -6 -15 -13 0 -8 -8 -22 -19 -31 -17 -15
-20 -16 -34 -1 -9 8 -14 22 -11 30 7 16 -11 21 -20 6 -3 -5 -15 -11 -27 -14
-20 -5 -20 -5 -3 14 9 10 15 21 12 24 -6 6 -58 -18 -58 -27 0 -5 -4 -8 -10 -8
-5 0 -10 7 -10 15 0 8 -7 15 -15 15 -9 0 -18 -7 -21 -15 -7 -18 -24 -20 -24
-2 0 7 -12 12 -30 11 -49 -2 -50 -3 -62 -29 -6 -14 -16 -25 -22 -25 -6 0 -5 5
2 12 17 17 15 48 -3 48 -9 0 -12 -6 -9 -15 4 -9 0 -15 -10 -15 -9 0 -16 7 -16
15 0 11 -11 15 -47 14 -27 -1 -40 -3 -30 -6 23 -6 22 -23 -2 -23 -13 0 -18 -6
-16 -17 1 -10 0 -12 -2 -5 -3 6 -10 12 -16 12 -8 0 -8 3 1 9 10 6 10 10 -3 21
-12 10 -15 10 -15 -4 0 -9 -7 -16 -16 -16 -9 0 -14 6 -11 13 3 8 -6 12 -29 12
-23 0 -34 -5 -34 -15 -1 -10 -7 -7 -21 9 -12 15 -23 21 -27 15 -4 -6 -28 -10
-55 -9 -65 0 -65 -24 1 -27 40 -1 42 -2 12 -5 -19 -3 -41 -9 -47 -15 -10 -8
-13 -6 -13 6 0 9 -7 16 -16 16 -10 0 -14 5 -10 16 3 8 2 13 -3 10 -4 -3 -23
-1 -42 4 -19 6 -37 6 -42 1 -5 -5 -2 -8 8 -8 10 1 20 -5 22 -13 4 -13 3 -13
-6 0 -9 12 -12 13 -20 1 -6 -10 -10 -10 -13 -1 -2 8 -39 13 -121 14 -64 1
-117 1 -117 0 0 -2 7 -10 16 -18 8 -9 11 -16 5 -16 -6 0 -19 8 -29 18 -21 21
-82 24 -82 3 0 -11 -3 -11 -15 -1 -8 7 -13 15 -11 19 2 3 -9 5 -25 5 -47 -2
-51 -3 -47 -16 5 -13 -26 -48 -42 -48 -5 0 -10 -7 -10 -16 0 -9 -5 -12 -12 -8
-8 5 0 17 22 35 19 16 32 30 29 33 -2 2 -35 7 -74 10 -38 3 -64 3 -57 0 19 -9
14 -24 -8 -24 -11 0 -20 5 -20 11 0 6 -5 7 -12 2 -23 -13 -51 -14 -67 0 -9 7
-27 12 -41 11 -14 -1 -36 2 -49 7 -15 6 -28 6 -37 -2 -7 -6 -17 -8 -22 -5 -6
3 -16 -1 -23 -10 -12 -15 -14 -15 -19 0 -4 13 -9 14 -30 3 -19 -10 -30 -10
-47 -2 -13 7 -20 15 -15 20 4 4 -2 3 -14 -3 -12 -6 -41 -9 -65 -6 -24 2 -57 4
-74 3 -16 -1 -51 -2 -78 -2 -37 0 -47 -3 -45 -15 2 -8 -3 -17 -9 -19 -8 -3
-13 3 -13 14 0 15 -7 18 -35 18 -20 -1 -41 -7 -47 -13 -9 -9 -16 -8 -30 5 -17
15 -18 15 -18 -6 0 -14 -5 -21 -12 -18 -8 2 -12 16 -10 33 3 28 3 28 -18 9
-17 -16 -25 -17 -40 -7 -12 7 -28 9 -42 4 -13 -5 -34 -7 -48 -6 -14 1 -31 -5
-38 -14 -11 -14 -14 -15 -21 -3 -5 8 -7 20 -4 28 7 17 1 16 -15 -2z m551 -24
c6 -23 -10 -41 -36 -41 -26 0 -11 20 16 21 12 0 16 3 10 6 -15 5 -18 33 -4 33
5 0 11 -9 14 -19z m3829 2 c8 -29 -2 -43 -28 -43 -31 0 -22 20 9 21 12 0 16 3
10 6 -15 5 -18 33 -4 33 5 0 11 -8 13 -17z m1127 -6 c0 -8 -2 -8 -6 1 -4 10
-8 10 -19 1 -9 -7 -14 -8 -14 -1 0 12 21 22 33 15 4 -2 7 -10 6 -16z m-6823
-14 c-10 -10 -19 5 -10 18 6 11 8 11 12 0 2 -7 1 -15 -2 -18z m330 0 c-10 -10
-19 5 -10 18 6 11 8 11 12 0 2 -7 1 -15 -2 -18z m214 17 c0 -5 -4 -10 -9 -10
-5 0 -13 -9 -16 -20 -3 -11 -10 -20 -15 -20 -4 0 -10 9 -13 20 -4 15 0 20 14
20 10 0 19 5 19 10 0 6 5 10 10 10 6 0 10 -4 10 -10z m60 1 c0 -5 -6 -12 -12
-14 -8 -3 -6 -6 5 -6 11 -1 17 -9 17 -26 0 -14 5 -25 10 -25 9 0 14 14 11 32
0 4 6 5 14 2 23 -9 -14 -40 -50 -41 -16 0 -22 1 -12 4 9 2 17 11 17 20 0 9 -6
13 -14 10 -23 -9 -41 19 -24 37 15 17 38 21 38 7z m145 -1 c3 -5 -1 -10 -9
-10 -9 0 -16 5 -16 10 0 6 4 10 9 10 6 0 13 -4 16 -10z m155 0 c6 9 10 10 10
3 0 -6 10 -14 23 -16 19 -4 19 -4 -3 -3 -36 1 -57 -13 -39 -26 11 -8 11 -9 -1
-5 -8 2 -16 17 -18 33 -2 22 0 26 8 14 9 -13 11 -13 20 0z m569 -4 c10 -12 8
-13 -8 -9 -25 6 -27 0 -6 -21 14 -13 9 -15 -42 -13 -37 1 -58 -2 -60 -10 -3
-7 -9 -13 -15 -13 -6 0 -6 6 2 15 11 13 9 15 -13 15 -14 0 -27 7 -31 15 -7 20
9 19 45 -2 21 -12 32 -14 37 -7 4 6 19 14 35 18 15 3 27 11 27 16 0 15 16 12
29 -4z m330 4 c6 8 13 11 18 7 8 -9 -17 -28 -31 -24 -6 2 -11 10 -14 18 -3 11
-2 11 7 -1 10 -13 12 -13 20 0z m456 -9 c-3 -6 -11 -11 -16 -11 -5 0 -4 6 3
14 14 16 24 13 13 -3z m1295 9 c0 -5 -4 -10 -10 -10 -5 0 -10 5 -10 10 0 6 5
10 10 10 6 0 10 -4 10 -10z m85 0 c3 -5 1 -10 -4 -10 -6 0 -11 5 -11 10 0 6 2
10 4 10 3 0 8 -4 11 -10z m710 -34 c-15 -20 -30 -36 -32 -36 -3 0 0 7 7 15 10
12 10 18 0 30 -11 13 -8 15 14 15 14 0 26 5 26 12 0 6 3 9 6 5 3 -3 -6 -22
-21 -41z m85 35 c0 -5 -7 -14 -15 -21 -13 -11 -13 -15 -3 -21 9 -6 9 -9 1 -9
-17 0 -25 17 -18 40 6 20 35 29 35 11z m145 -1 c3 -5 -1 -10 -10 -10 -9 0 -13
5 -10 10 3 6 8 10 10 10 2 0 7 -4 10 -10z m195 -13 c22 -4 21 -5 -4 -4 -17 1
-31 9 -33 17 -3 10 -2 11 4 4 4 -7 19 -14 33 -17z m529 9 c10 -12 8 -13 -11
-9 -23 6 -23 6 -4 -15 l18 -21 -56 2 c-41 1 -60 -2 -67 -13 -9 -13 -10 -12 -5
3 4 12 0 17 -13 17 -10 0 -24 7 -31 15 -18 21 8 20 39 -1 20 -14 26 -15 49 -3
20 11 26 11 29 2 3 -7 9 -13 15 -13 6 0 8 6 5 14 -3 7 0 19 6 25 14 14 12 14
26 -3z m330 3 c5 8 14 10 22 6 9 -6 6 -11 -10 -17 -25 -9 -41 -3 -41 15 0 7 4
6 10 -3 8 -13 11 -13 19 -1z m386 -18 c-6 -5 -25 10 -25 20 0 5 6 4 14 -3 8
-7 12 -15 11 -17z m73 5 c0 -19 -3 -22 -13 -13 -8 8 -9 15 -1 24 6 7 12 12 12
13 1 0 2 -11 2 -24z m254 -6 c-12 -11 -26 -20 -31 -20 -5 0 -12 -8 -14 -17 -4
-17 -5 -17 -6 0 0 10 13 26 32 37 41 25 46 25 19 0z m-6938 -5 c-4 -8 -12 -15
-19 -15 -7 0 -22 -3 -32 -7 -16 -6 -17 -5 -2 9 8 9 24 18 35 21 10 2 20 5 21
6 1 0 0 -6 -3 -14z m336 -10 c-10 -12 -40 -11 -40 2 0 3 7 3 15 -1 9 -3 15 0
15 10 0 8 5 12 10 9 8 -5 7 -11 0 -20z m657 5 c3 -10 2 -11 -4 -4 -4 6 -15 14
-23 17 -11 5 -9 6 4 4 11 -1 21 -9 23 -17z m1596 3 c-3 -7 -11 -13 -19 -13 -8
0 -14 6 -14 13 0 7 8 13 19 13 11 0 17 -5 14 -13z m357 -33 c0 -10 -8 -24 -17
-31 -15 -11 -16 -11 -5 1 14 16 16 50 3 50 -5 0 -12 8 -15 17 -6 15 -4 15 14
-2 11 -10 20 -26 20 -35z m87 44 c-3 -3 -12 -4 -19 -1 -8 3 -5 6 6 6 11 1 17
-2 13 -5z m209 -14 c0 -14 -7 -20 -23 -20 -25 0 -29 10 -11 28 18 18 34 14 34
-8z m592 7 c-7 -8 -26 -17 -42 -21 -25 -6 -27 -5 -14 7 13 13 34 22 61 26 5 0
2 -5 -5 -12z m342 -1 c0 -19 -23 -27 -41 -14 -11 8 -10 9 4 4 11 -3 17 0 17 9
0 8 5 15 10 15 6 0 10 -6 10 -14z m647 -6 c3 -10 2 -11 -4 -4 -4 6 -15 14 -23
17 -11 5 -9 6 4 4 11 -1 21 -9 23 -17z m1598 4 c-7 -8 -18 -14 -24 -14 -6 0
-11 6 -11 14 0 8 10 14 24 14 21 0 23 -3 11 -14z m82 -10 c2 -13 1 -15 -4 -4
-3 8 -11 19 -17 23 -7 6 -6 7 4 4 8 -2 16 -12 17 -23z m273 -24 c0 -10 -8 -24
-17 -31 -15 -11 -16 -11 -5 1 14 16 16 50 3 50 -5 0 -12 8 -15 17 -6 15 -4 15
14 -2 11 -10 20 -26 20 -35z m87 44 c-3 -3 -12 -4 -19 -1 -8 3 -5 6 6 6 11 1
17 -2 13 -5z m-7066 -47 c-8 -8 -11 -6 -11 8 0 18 0 18 -15 -1 -9 -11 -14 -14
-15 -6 0 7 5 19 12 26 10 11 15 10 27 -1 10 -11 11 -17 2 -26z m2319 33 c0 -5
-4 -10 -10 -10 -5 0 -10 5 -10 10 0 6 5 10 10 10 6 0 10 -4 10 -10z m1170 1
c0 -12 -20 -25 -27 -18 -7 7 6 27 18 27 5 0 9 -4 9 -9z m2665 -1 c3 -5 -1 -10
-10 -10 -9 0 -13 5 -10 10 3 6 8 10 10 10 2 0 7 -4 10 -10z m1165 1 c0 -6 -4
-13 -10 -16 -5 -3 -10 1 -10 9 0 9 5 16 10 16 6 0 10 -4 10 -9z m-7547 -7 c8
-8 -3 -34 -14 -34 -5 0 -9 9 -9 20 0 19 11 26 23 14z m92 -4 c3 -6 -1 -7 -9
-4 -18 7 -21 14 -7 14 6 0 13 -4 16 -10z m3740 -8 c0 -18 -20 -15 -23 4 -3 10
1 15 10 12 7 -3 13 -10 13 -16z m235 -11 c-1 -14 -3 -13 -15 3 -15 19 -15 19
-15 1 0 -15 -3 -16 -12 -7 -10 10 -10 15 1 21 19 12 41 3 41 -18z m3592 -3
c-9 -9 -12 -7 -12 12 0 19 3 21 12 12 9 -9 9 -15 0 -24z m234 8 c2 -12 1 -13
-3 -1 -6 20 -23 19 -23 -2 0 -9 -3 -14 -6 -10 -4 3 -4 13 0 22 8 21 30 14 32
-9z m-7959 8 c-3 -3 -12 -4 -19 -1 -8 3 -5 6 6 6 11 1 17 -2 13 -5z m673 2 c0
-2 -8 -10 -17 -17 -16 -13 -17 -12 -4 4 13 16 21 21 21 13z m315 -5 c3 -5 1
-12 -5 -16 -5 -3 -10 1 -10 9 0 18 6 21 15 7z m135 -22 c0 -18 -18 -9 -23 12
-4 16 -3 18 9 8 8 -6 14 -15 14 -20z m1618 24 c-10 -2 -18 -9 -18 -15 0 -6 -3
-9 -6 -5 -10 10 6 27 24 26 15 -1 15 -2 0 -6z m770 -18 c-3 -3 -9 2 -12 12 -6
14 -5 15 5 6 7 -7 10 -15 7 -18z m121 -25 c0 -8 -5 -4 -13 10 -7 14 -10 29 -8
34 6 11 20 -20 21 -44z m198 44 c-3 -3 -12 -4 -19 -1 -8 3 -5 6 6 6 11 1 17
-2 13 -5z m667 -9 c-4 -8 -11 -15 -16 -15 -6 0 -5 6 2 15 7 8 14 15 16 15 2 0
1 -7 -2 -15z m326 0 c0 -8 -4 -15 -10 -15 -5 0 -10 7 -10 15 0 8 5 15 10 15 6
0 10 -7 10 -15z m127 -11 c2 -13 1 -15 -4 -4 -3 8 -11 19 -17 23 -7 6 -6 7 4
4 8 -2 16 -12 17 -23z m1621 19 c-10 -2 -18 -9 -18 -15 0 -6 -3 -9 -6 -5 -10
10 6 27 24 26 15 -1 15 -2 0 -6z m770 -18 c-3 -3 -9 2 -12 12 -6 14 -5 15 5 6
7 -7 10 -15 7 -18z m125 -6 c5 -4 6 -13 2 -20 -6 -9 -10 -8 -16 7 -4 10 -8 26
-8 34 1 13 1 13 6 0 3 -8 10 -18 16 -21z m194 25 c-3 -3 -12 -4 -19 -1 -8 3
-5 6 6 6 11 1 17 -2 13 -5z m-6722 -14 c3 -5 -1 -10 -10 -10 -9 0 -13 5 -10
10 3 6 8 10 10 10 2 0 7 -4 10 -10z m1955 -22 c0 -4 -4 -10 -10 -13 -5 -3 -10
0 -10 8 0 11 -7 13 -22 9 -20 -5 -21 -4 -10 11 11 13 17 14 33 4 10 -6 19 -15
19 -19z m35 22 c3 -5 -1 -10 -10 -10 -9 0 -13 5 -10 10 3 6 8 10 10 10 2 0 7
-4 10 -10z m1845 0 c0 -5 -7 -10 -16 -10 -8 0 -12 5 -9 10 3 6 10 10 16 10 5
0 9 -4 9 -10z m1928 -2 c-3 -7 -13 -15 -24 -17 -16 -3 -17 -1 -5 13 16 19 34
21 29 4z m62 2 c0 -5 -4 -10 -10 -10 -5 0 -10 5 -10 10 0 6 5 10 10 10 6 0 10
-4 10 -10z m-5735 -10 c3 -6 -1 -7 -9 -4 -18 7 -21 14 -7 14 6 0 13 -4 16 -10z
m2082 -16 c2 -13 1 -15 -4 -4 -3 8 -11 19 -17 23 -7 6 -6 7 4 4 8 -2 16 -12
17 -23z m160 4 c2 -17 0 -19 -7 -8 -5 8 -6 18 -4 22 8 12 10 10 11 -14z m1588
12 c3 -6 -1 -7 -9 -4 -18 7 -21 14 -7 14 6 0 13 -4 16 -10z m2082 -16 c2 -13
1 -15 -4 -4 -3 8 -11 19 -17 23 -7 6 -6 7 4 4 8 -2 16 -12 17 -23z m165 19
c-10 -4 -10 -8 -1 -19 7 -8 7 -14 1 -14 -12 0 -23 26 -15 34 4 3 11 6 17 5 6
0 5 -3 -2 -6z m-7215 -9 c-3 -3 -12 -4 -19 -1 -8 3 -5 6 6 6 11 1 17 -2 13 -5z
m1314 -11 c13 -16 12 -17 -3 -4 -10 7 -18 15 -18 17 0 8 8 3 21 -13z m600 0
c13 -16 12 -17 -3 -4 -10 7 -18 15 -18 17 0 8 8 3 21 -13z m104 6 c11 -16 1
-19 -13 -3 -7 8 -8 14 -3 14 5 0 13 -5 16 -11z m88 -4 c-3 -9 -8 -14 -10 -11
-3 3 -2 9 2 15 9 16 15 13 8 -4z m705 -10 c-3 -3 -9 2 -12 12 -6 14 -5 15 5 6
7 -7 10 -15 7 -18z m670 18 c-10 -2 -18 -9 -18 -15 0 -6 -3 -9 -6 -5 -10 10 6
27 24 26 15 -1 15 -2 0 -6z m110 -18 c-3 -3 -9 2 -12 12 -6 14 -5 15 5 6 7 -7
10 -15 7 -18z m1557 14 c11 -16 1 -19 -13 -3 -7 8 -8 14 -3 14 5 0 13 -5 16
-11z m703 -14 c-3 -3 -9 2 -12 12 -6 14 -5 15 5 6 7 -7 10 -15 7 -18z m85 10
c-3 -9 -8 -14 -10 -11 -3 3 -2 9 2 15 9 16 15 13 8 -4z m708 -2 c13 -16 12
-17 -3 -4 -10 7 -18 15 -18 17 0 8 8 3 21 -13z m189 1 c0 -8 -4 -12 -10 -9 -5
3 -10 10 -10 16 0 5 5 9 10 9 6 0 10 -7 10 -16z m478 9 c-10 -2 -18 -9 -18
-15 0 -6 -3 -9 -6 -5 -10 10 6 27 24 26 15 -1 15 -2 0 -6z m110 -18 c-3 -3 -9
2 -12 12 -6 14 -5 15 5 6 7 -7 10 -15 7 -18z m249 19 c-3 -3 -12 -4 -19 -1 -8
3 -5 6 6 6 11 1 17 -2 13 -5z m-3253 -63 c-5 -5 -54 42 -54 52 0 5 13 -4 29
-20 16 -15 27 -30 25 -32z m-3859 31 c-3 -3 -11 0 -18 7 -9 10 -8 11 6 5 10
-3 15 -9 12 -12z m3925 14 c0 -2 -7 -7 -16 -10 -8 -3 -12 -2 -9 4 6 10 25 14
25 6z m-4670 -21 c0 -8 -4 -15 -10 -15 -5 0 -10 7 -10 15 0 8 5 15 10 15 6 0
10 -7 10 -15z m1757 -17 c-3 -7 -5 -2 -5 12 0 14 2 19 5 13 2 -7 2 -19 0 -25z
m773 17 c0 -8 -4 -15 -10 -15 -5 0 -10 7 -10 15 0 8 5 15 10 15 6 0 10 -7 10
-15z m390 6 c0 -6 -4 -13 -10 -16 -5 -3 -10 1 -10 9 0 9 5 16 10 16 6 0 10 -4
10 -9z m140 -6 c-10 -12 -16 -13 -26 -4 -20 16 -18 19 12 19 22 0 25 -2 14
-15z m770 -1 c0 -8 -5 -12 -10 -9 -6 4 -8 11 -5 16 9 14 15 11 15 -7z m1770
-4 c0 -11 -4 -20 -10 -20 -5 0 -10 9 -10 20 0 11 5 20 10 20 6 0 10 -9 10 -20z
m760 4 c0 -8 -5 -12 -10 -9 -6 4 -8 11 -5 16 9 14 15 11 15 -7z m390 0 c0 -8
-4 -12 -10 -9 -5 3 -10 10 -10 16 0 5 5 9 10 9 6 0 10 -7 10 -16z m140 1 c-10
-12 -16 -13 -26 -4 -20 16 -18 19 12 19 22 0 25 -2 14 -15z m767 -7 c-3 -8 -6
-5 -6 6 -1 11 2 17 5 13 3 -3 4 -12 1 -19z m-5282 2 c3 -5 -1 -10 -9 -10 -9 0
-16 5 -16 10 0 6 4 10 9 10 6 0 13 -4 16 -10z m460 -9 c-3 -6 -14 -10 -23 -10
-15 1 -15 2 1 6 9 2 17 9 17 15 0 6 3 9 6 5 3 -3 3 -10 -1 -16z m3370 9 c3 -5
-1 -10 -10 -10 -9 0 -13 5 -10 10 3 6 8 10 10 10 2 0 7 -4 10 -10z m1210 -9
c-3 -6 -11 -11 -16 -11 -5 0 -4 6 3 14 14 16 24 13 13 -3z m330 0 c-3 -6 -11
-11 -16 -11 -5 0 -4 6 3 14 14 16 24 13 13 -3z m-7985 5 c0 -2 -7 -7 -16 -10
-8 -3 -12 -2 -9 4 6 10 25 14 25 6z m330 0 c0 -2 -7 -7 -16 -10 -8 -3 -12 -2
-9 4 6 10 25 14 25 6z m685 -14 c-3 -3 -11 0 -18 7 -9 10 -8 11 6 5 10 -3 15
-9 12 -12z m2810 8 c-3 -5 -12 -10 -18 -10 -7 0 -6 4 3 10 19 12 23 12 15 0z
m1745 0 c0 -5 -4 -10 -10 -10 -5 0 -10 5 -10 10 0 6 5 10 10 10 6 0 10 -4 10
-10z m1335 0 c-3 -5 -14 -10 -23 -9 -14 0 -13 2 3 9 27 11 27 11 20 0z m-6842
-15 c-3 -9 -8 -14 -10 -11 -3 3 -2 9 2 15 9 16 15 13 8 -4z m2834 -17 c-3 -7
-5 -2 -5 12 0 14 2 19 5 13 2 -7 2 -19 0 -25z m996 17 c-3 -9 -8 -14 -10 -11
-3 3 -2 9 2 15 9 16 15 13 8 -4z m2834 -17 c-3 -7 -5 -2 -5 12 0 14 2 19 5 13
2 -7 2 -19 0 -25z m1001 18 c-7 -8 -15 -12 -17 -11 -5 6 10 25 20 25 5 0 4 -6
-3 -14z m-2963 -57 c11 -16 1 -19 -13 -3 -7 8 -8 14 -3 14 5 0 13 -5 16 -11z
m-4706 -3224 c86 -21 154 -59 207 -118 53 -60 58 -97 17 -132 -16 -13 -41 -35
-58 -49 l-30 -25 61 -1 c110 0 144 -26 144 -109 0 -194 -130 -376 -308 -431
-282 -87 -561 106 -580 402 -19 302 253 532 547 463z m3159 -5 c18 -11 42 -39
53 -64 29 -58 20 -105 -30 -158 -32 -35 -45 -41 -87 -45 -122 -10 -203 109
-146 216 36 67 141 93 210 51z m-2366 -17 c8 -10 22 -45 31 -78 9 -33 25 -82
35 -108 l18 -48 28 101 c16 55 37 112 48 125 19 24 23 25 147 25 109 0 130 -3
144 -17 15 -18 39 -167 93 -588 29 -228 28 -211 4 -235 -18 -18 -33 -20 -134
-20 -112 0 -115 1 -135 26 -15 19 -21 41 -21 75 0 26 -4 51 -10 54 -5 3 -10 2
-10 -4 0 -21 -42 -121 -56 -136 -11 -11 -39 -15 -103 -15 -105 0 -105 0 -142
109 l-26 76 -8 -70 c-12 -113 -14 -115 -155 -115 -172 0 -163 -39 -105 432 25
210 52 389 58 398 22 28 32 30 158 30 108 0 128 -3 141 -17z m1267 -9 c20 -25
21 -39 21 -268 0 -338 -12 -394 -106 -490 -61 -63 -112 -81 -229 -81 -89 0
-106 3 -157 28 -102 50 -165 149 -170 269 -4 95 5 102 135 106 92 3 105 2 130
-18 16 -12 27 -31 27 -45 0 -39 11 -55 36 -55 l24 0 0 261 c0 256 4 291 34
311 6 4 61 8 123 8 109 0 112 -1 132 -26z m887 -249 c49 -9 109 -25 133 -37
57 -28 128 -102 177 -186 38 -65 39 -65 46 -36 4 16 10 69 14 119 l6 90 24
-48 c14 -26 38 -87 54 -136 55 -164 36 -251 -55 -251 -48 0 -188 67 -272 130
-29 22 -56 40 -60 40 -14 0 -143 -137 -143 -152 0 -9 21 -18 62 -27 94 -19
126 -35 144 -74 15 -32 15 -38 0 -83 -31 -94 -118 -199 -231 -280 -57 -40
-338 -182 -392 -199 -41 -12 -24 9 48 60 86 61 211 188 267 272 23 34 42 64
42 66 0 2 -26 7 -57 11 -137 15 -203 61 -203 138 0 44 30 106 123 251 27 43
47 80 44 84 -12 11 -95 -8 -156 -37 -47 -23 -92 -59 -182 -147 -65 -64 -122
-114 -125 -110 -11 11 35 141 73 207 56 96 221 259 303 299 107 52 177 60 316
36z m-416 -596 c0 -52 81 -129 135 -129 9 0 15 -6 13 -12 -6 -19 -215 -196
-346 -295 -181 -135 -414 -275 -430 -258 -4 4 18 30 48 58 97 93 267 287 450
515 63 78 118 142 122 142 4 0 8 -10 8 -21z m-903 -190 c40 -15 73 -49 73 -75
0 -18 -9 -24 -51 -34 -40 -10 -53 -10 -59 0 -10 17 -54 8 -58 -12 -2 -12 16
-27 66 -52 90 -45 122 -83 122 -142 0 -25 -9 -62 -20 -83 -46 -90 -215 -94
-270 -6 -31 50 -26 60 32 73 48 12 53 11 75 -10 19 -18 28 -20 41 -12 34 22
20 48 -45 79 -85 41 -114 72 -120 126 -6 62 20 108 77 137 48 24 93 28 137 11z
m-1663 -21 c3 -13 6 -37 6 -55 l0 -32 -72 -3 c-71 -3 -73 -4 -76 -30 -3 -28
-2 -28 52 -28 l56 0 0 -54 0 -55 -52 -3 c-49 -3 -53 -5 -56 -30 -3 -27 -3 -27
70 -30 68 -3 73 -5 76 -27 2 -13 1 -39 -3 -57 l-6 -34 -129 0 -130 0 0 230 0
230 129 0 c125 0 129 -1 135 -22z m172 -63 c12 -44 28 -100 34 -125 l12 -45
18 58 c10 31 26 89 35 127 l17 70 69 0 c49 0 69 -4 69 -12 0 -7 -33 -110 -73
-228 l-72 -215 -62 -3 -62 -3 -25 78 c-13 43 -47 142 -75 221 -28 79 -51 148
-51 153 0 6 29 9 72 7 l72 -3 22 -80z m528 69 c3 -9 6 -33 6 -55 l0 -39 -75 0
-75 0 0 -30 c0 -28 1 -29 58 -32 l57 -3 3 -52 3 -53 -60 0 c-61 0 -61 0 -61
-30 l0 -29 73 -3 72 -3 0 -55 0 -55 -132 -3 -133 -3 0 231 0 230 129 0 c108 0
130 -3 135 -16z m216 -101 l75 -112 3 115 3 115 57 -3 57 -3 0 -225 0 -225
-54 0 -54 0 -61 85 c-34 47 -69 97 -78 110 -16 24 -17 21 -17 -87 l-1 -113
-55 0 -55 0 0 231 0 230 52 -3 52 -3 76 -112z m515 62 l0 -50 -42 -3 -43 -3
-2 -172 -3 -172 -60 0 -60 0 -3 173 -2 172 -45 0 -45 0 0 55 0 56 153 -3 152
-3 0 -50z m-1735 -225 l0 -30 -80 0 -80 0 0 30 0 30 80 0 80 0 0 -30z m2268
-2 l3 -28 -85 0 c-83 0 -86 1 -86 23 0 13 3 27 7 31 4 4 41 5 83 4 74 -3 75
-4 78 -30z"/>
<path d="M8620 5629 c0 -5 5 -7 10 -4 6 3 10 8 10 11 0 2 -4 4 -10 4 -5 0 -10
-5 -10 -11z"/>
<path d="M5420 2171 c-101 -33 -179 -99 -229 -193 -43 -83 -56 -158 -42 -238
25 -135 95 -231 208 -287 72 -36 83 -38 167 -38 82 0 98 3 156 32 73 36 90 49
142 113 50 63 69 112 75 203 l6 77 -202 0 -201 0 0 -75 0 -75 94 0 c52 0 97
-4 100 -9 9 -14 -33 -60 -75 -81 -42 -22 -130 -27 -173 -10 -43 16 -104 79
-122 125 -23 63 -16 151 18 202 73 111 218 135 314 51 l34 -30 60 48 c33 26
60 53 60 59 0 21 -70 76 -130 104 -44 20 -73 26 -145 28 -49 1 -101 -1 -115
-6z"/>
<path d="M5447 1932 c-37 -25 -55 -50 -68 -96 -14 -50 3 -115 37 -147 l24 -22
0 100 c0 125 7 133 112 141 71 5 72 5 49 23 -31 25 -116 26 -154 1z"/>
<path d="M6176 2158 c-5 -16 -86 -686 -86 -710 0 -16 11 -18 80 -18 56 0 82 4
84 13 3 6 12 94 22 195 13 132 22 182 31 182 8 0 37 -76 75 -195 l62 -195 58
0 c44 0 59 4 66 18 5 9 33 97 63 195 71 238 78 237 101 -18 9 -105 17 -191 17
-192 1 -2 39 -3 86 -3 82 0 85 1 85 23 -1 24 -34 280 -71 550 l-23 167 -97 0
-97 0 -21 -62 c-11 -35 -34 -112 -51 -173 -17 -60 -33 -118 -36 -127 -10 -33
-33 -19 -44 25 -6 23 -32 107 -59 187 l-47 145 -97 3 c-73 2 -98 -1 -101 -10z"/>
<path d="M7470 1920 c0 -266 -6 -306 -48 -329 -60 -32 -142 14 -142 78 l0 31
-85 0 -85 0 0 -28 c0 -16 6 -50 14 -76 34 -111 124 -171 256 -170 91 1 139 22
198 89 56 64 62 101 62 400 l0 255 -85 0 -85 0 0 -250z"/>
<path d="M8328 1890 c-58 -24 -115 -59 -164 -102 -47 -41 -137 -149 -130 -155
3 -3 24 11 47 31 89 76 231 119 328 100 17 -4 31 -12 31 -18 0 -6 -16 -35 -35
-63 -74 -111 -175 -288 -175 -308 0 -23 32 -57 65 -69 11 -4 58 -11 103 -16
85 -9 112 -21 112 -47 0 -17 -73 -129 -120 -185 -18 -21 -28 -38 -23 -38 25 0
157 106 207 167 79 94 106 164 73 191 -13 11 -129 39 -182 44 -27 3 -30 6 -27
36 4 53 28 90 116 176 116 115 156 207 104 240 -62 39 -251 48 -330 16z"/>
<path d="M11013 5683 c-13 -2 -23 -11 -23 -19 0 -8 -5 -14 -11 -14 -8 0 -8 -5
1 -15 15 -18 25 -13 44 25 8 17 14 29 13 29 -1 -1 -12 -4 -24 -6z"/>
<path d="M14100 5663 c0 -7 9 -13 20 -13 11 0 20 6 20 13 0 7 -9 13 -20 13
-11 0 -20 -6 -20 -13z"/>
</g>
</svg>
