<svg width="1512" height="237" viewBox="0 0 1512 237" fill="none" xmlns="http://www.w3.org/2000/svg">
<path d="M-35.7687 18.5635C-35.7687 18.5635 -112 18.5633 1091.5 18.5635C2295 18.5637 2218.77 18.5635 2218.77 18.5635V531H-35.7687V18.5635Z" fill="url(#paint0_linear_43_68)"/>
<path d="M-73 24.9492C-73 24.9492 91.5 -31.1865 788 24.9492C1484.5 81.085 1649 24.9492 1649 24.9492V381.085H-73V24.9492Z" fill="#98C340"/>
<path d="M-64 126.596C-64 126.596 -18.494 233.671 875 126.596C1768.49 19.5212 1814 138.899 1814 138.899V665H-64V126.596Z" fill="url(#paint1_linear_43_68)"/>
<defs>
<linearGradient id="paint0_linear_43_68" x1="1074.58" y1="-135.387" x2="1074.58" y2="665.002" gradientUnits="userSpaceOnUse">
<stop stop-color="#658ED8"/>
<stop offset="1" stop-color="#3F64A9"/>
</linearGradient>
<linearGradient id="paint1_linear_43_68" x1="875.994" y1="16.982" x2="875.994" y2="665.002" gradientUnits="userSpaceOnUse">
<stop stop-color="#4EA23F"/>
<stop offset="1" stop-color="#306A26"/>
</linearGradient>
</defs>
</svg>
