<svg width="455" height="266" viewBox="0 0 455 266" fill="none" xmlns="http://www.w3.org/2000/svg">
<path d="M444.278 234.753L439.271 217.998L427.138 211.836C427.138 211.836 425.405 206.059 422.516 205.481C419.628 204.903 420.205 204.711 416.739 204.133C413.08 203.555 411.732 204.903 411.732 204.903L402.681 193.348H388.815C388.815 193.348 384.964 185.645 381.497 184.297C378.031 182.949 373.987 182.372 371.098 183.527C368.209 184.682 365.898 185.068 363.588 184.105C361.084 182.949 354.921 183.912 354.921 183.912C354.921 183.912 353.959 171.009 351.07 168.121C348.181 165.425 342.982 166.388 341.248 168.121C339.515 170.047 338.167 172.935 336.241 170.239C334.316 167.543 329.501 163.691 327.383 165.039C325.457 166.388 323.916 166.58 322.183 165.425C320.643 164.269 316.406 165.425 316.406 165.425V138.271L312.747 127.102V117.858L304.466 102.259L298.111 104.185L295.993 93.2078L293.489 107.073L264.988 114.777V104.377L256.514 76.8387L254.203 86.275L250.544 79.9199L249.196 85.1195L245.537 74.7203L243.034 79.5348L233.405 72.0242L223.005 51.8035V46.9891L220.309 27.3461V0H218.961V27.5387L216.073 46.4113V51.6109L205.288 72.0242V95.1336L194.119 93.7856L184.105 108.999L164.847 115.162L158.492 122.287L151.944 127.294L149.633 130.761L147.515 131.916V143.663L143.663 145.589H140.582L136.73 148.285L132.494 169.469L129.22 174.476L127.487 178.52C124.598 175.824 121.709 173.32 119.591 172.357C113.621 169.276 104.377 175.246 100.333 172.357C96.2891 169.276 94.1707 170.239 93.2078 176.402C92.2449 182.564 92.0523 190.075 88.2008 188.534C80.1125 185.645 72.0242 184.49 72.0242 187.571C72.0242 190.652 71.0613 189.689 68.943 194.697C67.7875 197.585 67.9801 201.244 68.1727 204.711C65.0914 206.059 62.3953 207.214 61.0473 207.407C57.5809 207.984 47.7594 208.947 47.7594 208.947V217.421L36.975 224.546L34.0863 224.161L26.9609 236.101H13.8656V247.848H0V265.18H454.484V248.041L444.278 234.753Z" fill="white"/>
</svg>
